M48
;DRILL file {Pcbnew (2012-nov-02)-testing} date Thu 03 Jan 2013 01:37:38 PM EET
;FORMAT={-:-/ absolute / metric / decimal}
FMAT,2
METRIC,TZ
T1C0.600
T2C0.800
T3C0.800
T4C0.813
T5C1.000
T6C1.001
T7C1.199
T8C1.250
T9C1.600
T10C1.800
T11C3.000
%
G90
G05
M71
T1
X79.3Y-65.34
X79.3Y-70.42
X79.3Y-75.5
X79.3Y-80.58
X79.3Y-85.66
X104.7Y-65.34
X104.7Y-70.42
X104.7Y-75.5
X104.7Y-80.58
X104.7Y-85.66
T2
X121.Y-94.5
X125.Y-79.
X126.Y-67.5
X128.Y-81.
X129.Y-85.
X170.5Y-77.5
X172.Y-85.
T3
X114.73Y-93.5
X117.27Y-93.5
X120.23Y-62.
X122.77Y-62.
X129.Y-87.73
X129.Y-90.27
X148.46Y-71.
X151.Y-71.
X153.54Y-71.
X158.96Y-71.
X161.5Y-71.
X164.04Y-71.
X171.5Y-87.73
X171.5Y-90.27
T4
X114.73Y-86.23
X115.73Y-65.23
X115.73Y-67.77
X117.27Y-86.23
X117.27Y-88.77
X118.27Y-65.23
X130.19Y-67.19
X130.19Y-74.81
X132.73Y-67.19
X132.73Y-74.81
X135.27Y-67.19
X135.27Y-74.81
X137.81Y-67.19
X137.81Y-74.81
T5
X64.5Y-52.5
X64.5Y-96.5
X127.Y-94.5
X131.5Y-55.5
X170.Y-55.5
T6
X115.46Y-73.96
X115.46Y-79.04
X120.54Y-73.96
X120.54Y-79.04
X143.46Y-83.
X146.Y-83.
X148.54Y-83.
X154.96Y-83.5
X157.5Y-83.5
X160.04Y-83.5
T7
X66.5Y-58.616
X66.5Y-80.384
T8
X66.5Y-85.96
X66.5Y-91.04
X115.42Y-54.5
X120.5Y-54.5
X125.58Y-54.5
T9
X142.5Y-60.05
X142.5Y-88.95
X158.Y-60.05
X158.Y-88.95
T10
X79.3Y-58.
X79.3Y-93.
X104.7Y-58.
X104.7Y-93.
T11
X137.4Y-60.05
X137.4Y-88.95
X142.5Y-54.95
X142.5Y-94.05
X147.6Y-60.05
X147.6Y-88.95
X152.9Y-60.05
X152.9Y-88.95
X158.Y-54.95
X158.Y-94.05
X163.1Y-60.05
X163.1Y-88.95
T0
M30
