<?xml version="1.0" standalone="no"?>
 <!DOCTYPE svg PUBLIC "-//W3C//DTD SVG 1.1//EN" 
 "http://www.w3.org/Graphics/SVG/1.1/DTD/svg11.dtd"> 
<svg xmlns="http://www.w3.org/2000/svg" version="1.1" 
    width="29.7002cm" height="21.0007cm" viewBox="0 0 116930 82680 ">
<title>SVG Picture created as probes-F_SilkS.svg date 2012/12/30 22:52:10 </title>
  <desc>Picture generated by PCBNEW </desc>
<g style="fill:#000000; fill-opacity:1;stroke:#000000; stroke-opacity:1;
stroke-linecap:round; stroke-linejoin:round; "
 transform="translate(0 0) scale(1 1)">
</g>
<g style="fill:#000000; fill-opacity:0.0; 
stroke:#000000; stroke-width:0.0787402; stroke-opacity:1; 
stroke-linecap:round; stroke-linejoin:round;">
<path d="M4000 4000
L112930 4000
L112930 78680
L4000 78680
L4000 4000
" />
<path d="M4700 4700
L112230 4700
L112230 77980
L4700 77980
L4700 4700
" />
<path d="M25780 4000
L25780 4700
" />
<path d="M15032 4552
L14747 4552
" />
<path d="M14890 4552
L14890 4052
L14842 4123
L14794 4171
L14747 4195
" />
<path d="M25780 78680
L25780 77980
" />
<path d="M15032 78532
L14747 78532
" />
<path d="M14890 78532
L14890 78032
L14842 78103
L14794 78151
L14747 78175
" />
<path d="M47560 4000
L47560 4700
" />
<path d="M36527 4100
L36550 4076
L36598 4052
L36717 4052
L36765 4076
L36789 4100
L36812 4147
L36812 4195
L36789 4266
L36503 4552
L36812 4552
" />
<path d="M47560 78680
L47560 77980
" />
<path d="M36527 78080
L36550 78056
L36598 78032
L36717 78032
L36765 78056
L36789 78080
L36812 78127
L36812 78175
L36789 78246
L36503 78532
L36812 78532
" />
<path d="M69340 4000
L69340 4700
" />
<path d="M58283 4052
L58592 4052
L58426 4242
L58497 4242
L58545 4266
L58569 4290
L58592 4338
L58592 4457
L58569 4504
L58545 4528
L58497 4552
L58354 4552
L58307 4528
L58283 4504
" />
<path d="M69340 78680
L69340 77980
" />
<path d="M58283 78032
L58592 78032
L58426 78222
L58497 78222
L58545 78246
L58569 78270
L58592 78318
L58592 78437
L58569 78484
L58545 78508
L58497 78532
L58354 78532
L58307 78508
L58283 78484
" />
<path d="M91120 4000
L91120 4700
" />
<path d="M80325 4219
L80325 4552
" />
<path d="M80206 4028
L80087 4385
L80396 4385
" />
<path d="M91120 78680
L91120 77980
" />
<path d="M80325 78199
L80325 78532
" />
<path d="M80206 78008
L80087 78365
L80396 78365
" />
<path d="M102129 4052
L101890 4052
L101867 4290
L101890 4266
L101938 4242
L102057 4242
L102105 4266
L102129 4290
L102152 4338
L102152 4457
L102129 4504
L102105 4528
L102057 4552
L101938 4552
L101890 4528
L101867 4504
" />
<path d="M102129 78032
L101890 78032
L101867 78270
L101890 78246
L101938 78222
L102057 78222
L102105 78246
L102129 78270
L102152 78318
L102152 78437
L102129 78484
L102105 78508
L102057 78532
L101938 78532
L101890 78508
L101867 78484
" />
<path d="M4000 28890
L4700 28890
" />
<path d="M4230 16509
L4469 16509
" />
<path d="M4183 16652
L4350 16152
L4516 16652
" />
<path d="M112930 28890
L112230 28890
" />
<path d="M112460 16509
L112699 16509
" />
<path d="M112413 16652
L112580 16152
L112746 16652
" />
<path d="M4000 53780
L4700 53780
" />
<path d="M4385 41280
L4457 41304
L4480 41328
L4504 41375
L4504 41447
L4480 41494
L4457 41518
L4409 41542
L4219 41542
L4219 41042
L4385 41042
L4433 41066
L4457 41090
L4480 41137
L4480 41185
L4457 41232
L4433 41256
L4385 41280
L4219 41280
" />
<path d="M112930 53780
L112230 53780
" />
<path d="M112615 41280
L112687 41304
L112710 41328
L112734 41375
L112734 41447
L112710 41494
L112687 41518
L112639 41542
L112449 41542
L112449 41042
L112615 41042
L112663 41066
L112687 41090
L112710 41137
L112710 41185
L112687 41232
L112663 41256
L112615 41280
L112449 41280
" />
<path d="M4504 66384
L4480 66408
L4409 66432
L4361 66432
L4290 66408
L4242 66360
L4219 66313
L4195 66218
L4195 66146
L4219 66051
L4242 66003
L4290 65956
L4361 65932
L4409 65932
L4480 65956
L4504 65980
" />
<path d="M112734 66384
L112710 66408
L112639 66432
L112591 66432
L112520 66408
L112472 66360
L112449 66313
L112425 66218
L112425 66146
L112449 66051
L112472 66003
L112520 65956
L112591 65932
L112639 65932
L112710 65956
L112734 65980
" />
<path d="M79380 76422
L79455 75822
L79597 75822
L79680 75851
L79730 75908
L79751 75965
L79765 76080
L79755 76165
L79712 76280
L79676 76337
L79612 76394
L79522 76422
L79380 76422
" />
<path d="M80237 76422
L80276 76108
L80255 76051
L80201 76022
L80087 76022
L80026 76051
" />
<path d="M80240 76394
L80180 76422
L80037 76422
L79983 76394
L79962 76337
L79969 76280
L80005 76222
L80065 76194
L80208 76194
L80269 76165
" />
<path d="M80487 76022
L80715 76022
" />
<path d="M80597 75822
L80533 76337
L80555 76394
L80608 76422
L80665 76422
" />
<path d="M81097 76394
L81037 76422
L80922 76422
L80869 76394
L80847 76337
L80876 76108
L80912 76051
L80972 76022
L81087 76022
L81140 76051
L81162 76108
L81155 76165
L80862 76222
" />
<path d="M81387 76365
L81412 76394
L81380 76422
L81355 76394
L81387 76365
L81380 76422
" />
<path d="M81426 76051
L81451 76080
L81419 76108
L81394 76080
L81426 76051
L81419 76108
" />
<path d="M82140 75822
L82512 75822
L82283 76051
L82369 76051
L82422 76080
L82447 76108
L82469 76165
L82451 76308
L82415 76365
L82383 76394
L82322 76422
L82151 76422
L82097 76394
L82072 76365
" />
<path d="M82883 75822
L82940 75822
L82994 75851
L83019 75880
L83040 75937
L83055 76051
L83037 76194
L82994 76308
L82958 76365
L82926 76394
L82865 76422
L82808 76422
L82755 76394
L82730 76365
L82708 76308
L82694 76194
L82712 76051
L82755 75937
L82790 75880
L82822 75851
L82883 75822
" />
<path d="M83980 76422
L84055 75822
" />
<path d="M83983 76394
L83922 76422
L83808 76422
L83755 76394
L83730 76365
L83708 76308
L83730 76137
L83765 76080
L83797 76051
L83858 76022
L83972 76022
L84026 76051
" />
<path d="M84497 76394
L84437 76422
L84322 76422
L84269 76394
L84247 76337
L84276 76108
L84312 76051
L84372 76022
L84487 76022
L84540 76051
L84562 76108
L84555 76165
L84262 76222
" />
<path d="M85040 76394
L84980 76422
L84865 76422
L84812 76394
L84787 76365
L84765 76308
L84787 76137
L84822 76080
L84855 76051
L84915 76022
L85030 76022
L85083 76051
" />
<path d="M85790 75880
L85822 75851
L85883 75822
L86026 75822
L86080 75851
L86105 75880
L86126 75937
L86119 75994
L86080 76080
L85694 76422
L86065 76422
" />
<path d="M86512 75822
L86569 75822
L86622 75851
L86647 75880
L86669 75937
L86683 76051
L86665 76194
L86622 76308
L86587 76365
L86555 76394
L86494 76422
L86437 76422
L86383 76394
L86358 76365
L86337 76308
L86322 76194
L86340 76051
L86383 75937
L86419 75880
L86451 75851
L86512 75822
" />
<path d="M87208 76422
L86865 76422
" />
<path d="M87037 76422
L87112 75822
L87044 75908
L86980 75965
L86919 75994
" />
<path d="M87505 75880
L87537 75851
L87597 75822
L87740 75822
L87794 75851
L87819 75880
L87840 75937
L87833 75994
L87794 76080
L87408 76422
L87780 76422
" />
<path d="M70972 77622
L70972 77022
" />
<path d="M71315 77622
L71058 77280
" />
<path d="M71315 77022
L70972 77365
" />
<path d="M71572 77622
L71572 77222
" />
<path d="M71572 77022
L71544 77051
L71572 77080
L71601 77051
L71572 77022
L71572 77080
" />
<path d="M72201 77565
L72172 77594
L72087 77622
L72030 77622
L71944 77594
L71887 77537
L71858 77480
L71830 77365
L71830 77280
L71858 77165
L71887 77108
L71944 77051
L72030 77022
L72087 77022
L72172 77051
L72201 77080
" />
<path d="M72715 77622
L72715 77308
L72687 77251
L72630 77222
L72515 77222
L72458 77251
" />
<path d="M72715 77594
L72658 77622
L72515 77622
L72458 77594
L72430 77537
L72430 77480
L72458 77422
L72515 77394
L72658 77394
L72715 77365
" />
<path d="M73258 77622
L73258 77022
" />
<path d="M73258 77594
L73201 77622
L73087 77622
L73030 77594
L73001 77565
L72972 77508
L72972 77337
L73001 77280
L73030 77251
L73087 77222
L73201 77222
L73258 77251
" />
<path d="M74001 77308
L74201 77308
" />
<path d="M74287 77622
L74001 77622
L74001 77022
L74287 77022
" />
<path d="M74544 77565
L74572 77594
L74544 77622
L74515 77594
L74544 77565
L74544 77622
" />
<path d="M74829 77622
L74829 77022
L74972 77022
L75058 77051
L75115 77108
L75144 77165
L75172 77280
L75172 77365
L75144 77480
L75115 77537
L75058 77594
L74972 77622
L74829 77622
" />
<path d="M75429 77565
L75458 77594
L75429 77622
L75401 77594
L75429 77565
L75429 77622
" />
<path d="M75687 77451
L75972 77451
" />
<path d="M75629 77622
L75829 77022
L76029 77622
" />
<path d="M76229 77565
L76258 77594
L76229 77622
L76201 77594
L76229 77565
L76229 77622
" />
<path d="M104522 76422
L104358 76137
" />
<path d="M104180 76422
L104255 75822
L104483 75822
L104537 75851
L104562 75880
L104583 75937
L104572 76022
L104537 76080
L104505 76108
L104444 76137
L104215 76137
" />
<path d="M105012 76394
L104951 76422
L104837 76422
L104783 76394
L104762 76337
L104790 76108
L104826 76051
L104887 76022
L105001 76022
L105055 76051
L105076 76108
L105069 76165
L104776 76222
" />
<path d="M105287 76022
L105380 76422
L105572 76022
" />
<path d="M105758 76365
L105783 76394
L105751 76422
L105726 76394
L105758 76365
L105751 76422
" />
<path d="M105797 76051
L105822 76080
L105790 76108
L105765 76080
L105797 76051
L105790 76108
" />
<path d="M106808 76422
L106465 76422
" />
<path d="M106637 76422
L106712 75822
L106644 75908
L106580 75965
L106519 75994
" />
<path d="M107072 76365
L107097 76394
L107065 76422
L107040 76394
L107072 76365
L107065 76422
" />
<path d="M107540 75822
L107597 75822
L107651 75851
L107676 75880
L107697 75937
L107712 76051
L107694 76194
L107651 76308
L107615 76365
L107583 76394
L107522 76422
L107465 76422
L107412 76394
L107387 76365
L107365 76308
L107351 76194
L107369 76051
L107412 75937
L107447 75880
L107480 75851
L107540 75822
" />
<path d="M70944 76394
L71030 76422
L71172 76422
L71230 76394
L71258 76365
L71287 76308
L71287 76251
L71258 76194
L71230 76165
L71172 76137
L71058 76108
L71001 76080
L70972 76051
L70944 75994
L70944 75937
L70972 75880
L71001 75851
L71058 75822
L71201 75822
L71287 75851
" />
<path d="M71544 76422
L71544 76022
" />
<path d="M71544 75822
L71515 75851
L71544 75880
L71572 75851
L71544 75822
L71544 75880
" />
<path d="M71772 76022
L72087 76022
L71772 76422
L72087 76422
" />
<path d="M72544 76394
L72487 76422
L72372 76422
L72315 76394
L72287 76337
L72287 76108
L72315 76051
L72372 76022
L72487 76022
L72544 76051
L72572 76108
L72572 76165
L72287 76222
" />
<path d="M72830 76365
L72858 76394
L72830 76422
L72801 76394
L72830 76365
L72830 76422
" />
<path d="M72830 76051
L72858 76080
L72830 76108
L72801 76080
L72830 76051
L72830 76108
" />
<path d="M73544 76251
L73830 76251
" />
<path d="M73487 76422
L73687 75822
L73887 76422
" />
<path d="M74344 76022
L74344 76422
" />
<path d="M74201 75794
L74058 76222
L74430 76222
" />
<path d="M104172 77622
L104172 77022
" />
<path d="M104715 77622
L104715 77022
" />
<path d="M104715 77594
L104658 77622
L104544 77622
L104487 77594
L104458 77565
L104430 77508
L104430 77337
L104458 77280
L104487 77251
L104544 77222
L104658 77222
L104715 77251
" />
<path d="M105001 77565
L105030 77594
L105001 77622
L104972 77594
L105001 77565
L105001 77622
" />
<path d="M105001 77251
L105030 77280
L105001 77308
L104972 77280
L105001 77251
L105001 77308
" />
<path d="M106058 77622
L105715 77622
" />
<path d="M105887 77622
L105887 77022
L105829 77108
L105772 77165
L105715 77194
" />
<path d="M106744 76994
L106230 77765
" />
<path d="M107258 77622
L106915 77622
" />
<path d="M107087 77622
L107087 77022
L107029 77108
L106972 77165
L106915 77194
" />
<path d="M70969 74622
L71312 74622
" />
<path d="M71065 75222
L71140 74622
" />
<path d="M71437 75222
L71487 74822
" />
<path d="M71512 74622
L71480 74651
L71505 74680
L71537 74651
L71512 74622
L71505 74680
" />
<path d="M71687 74822
L71915 74822
" />
<path d="M71797 74622
L71733 75137
L71755 75194
L71808 75222
L71865 75222
" />
<path d="M72151 75222
L72097 75194
L72076 75137
L72140 74622
" />
<path d="M72612 75194
L72551 75222
L72437 75222
L72383 75194
L72362 75137
L72390 74908
L72426 74851
L72487 74822
L72601 74822
L72655 74851
L72676 74908
L72669 74965
L72376 75022
" />
<path d="M72901 75165
L72926 75194
L72894 75222
L72869 75194
L72901 75165
L72894 75222
" />
<path d="M72940 74851
L72965 74880
L72933 74908
L72908 74880
L72940 74851
L72933 74908
" />
<path d="M73637 75222
L73712 74622
L73940 74622
L73994 74651
L74019 74680
L74040 74737
L74030 74822
L73994 74880
L73962 74908
L73901 74937
L73672 74937
" />
<path d="M74587 75165
L74555 75194
L74465 75222
L74408 75222
L74326 75194
L74276 75137
L74255 75080
L74240 74965
L74251 74880
L74294 74765
L74330 74708
L74394 74651
L74483 74622
L74540 74622
L74622 74651
L74647 74680
" />
<path d="M75380 75222
L75326 75194
L75301 75165
L75280 75108
L75301 74937
L75337 74880
L75369 74851
L75430 74822
L75515 74822
L75569 74851
L75594 74880
L75615 74937
L75594 75108
L75558 75165
L75526 75194
L75465 75222
L75380 75222
" />
<path d="M75812 75194
L75865 75222
L75980 75222
L76040 75194
L76076 75137
L76080 75108
L76058 75051
L76005 75022
L75919 75022
L75865 74994
L75844 74937
L75847 74908
L75883 74851
L75944 74822
L76030 74822
L76083 74851
" />
<path d="M76583 75194
L76522 75222
L76408 75222
L76355 75194
L76330 75165
L76308 75108
L76330 74937
L76365 74880
L76397 74851
L76458 74822
L76572 74822
L76626 74851
" />
<path d="M76837 75222
L76887 74822
" />
<path d="M76912 74622
L76880 74651
L76905 74680
L76937 74651
L76912 74622
L76905 74680
" />
<path d="M77208 75222
L77155 75194
L77133 75137
L77197 74622
" />
<path d="M77522 75222
L77469 75194
L77447 75137
L77512 74622
" />
<path d="M77837 75222
L77783 75194
L77758 75165
L77737 75108
L77758 74937
L77794 74880
L77826 74851
L77887 74822
L77972 74822
L78026 74851
L78051 74880
L78072 74937
L78051 75108
L78015 75165
L77983 75194
L77922 75222
L77837 75222
" />
<path d="M78269 75194
L78322 75222
L78437 75222
L78497 75194
L78533 75137
L78537 75108
L78515 75051
L78462 75022
L78376 75022
L78322 74994
L78301 74937
L78305 74908
L78340 74851
L78401 74822
L78487 74822
L78540 74851
" />
<path d="M79040 75194
L78980 75222
L78865 75222
L78812 75194
L78787 75165
L78765 75108
L78787 74937
L78822 74880
L78855 74851
L78915 74822
L79030 74822
L79083 74851
" />
<path d="M79380 75222
L79326 75194
L79301 75165
L79280 75108
L79301 74937
L79337 74880
L79369 74851
L79430 74822
L79515 74822
L79569 74851
L79594 74880
L79615 74937
L79594 75108
L79558 75165
L79526 75194
L79465 75222
L79380 75222
" />
<path d="M79887 74822
L79812 75422
" />
<path d="M79883 74851
L79944 74822
L80058 74822
L80112 74851
L80137 74880
L80158 74937
L80137 75108
L80101 75165
L80069 75194
L80008 75222
L79894 75222
L79840 75194
" />
<path d="M80612 75194
L80551 75222
L80437 75222
L80383 75194
L80362 75137
L80390 74908
L80426 74851
L80487 74822
L80601 74822
L80655 74851
L80676 74908
L80669 74965
L80376 75022
" />
<path d="M81401 74822
L81326 75422
" />
<path d="M81397 74851
L81458 74822
L81572 74822
L81626 74851
L81651 74880
L81672 74937
L81651 75108
L81615 75165
L81583 75194
L81522 75222
L81408 75222
L81355 75194
" />
<path d="M81894 75222
L81944 74822
" />
<path d="M81930 74937
L81965 74880
L81997 74851
L82058 74822
L82115 74822
" />
<path d="M82351 75222
L82297 75194
L82272 75165
L82251 75108
L82272 74937
L82308 74880
L82340 74851
L82401 74822
L82487 74822
L82540 74851
L82565 74880
L82587 74937
L82565 75108
L82530 75165
L82497 75194
L82437 75222
L82351 75222
" />
<path d="M82808 75222
L82883 74622
" />
<path d="M82855 74851
L82915 74822
L83030 74822
L83083 74851
L83108 74880
L83130 74937
L83108 75108
L83072 75165
L83040 75194
L82980 75222
L82865 75222
L82812 75194
" />
<path d="M83583 75194
L83522 75222
L83408 75222
L83355 75194
L83333 75137
L83362 74908
L83397 74851
L83458 74822
L83572 74822
L83626 74851
L83647 74908
L83640 74965
L83347 75022
" />
<path d="M83840 75194
L83894 75222
L84008 75222
L84069 75194
L84105 75137
L84108 75108
L84087 75051
L84033 75022
L83947 75022
L83894 74994
L83872 74937
L83876 74908
L83912 74851
L83972 74822
L84058 74822
L84112 74851
" />
<path d="M71172 72508
L70972 72508
" />
<path d="M70972 72822
L70972 72222
L71258 72222
" />
<path d="M71487 72822
L71487 72422
" />
<path d="M71487 72222
L71458 72251
L71487 72280
L71515 72251
L71487 72222
L71487 72280
" />
<path d="M71858 72822
L71801 72794
L71772 72737
L71772 72222
" />
<path d="M72315 72794
L72258 72822
L72144 72822
L72087 72794
L72058 72737
L72058 72508
L72087 72451
L72144 72422
L72258 72422
L72315 72451
L72344 72508
L72344 72565
L72058 72622
" />
<path d="M72601 72765
L72630 72794
L72601 72822
L72572 72794
L72601 72765
L72601 72822
" />
<path d="M72601 72451
L72630 72480
L72601 72508
L72572 72480
L72601 72451
L72601 72508
" />
<path d="M73344 72422
L73344 73022
" />
<path d="M73344 72451
L73401 72422
L73515 72422
L73572 72451
L73601 72480
L73630 72537
L73630 72708
L73601 72765
L73572 72794
L73515 72822
L73401 72822
L73344 72794
" />
<path d="M73887 72822
L73887 72422
" />
<path d="M73887 72537
L73915 72480
L73944 72451
L74001 72422
L74058 72422
" />
<path d="M74344 72822
L74287 72794
L74258 72765
L74230 72708
L74230 72537
L74258 72480
L74287 72451
L74344 72422
L74430 72422
L74487 72451
L74515 72480
L74544 72537
L74544 72708
L74515 72765
L74487 72794
L74430 72822
L74344 72822
" />
<path d="M74801 72822
L74801 72222
" />
<path d="M74801 72451
L74858 72422
L74972 72422
L75030 72451
L75058 72480
L75087 72537
L75087 72708
L75058 72765
L75030 72794
L74972 72822
L74858 72822
L74801 72794
" />
<path d="M75572 72794
L75515 72822
L75401 72822
L75344 72794
L75315 72737
L75315 72508
L75344 72451
L75401 72422
L75515 72422
L75572 72451
L75601 72508
L75601 72565
L75315 72622
" />
<path d="M75830 72794
L75887 72822
L76001 72822
L76058 72794
L76087 72737
L76087 72708
L76058 72651
L76001 72622
L75915 72622
L75858 72594
L75830 72537
L75830 72508
L75858 72451
L75915 72422
L76001 72422
L76058 72451
" />
<path d="M76344 72765
L76372 72794
L76344 72822
L76315 72794
L76344 72765
L76344 72822
" />
<path d="M76630 72822
L76630 72222
" />
<path d="M76630 72451
L76687 72422
L76801 72422
L76858 72451
L76887 72480
L76915 72537
L76915 72708
L76887 72765
L76858 72794
L76801 72822
L76687 72822
L76630 72794
" />
<path d="M77172 72822
L77172 72422
" />
<path d="M77172 72537
L77201 72480
L77230 72451
L77287 72422
L77344 72422
" />
<path d="M77801 72822
L77801 72222
" />
<path d="M77801 72794
L77744 72822
L77630 72822
L77572 72794
L77544 72765
L77515 72708
L77515 72537
L77544 72480
L77572 72451
L77630 72422
L77744 72422
L77801 72451
" />
<path d="M70944 73994
L71030 74022
L71172 74022
L71230 73994
L71258 73965
L71287 73908
L71287 73851
L71258 73794
L71230 73765
L71172 73737
L71058 73708
L71001 73680
L70972 73651
L70944 73594
L70944 73537
L70972 73480
L71001 73451
L71058 73422
L71201 73422
L71287 73451
" />
<path d="M71544 74022
L71544 73422
" />
<path d="M71801 74022
L71801 73708
L71772 73651
L71715 73622
L71630 73622
L71572 73651
L71544 73680
" />
<path d="M72315 73994
L72258 74022
L72144 74022
L72087 73994
L72058 73937
L72058 73708
L72087 73651
L72144 73622
L72258 73622
L72315 73651
L72344 73708
L72344 73765
L72058 73822
" />
<path d="M72830 73994
L72772 74022
L72658 74022
L72601 73994
L72572 73937
L72572 73708
L72601 73651
L72658 73622
L72772 73622
L72830 73651
L72858 73708
L72858 73765
L72572 73822
" />
<path d="M73030 73622
L73258 73622
" />
<path d="M73115 73422
L73115 73937
L73144 73994
L73201 74022
L73258 74022
" />
<path d="M73458 73965
L73487 73994
L73458 74022
L73430 73994
L73458 73965
L73458 74022
" />
<path d="M73458 73651
L73487 73680
L73458 73708
L73430 73680
L73458 73651
L73458 73708
" />
<path d="M70230 71980
L70230 77980
" />
<path d="M70230 71980
L112230 71980
" />
<path d="M70230 71980
L112230 71980
" />
<path d="M70230 74380
L112230 74380
" />
<path d="M103430 75580
L103430 77980
" />
<path d="M70230 76780
L112230 76780
" />
<path d="M70230 75580
L112230 75580
" />
<path d="M76830 75580
L76830 76780
" />
</g>
<g style="fill:#000000; fill-opacity:0.0; 
stroke:#000000; stroke-width:120; stroke-opacity:1; 
stroke-linecap:round; stroke-linejoin:round;">
<path d="M68307 19685
L68307 38976
" />
<path d="M24409 19685
L68307 19685
" />
<path d="M24409 20078
L24409 19685
" />
<path d="M24409 20669
L24409 20078
" />
<path d="M24409 38976
L24409 20669
" />
<path d="M68307 38976
L24409 38976
" />
<path d="M61271 18642
L61385 18642
L61442 18671
L61500 18728
L61528 18842
L61528 19042
L61500 19157
L61442 19214
L61385 19242
L61271 19242
L61214 19214
L61157 19157
L61128 19042
L61128 18842
L61157 18728
L61214 18671
L61271 18642
" />
<path d="M61785 18642
L61785 19128
L61814 19185
L61842 19214
L61900 19242
L62014 19242
L62071 19214
L62100 19185
L62128 19128
L62128 18642
" />
<path d="M62328 18642
L62671 18642
" />
<path d="M62499 19242
L62499 18642
" />
<path d="M62871 19242
L62871 18642
L63100 18642
L63157 18671
L63185 18700
L63214 18757
L63214 18842
L63185 18900
L63157 18928
L63100 18957
L62871 18957
" />
<path d="M63471 18642
L63471 19128
L63500 19185
L63528 19214
L63585 19242
L63700 19242
L63757 19214
L63785 19185
L63814 19128
L63814 18642
" />
<path d="M64014 18642
L64357 18642
" />
<path d="M64185 19242
L64185 18642
" />
<path d="M64528 19214
L64614 19242
L64757 19242
L64814 19214
L64842 19185
L64871 19128
L64871 19071
L64842 19014
L64814 18985
L64757 18957
L64642 18928
L64585 18900
L64557 18871
L64528 18814
L64528 18757
L64557 18700
L64585 18671
L64642 18642
L64785 18642
L64871 18671
" />
<path d="M62139 40006
L62139 39406
" />
<path d="M62425 40006
L62425 39406
L62768 40006
L62768 39406
" />
<path d="M63054 40006
L63054 39406
L63282 39406
L63339 39435
L63368 39463
L63396 39520
L63396 39606
L63368 39663
L63339 39692
L63282 39720
L63054 39720
" />
<path d="M63654 39406
L63654 39892
L63682 39949
L63711 39978
L63768 40006
L63882 40006
L63939 39978
L63968 39949
L63996 39892
L63996 39406
" />
<path d="M64196 39406
L64539 39406
" />
<path d="M64368 40006
L64368 39406
" />
<path d="M64711 39978
L64796 40006
L64939 40006
L64996 39978
L65025 39949
L65054 39892
L65054 39835
L65025 39778
L64996 39749
L64939 39720
L64825 39692
L64768 39663
L64739 39635
L64711 39578
L64711 39520
L64739 39463
L64768 39435
L64825 39406
L64968 39406
L65054 39435
" />
</g>
<g style="fill:#000000; fill-opacity:0.0; 
stroke:#000000; stroke-width:150; stroke-opacity:1; 
stroke-linecap:round; stroke-linejoin:round;">
<path d="M65582 28952
L61582 28952
" />
<path d="M61582 28952
L61582 26952
" />
<path d="M61582 26952
L65582 26952
" />
<path d="M64982 27952
L64982 28752
" />
<circle cx="64982.7" cy="28352.8" r="400" /> 
<path d="M65582 28952
L65582 26952
" />
<path d="M57448 26952
L61448 26952
" />
<path d="M61448 26952
L61448 28952
" />
<path d="M61448 28952
L57448 28952
" />
<path d="M58048 27952
L58048 27152
" />
<circle cx="58048.8" cy="27552.8" r="400" /> 
<path d="M57448 26952
L57448 28952
" />
</g>
<g style="fill:#000000; fill-opacity:0.0; 
stroke:#000000; stroke-width:120; stroke-opacity:1; 
stroke-linecap:round; stroke-linejoin:round;">
<path d="M43720 29724
L43720 20724
" />
<path d="M43720 20724
L28720 20724
" />
<path d="M28720 20724
L28720 38724
" />
<path d="M28720 38724
L43720 38724
" />
<path d="M43720 38724
L43720 29724
" />
<path d="M45562 27181
L47062 25681
" />
<path d="M47062 25681
L47062 25181
" />
<path d="M47062 25181
L46562 24681
" />
<path d="M46562 24681
L45562 24681
" />
<path d="M45562 24681
L44562 25681
" />
<path d="M44562 25681
L44562 26681
" />
<path d="M44562 26681
L45062 27181
" />
<path d="M45062 27181
L45562 27181
" />
<path d="M44669 33948
L46169 35448
" />
<path d="M46169 35448
L46669 35448
" />
<path d="M46669 35448
L47169 34948
" />
<path d="M47169 34948
L47169 33948
" />
<path d="M47169 33948
L46169 32948
" />
<path d="M46169 32948
L45169 32948
" />
<path d="M45169 32948
L44669 33448
" />
<path d="M44669 33448
L44669 33948
" />
</g>
<g style="fill:#000000; fill-opacity:0.0; 
stroke:#000000; stroke-width:100; stroke-opacity:1; 
stroke-linecap:round; stroke-linejoin:round;">
<circle cx="49212.6" cy="31102.4" r="50" /> 
<circle cx="49212.6" cy="31102.4" r="600" /> 
<circle cx="49606.3" cy="26574.8" r="50" /> 
<circle cx="49606.3" cy="26574.8" r="600" /> 
<circle cx="47637.8" cy="37204.7" r="50" /> 
<circle cx="47637.8" cy="37204.7" r="600" /> 
</g>
<g style="fill:#000000; fill-opacity:0.0; 
stroke:#000000; stroke-width:120; stroke-opacity:1; 
stroke-linecap:round; stroke-linejoin:round;">
<path d="M59204 39023
L65204 39023
" />
<path d="M59204 33523
L65204 33523
" />
<path d="M59204 38023
L65204 38023
" />
<path d="M59204 33523
L59204 39023
" />
<path d="M65204 33523
L65204 39023
" />
<path d="M53102 39023
L59102 39023
" />
<path d="M53102 33523
L59102 33523
" />
<path d="M53102 38023
L59102 38023
" />
<path d="M53102 33523
L53102 39023
" />
<path d="M59102 33523
L59102 39023
" />
<path d="M65204 19637
L59204 19637
" />
<path d="M65204 25137
L59204 25137
" />
<path d="M65204 20637
L59204 20637
" />
<path d="M65204 25137
L65204 19637
" />
<path d="M59204 25137
L59204 19637
" />
<path d="M59102 19637
L53102 19637
" />
<path d="M59102 25137
L53102 25137
" />
<path d="M59102 20637
L53102 20637
" />
<path d="M59102 25137
L59102 19637
" />
<path d="M53102 25137
L53102 19637
" />
</g>
<g style="fill:#000000; fill-opacity:0.0; 
stroke:#000000; stroke-width:100; stroke-opacity:1; 
stroke-linecap:round; stroke-linejoin:round;">
<path d="M50787 34539
L50787 35539
" />
<circle cx="50787.4" cy="34539.4" r="500" /> 
<path d="M67519 34539
L67519 35539
" />
<circle cx="67519.7" cy="34539.4" r="500" /> 
</g>
<g style="fill:#000000; fill-opacity:0.0; 
stroke:#000000; stroke-width:120; stroke-opacity:1; 
stroke-linecap:round; stroke-linejoin:round;">
<path d="M57980 32177
L57980 33177
" />
<path d="M58980 33177
L55980 33177
" />
<path d="M55980 33177
L55980 32177
" />
<path d="M55980 32177
L58980 32177
" />
<path d="M58980 32177
L58980 33177
" />
<path d="M61507 33374
L61507 32374
" />
<path d="M60507 32374
L63507 32374
" />
<path d="M63507 32374
L63507 33374
" />
<path d="M63507 33374
L60507 33374
" />
<path d="M60507 33374
L60507 32374
" />
</g>
<g style="fill:#000000; fill-opacity:0.0; 
stroke:#000000; stroke-width:100; stroke-opacity:1; 
stroke-linecap:round; stroke-linejoin:round;">
<path d="M50440 19656
L50440 20056
" />
<path d="M50440 20056
L44440 20056
" />
<path d="M44440 20056
L44440 19656
" />
<path d="M44440 19656
L50440 19656
" />
<path d="M50440 23256
L50440 22956
" />
<path d="M50440 23256
L44440 23256
" />
<path d="M44440 23256
L44440 22956
" />
<path d="M50440 19956
L50440 22956
" />
<path d="M44440 19956
L44440 22956
" />
<path d="M27681 36842
L27981 36842
" />
<path d="M27981 36842
L27981 32842
" />
<path d="M27981 32842
L27681 32842
" />
<path d="M24381 36842
L24381 32842
" />
<path d="M24381 32842
L24781 32842
" />
<path d="M24781 32842
L24781 36842
" />
<path d="M24781 36842
L24381 36842
" />
<path d="M24681 36842
L27681 36842
" />
<path d="M27681 32842
L24681 32842
" />
</g>
<g style="fill:#000000; fill-opacity:0.0; 
stroke:#000000; stroke-width:120; stroke-opacity:1; 
stroke-linecap:round; stroke-linejoin:round;">
<path d="M47374 24819
L47374 23969
" />
<path d="M47304 24059
L47294 24069
" />
<path d="M47404 23939
L47304 24059
" />
<path d="M47564 23829
L47404 23939
" />
<path d="M47734 23779
L47564 23829
" />
<path d="M47974 23779
L47734 23779
" />
<path d="M48154 23849
L47974 23779
" />
<path d="M48324 23999
L48154 23849
" />
<path d="M48434 24199
L48324 23999
" />
<path d="M48464 24399
L48434 24199
" />
<path d="M48464 24409
L48434 24609
" />
<path d="M48434 24609
L48324 24809
" />
<path d="M48324 24809
L48154 24959
" />
<path d="M48154 24959
L47974 25029
" />
<path d="M47974 25029
L47734 25029
" />
<path d="M47734 25029
L47564 24979
" />
<path d="M47564 24979
L47404 24869
" />
<path d="M47404 24869
L47304 24749
" />
<path d="M47304 24749
L47294 24739
" />
<path d="M47294 24739
L47294 24089
" />
<path d="M46129 36401
L46129 37251
" />
<path d="M46199 37161
L46209 37151
" />
<path d="M46099 37281
L46199 37161
" />
<path d="M45939 37391
L46099 37281
" />
<path d="M45769 37441
L45939 37391
" />
<path d="M45529 37441
L45769 37441
" />
<path d="M45349 37371
L45529 37441
" />
<path d="M45179 37221
L45349 37371
" />
<path d="M45069 37021
L45179 37221
" />
<path d="M45039 36821
L45069 37021
" />
<path d="M45039 36811
L45069 36611
" />
<path d="M45069 36611
L45179 36411
" />
<path d="M45179 36411
L45349 36261
" />
<path d="M45349 36261
L45529 36191
" />
<path d="M45529 36191
L45769 36191
" />
<path d="M45769 36191
L45939 36241
" />
<path d="M45939 36241
L46099 36351
" />
<path d="M46099 36351
L46199 36471
" />
<path d="M46199 36471
L46209 36481
" />
<path d="M46209 36481
L46209 37131
" />
</g>
<g style="fill:#000000; fill-opacity:0.0; 
stroke:#000000; stroke-width:150; stroke-opacity:1; 
stroke-linecap:round; stroke-linejoin:round;">
<path d="M25181 25162
L25181 29562
" />
<path d="M27181 29562
L27181 25162
" />
<path d="M28081 29562
L24281 29562
" />
<path d="M24281 25162
L28081 25162
" />
<path d="M24281 22462
L28081 22462
" />
<path d="M28081 22462
L28081 32262
" />
<path d="M28081 32262
L24281 32262
" />
<path d="M24281 32262
L24281 22462
" />
</g>
<g style="fill:#000000; fill-opacity:0.0; 
stroke:#000000; stroke-width:100; stroke-opacity:1; 
stroke-linecap:round; stroke-linejoin:round;">
<path d="M54755 28452
L54255 28452
" />
<path d="M54255 28452
L54255 27452
" />
<path d="M54255 27452
L54755 27452
" />
<path d="M54755 28952
L50755 28952
" />
<path d="M50755 28952
L50755 26952
" />
<path d="M50755 26952
L54755 26952
" />
<path d="M54755 26952
L54755 28952
" />
<circle cx="46456.7" cy="30118.1" r="1700.26" /> 
</g>
<g style="fill:#000000; fill-opacity:0.0; 
stroke:#000000; stroke-width:120; stroke-opacity:1; 
stroke-linecap:round; stroke-linejoin:round;">
<path d="M61225 28309
L60939 28509
" />
<path d="M61225 28652
L60625 28652
L60625 28424
L60654 28367
L60682 28338
L60739 28309
L60825 28309
L60882 28338
L60911 28367
L60939 28424
L60939 28652
" />
<path d="M60625 28138
L61225 27938
L60625 27738
" />
<path d="M61225 27224
L61225 27567
" />
<path d="M61225 27395
L60625 27395
L60711 27452
L60768 27509
L60796 27567
" />
<path d="M66425 28652
L66425 28995
" />
<path d="M66425 28824
L65825 28824
L65911 28881
L65968 28938
L65996 28995
" />
<path d="M65825 28281
L65825 28224
L65854 28167
L65882 28138
L65939 28109
L66054 28081
L66196 28081
L66311 28109
L66368 28138
L66396 28167
L66425 28224
L66425 28281
L66396 28338
L66368 28367
L66311 28395
L66196 28424
L66054 28424
L65939 28395
L65882 28367
L65854 28338
L65825 28281
" />
<path d="M65825 27709
L65825 27652
L65854 27595
L65882 27567
L65939 27538
L66054 27509
L66196 27509
L66311 27538
L66368 27567
L66396 27595
L66425 27652
L66425 27709
L66396 27767
L66368 27795
L66311 27824
L66196 27852
L66054 27852
L65939 27824
L65882 27795
L65854 27767
L65825 27709
" />
<path d="M66425 27252
L65825 27252
" />
<path d="M66425 26909
L66082 27167
" />
<path d="M65825 26909
L66168 27252
" />
<path d="M62291 28309
L62005 28509
" />
<path d="M62291 28652
L61691 28652
L61691 28424
L61720 28367
L61748 28338
L61805 28309
L61891 28309
L61948 28338
L61977 28367
L62005 28424
L62005 28652
" />
<path d="M61691 28138
L62291 27938
L61691 27738
" />
<path d="M61748 27567
L61720 27538
L61691 27481
L61691 27338
L61720 27281
L61748 27252
L61805 27224
L61863 27224
L61948 27252
L62291 27595
L62291 27224
" />
<path d="M57091 28652
L57091 28995
" />
<path d="M57091 28824
L56491 28824
L56577 28881
L56634 28938
L56663 28995
" />
<path d="M56491 28281
L56491 28224
L56520 28167
L56548 28138
L56605 28109
L56720 28081
L56863 28081
L56977 28109
L57034 28138
L57063 28167
L57091 28224
L57091 28281
L57063 28338
L57034 28367
L56977 28395
L56863 28424
L56720 28424
L56605 28395
L56548 28367
L56520 28338
L56491 28281
" />
<path d="M56491 27709
L56491 27652
L56520 27595
L56548 27567
L56605 27538
L56720 27509
L56863 27509
L56977 27538
L57034 27567
L57063 27595
L57091 27652
L57091 27709
L57063 27767
L57034 27795
L56977 27824
L56863 27852
L56720 27852
L56605 27824
L56548 27795
L56520 27767
L56491 27709
" />
<path d="M57091 27252
L56491 27252
" />
<path d="M57091 26909
L56748 27167
" />
<path d="M56491 26909
L56834 27252
" />
</g>
<g style="fill:#000000; fill-opacity:0.0; 
stroke:#000000; stroke-width:100; stroke-opacity:1; 
stroke-linecap:round; stroke-linejoin:round;">
<path d="M27672 38355
L27672 38069
" />
<path d="M28172 38212
L27672 38212
" />
<path d="M28172 37641
L28172 37926
" />
<path d="M28172 37783
L27672 37783
L27744 37831
L27791 37879
L27815 37926
" />
<path d="M35970 31950
L35946 31926
L35922 31879
L35922 31760
L35946 31712
L35970 31688
L36018 31664
L36065 31664
L36137 31688
L36422 31974
L36422 31664
" />
<path d="M35970 31474
L35946 31450
L35922 31402
L35922 31283
L35946 31236
L35970 31212
L36018 31188
L36065 31188
L36137 31212
L36422 31498
L36422 31188
" />
<path d="M35922 30879
L35922 30831
L35946 30783
L35970 30760
L36018 30736
L36113 30712
L36232 30712
L36327 30736
L36375 30760
L36399 30783
L36422 30831
L36422 30879
L36399 30926
L36375 30950
L36327 30974
L36232 30998
L36113 30998
L36018 30974
L35970 30950
L35946 30926
L35922 30879
" />
<path d="M35922 30569
L36422 30402
L35922 30236
" />
<path d="M35899 29712
L36541 30141
" />
<path d="M35970 29569
L35946 29545
L35922 29498
L35922 29379
L35946 29331
L35970 29307
L36018 29283
L36065 29283
L36137 29307
L36422 29593
L36422 29283
" />
<path d="M36422 29117
L36089 28855
" />
<path d="M36089 29117
L36422 28855
" />
<path d="M36422 28402
L36422 28688
" />
<path d="M36422 28545
L35922 28545
L35994 28593
L36041 28641
L36065 28688
" />
<path d="M35922 27950
L35922 28188
L36160 28212
L36137 28188
L36113 28141
L36113 28022
L36137 27974
L36160 27950
L36208 27926
L36327 27926
L36375 27950
L36399 27974
L36422 28022
L36422 28141
L36399 28188
L36375 28212
" />
<path d="M35922 27783
L36422 27617
L35922 27450
" />
</g>
<g style="fill:#000000; fill-opacity:0.0; 
stroke:#000000; stroke-width:80; stroke-opacity:1; 
stroke-linecap:round; stroke-linejoin:round;">
<path d="M45258 27443
L45258 27766
L45277 27804
L45296 27823
L45334 27843
L45410 27843
L45448 27823
L45467 27804
L45486 27766
L45486 27443
" />
<path d="M45658 27481
L45677 27462
L45715 27443
L45810 27443
L45848 27462
L45867 27481
L45886 27519
L45886 27557
L45867 27614
L45639 27843
L45886 27843
" />
<path d="M44696 23943
L44962 23943
L44791 24343
" />
<path d="M45134 24343
L45210 24343
L45248 24323
L45267 24304
L45305 24247
L45324 24171
L45324 24019
L45305 23981
L45286 23962
L45248 23943
L45172 23943
L45134 23962
L45115 23981
L45096 24019
L45096 24114
L45115 24152
L45134 24171
L45172 24190
L45248 24190
L45286 24171
L45305 24152
L45324 24114
" />
<path d="M45686 24343
L45496 24343
L45496 23943
" />
<path d="M45896 23943
L45934 23943
L45972 23962
L45991 23981
L46010 24019
L46029 24095
L46029 24190
L46010 24266
L45991 24304
L45972 24323
L45934 24343
L45896 24343
L45858 24323
L45839 24304
L45820 24266
L45801 24190
L45801 24095
L45820 24019
L45839 23981
L45858 23962
L45896 23943
" />
<path d="M46391 23943
L46201 23943
L46182 24133
L46201 24114
L46239 24095
L46334 24095
L46372 24114
L46391 24133
L46410 24171
L46410 24266
L46391 24304
L46372 24323
L46334 24343
L46239 24343
L46201 24323
L46182 24304
" />
<path d="M43931 34253
L44255 34253
L44293 34234
L44312 34215
L44331 34177
L44331 34101
L44312 34063
L44293 34044
L44255 34025
L43931 34025
" />
<path d="M44331 33625
L44331 33853
" />
<path d="M44331 33739
L43931 33739
L43988 33777
L44026 33815
L44045 33853
" />
<path d="M43802 35210
L44069 35210
L43897 35610
" />
<path d="M44278 35382
L44240 35363
L44221 35344
L44202 35305
L44202 35286
L44221 35248
L44240 35229
L44278 35210
L44355 35210
L44393 35229
L44412 35248
L44431 35286
L44431 35305
L44412 35344
L44393 35363
L44355 35382
L44278 35382
L44240 35401
L44221 35420
L44202 35458
L44202 35534
L44221 35572
L44240 35591
L44278 35610
L44355 35610
L44393 35591
L44412 35572
L44431 35534
L44431 35458
L44412 35420
L44393 35401
L44355 35382
" />
<path d="M44793 35610
L44602 35610
L44602 35210
" />
<path d="M45002 35210
L45040 35210
L45078 35229
L45097 35248
L45116 35286
L45135 35363
L45135 35458
L45116 35534
L45097 35572
L45078 35591
L45040 35610
L45002 35610
L44964 35591
L44945 35572
L44926 35534
L44907 35458
L44907 35363
L44926 35286
L44945 35248
L44964 35229
L45002 35210
" />
<path d="M45497 35210
L45307 35210
L45288 35401
L45307 35382
L45345 35363
L45440 35363
L45478 35382
L45497 35401
L45516 35439
L45516 35534
L45497 35572
L45478 35591
L45440 35610
L45345 35610
L45307 35591
L45288 35572
" />
</g>
<g style="fill:#000000; fill-opacity:0.0; 
stroke:#000000; stroke-width:120; stroke-opacity:1; 
stroke-linecap:round; stroke-linejoin:round;">
<path d="M48769 30145
L48769 29545
L48998 29545
L49055 29573
L49084 29602
L49112 29659
L49112 29745
L49084 29802
L49055 29830
L48998 29859
L48769 29859
" />
<path d="M49626 29745
L49626 30145
" />
<path d="M49484 29516
L49341 29945
L49712 29945
" />
<path d="M47941 32388
L47912 32416
L47826 32445
L47769 32445
L47684 32416
L47626 32359
L47598 32302
L47569 32188
L47569 32102
L47598 31988
L47626 31930
L47684 31873
L47769 31845
L47826 31845
L47912 31873
L47941 31902
" />
<path d="M48312 31845
L48426 31845
L48484 31873
L48541 31930
L48569 32045
L48569 32245
L48541 32359
L48484 32416
L48426 32445
L48312 32445
L48255 32416
L48198 32359
L48169 32245
L48169 32045
L48198 31930
L48255 31873
L48312 31845
" />
<path d="M48826 32445
L48826 31845
L49169 32445
L49169 31845
" />
<path d="M49455 32445
L49455 31845
L49798 32445
L49798 31845
" />
<path d="M49941 32502
L50398 32502
" />
<path d="M50855 32445
L50512 32445
" />
<path d="M50684 32445
L50684 31845
L50626 31930
L50569 31988
L50512 32016
" />
<path d="M49163 25617
L49163 25017
L49392 25017
L49449 25046
L49477 25074
L49506 25131
L49506 25217
L49477 25274
L49449 25303
L49392 25331
L49163 25331
" />
<path d="M49706 25017
L50077 25017
L49877 25246
L49963 25246
L50020 25274
L50049 25303
L50077 25360
L50077 25503
L50049 25560
L50020 25589
L49963 25617
L49792 25617
L49734 25589
L49706 25560
" />
<path d="M48334 27860
L48306 27889
L48220 27917
L48163 27917
L48077 27889
L48020 27831
L47992 27774
L47963 27660
L47963 27574
L47992 27460
L48020 27403
L48077 27346
L48163 27317
L48220 27317
L48306 27346
L48334 27374
" />
<path d="M48706 27317
L48820 27317
L48877 27346
L48934 27403
L48963 27517
L48963 27717
L48934 27831
L48877 27889
L48820 27917
L48706 27917
L48649 27889
L48592 27831
L48563 27717
L48563 27517
L48592 27403
L48649 27346
L48706 27317
" />
<path d="M49220 27917
L49220 27317
L49563 27917
L49563 27317
" />
<path d="M49849 27917
L49849 27317
L50192 27917
L50192 27317
" />
<path d="M50334 27974
L50792 27974
" />
<path d="M51249 27917
L50906 27917
" />
<path d="M51077 27917
L51077 27317
L51020 27403
L50963 27460
L50906 27489
" />
<path d="M47194 36247
L47194 35647
L47423 35647
L47480 35676
L47509 35704
L47537 35761
L47537 35847
L47509 35904
L47480 35933
L47423 35961
L47194 35961
" />
<path d="M47766 35704
L47794 35676
L47852 35647
L47994 35647
L48052 35676
L48080 35704
L48109 35761
L48109 35819
L48080 35904
L47737 36247
L48109 36247
" />
<path d="M46366 38490
L46337 38519
L46252 38547
L46194 38547
L46109 38519
L46052 38461
L46023 38404
L45994 38290
L45994 38204
L46023 38090
L46052 38033
L46109 37976
L46194 37947
L46252 37947
L46337 37976
L46366 38004
" />
<path d="M46737 37947
L46852 37947
L46909 37976
L46966 38033
L46994 38147
L46994 38347
L46966 38461
L46909 38519
L46852 38547
L46737 38547
L46680 38519
L46623 38461
L46594 38347
L46594 38147
L46623 38033
L46680 37976
L46737 37947
" />
<path d="M47252 38547
L47252 37947
L47594 38547
L47594 37947
" />
<path d="M47880 38547
L47880 37947
L48223 38547
L48223 37947
" />
<path d="M48366 38604
L48823 38604
" />
<path d="M49280 38547
L48937 38547
" />
<path d="M49109 38547
L49109 37947
L49052 38033
L48994 38090
L48937 38119
" />
</g>
<g style="fill:#000000; fill-opacity:0.0; 
stroke:#000000; stroke-width:100; stroke-opacity:1; 
stroke-linecap:round; stroke-linejoin:round;">
<path d="M61835 33226
L61835 32726
L62026 32726
L62073 32749
L62097 32773
L62121 32821
L62121 32892
L62097 32940
L62073 32964
L62026 32987
L61835 32987
" />
<path d="M62549 32726
L62454 32726
L62407 32749
L62383 32773
L62335 32845
L62311 32940
L62311 33130
L62335 33178
L62359 33202
L62407 33226
L62502 33226
L62549 33202
L62573 33178
L62597 33130
L62597 33011
L62573 32964
L62549 32940
L62502 32916
L62407 32916
L62359 32940
L62335 32964
L62311 33011
" />
<path d="M61204 39678
L61180 39702
L61109 39726
L61061 39726
L60990 39702
L60942 39654
L60919 39606
L60895 39511
L60895 39440
L60919 39345
L60942 39297
L60990 39249
L61061 39226
L61109 39226
L61180 39249
L61204 39273
" />
<path d="M61419 39726
L61419 39226
" />
<path d="M61419 39464
L61704 39464
" />
<path d="M61704 39726
L61704 39226
" />
<path d="M61942 39726
L61942 39226
" />
<path d="M62180 39726
L62180 39226
L62466 39726
L62466 39226
" />
<path d="M62990 39678
L62966 39702
L62895 39726
L62847 39726
L62776 39702
L62728 39654
L62704 39606
L62680 39511
L62680 39440
L62704 39345
L62728 39297
L62776 39249
L62847 39226
L62895 39226
L62966 39249
L62990 39273
" />
<path d="M63204 39726
L63204 39226
" />
<path d="M63204 39464
L63490 39464
" />
<path d="M63490 39726
L63490 39226
" />
<path d="M55733 33226
L55733 32726
L55923 32726
L55971 32749
L55995 32773
L56019 32821
L56019 32892
L55995 32940
L55971 32964
L55923 32987
L55733 32987
" />
<path d="M56471 32726
L56233 32726
L56209 32964
L56233 32940
L56280 32916
L56399 32916
L56447 32940
L56471 32964
L56495 33011
L56495 33130
L56471 33178
L56447 33202
L56399 33226
L56280 33226
L56233 33202
L56209 33178
" />
<path d="M55102 39678
L55078 39702
L55007 39726
L54959 39726
L54888 39702
L54840 39654
L54816 39606
L54792 39511
L54792 39440
L54816 39345
L54840 39297
L54888 39249
L54959 39226
L55007 39226
L55078 39249
L55102 39273
" />
<path d="M55316 39726
L55316 39226
" />
<path d="M55316 39464
L55602 39464
" />
<path d="M55602 39726
L55602 39226
" />
<path d="M55840 39726
L55840 39226
" />
<path d="M56078 39726
L56078 39226
L56364 39726
L56364 39226
" />
<path d="M56888 39678
L56864 39702
L56792 39726
L56745 39726
L56673 39702
L56626 39654
L56602 39606
L56578 39511
L56578 39440
L56602 39345
L56626 39297
L56673 39249
L56745 39226
L56792 39226
L56864 39249
L56888 39273
" />
<path d="M57102 39726
L57102 39226
" />
<path d="M57102 39464
L57388 39464
" />
<path d="M57388 39726
L57388 39226
" />
<path d="M61835 25840
L61835 25340
L62026 25340
L62073 25363
L62097 25387
L62121 25435
L62121 25506
L62097 25554
L62073 25578
L62026 25602
L61835 25602
" />
<path d="M62288 25340
L62621 25340
L62407 25840
" />
<path d="M61204 19292
L61180 19316
L61109 19340
L61061 19340
L60990 19316
L60942 19268
L60919 19221
L60895 19125
L60895 19054
L60919 18959
L60942 18911
L60990 18863
L61061 18840
L61109 18840
L61180 18863
L61204 18887
" />
<path d="M61419 19340
L61419 18840
" />
<path d="M61419 19078
L61704 19078
" />
<path d="M61704 19340
L61704 18840
" />
<path d="M61942 19340
L61942 18840
" />
<path d="M62180 19340
L62180 18840
L62466 19340
L62466 18840
" />
<path d="M62990 19292
L62966 19316
L62895 19340
L62847 19340
L62776 19316
L62728 19268
L62704 19221
L62680 19125
L62680 19054
L62704 18959
L62728 18911
L62776 18863
L62847 18840
L62895 18840
L62966 18863
L62990 18887
" />
<path d="M63204 19340
L63204 18840
" />
<path d="M63204 19078
L63490 19078
" />
<path d="M63490 19340
L63490 18840
" />
<path d="M55733 25840
L55733 25340
L55923 25340
L55971 25363
L55995 25387
L56019 25435
L56019 25506
L55995 25554
L55971 25578
L55923 25602
L55733 25602
" />
<path d="M56304 25554
L56257 25530
L56233 25506
L56209 25459
L56209 25435
L56233 25387
L56257 25363
L56304 25340
L56399 25340
L56447 25363
L56471 25387
L56495 25435
L56495 25459
L56471 25506
L56447 25530
L56399 25554
L56304 25554
L56257 25578
L56233 25602
L56209 25649
L56209 25744
L56233 25792
L56257 25816
L56304 25840
L56399 25840
L56447 25816
L56471 25792
L56495 25744
L56495 25649
L56471 25602
L56447 25578
L56399 25554
" />
<path d="M55102 19292
L55078 19316
L55007 19340
L54959 19340
L54888 19316
L54840 19268
L54816 19221
L54792 19125
L54792 19054
L54816 18959
L54840 18911
L54888 18863
L54959 18840
L55007 18840
L55078 18863
L55102 18887
" />
<path d="M55316 19340
L55316 18840
" />
<path d="M55316 19078
L55602 19078
" />
<path d="M55602 19340
L55602 18840
" />
<path d="M55840 19340
L55840 18840
" />
<path d="M56078 19340
L56078 18840
L56364 19340
L56364 18840
" />
<path d="M56888 19292
L56864 19316
L56792 19340
L56745 19340
L56673 19316
L56626 19268
L56602 19221
L56578 19125
L56578 19054
L56602 18959
L56626 18911
L56673 18863
L56745 18840
L56792 18840
L56864 18863
L56888 18887
" />
<path d="M57102 19340
L57102 18840
" />
<path d="M57102 19078
L57388 19078
" />
<path d="M57388 19340
L57388 18840
" />
</g>
<g style="fill:#000000; fill-opacity:0.0; 
stroke:#000000; stroke-width:120; stroke-opacity:1; 
stroke-linecap:round; stroke-linejoin:round;">
<path d="M50030 35139
L49744 35339
" />
<path d="M50030 35482
L49430 35482
L49430 35253
L49458 35196
L49487 35167
L49544 35139
L49630 35139
L49687 35167
L49715 35196
L49744 35253
L49744 35482
" />
<path d="M49430 34596
L49430 34882
L49715 34910
L49687 34882
L49658 34825
L49658 34682
L49687 34625
L49715 34596
L49773 34567
L49915 34567
L49973 34596
L50001 34625
L50030 34682
L50030 34825
L50001 34882
L49973 34910
" />
<path d="M51630 35510
L52030 35510
" />
<path d="M51401 35653
L51830 35796
L51830 35425
" />
<path d="M51430 35253
L51430 34853
L52030 35110
" />
<path d="M52030 34625
L51430 34625
" />
<path d="M52030 34282
L51687 34539
" />
<path d="M51430 34282
L51773 34625
" />
<path d="M66762 35139
L66476 35339
" />
<path d="M66762 35482
L66162 35482
L66162 35253
L66191 35196
L66219 35167
L66276 35139
L66362 35139
L66419 35167
L66448 35196
L66476 35253
L66476 35482
" />
<path d="M66162 34625
L66162 34739
L66191 34796
L66219 34825
L66305 34882
L66419 34910
L66648 34910
L66705 34882
L66733 34853
L66762 34796
L66762 34682
L66733 34625
L66705 34596
L66648 34567
L66505 34567
L66448 34596
L66419 34625
L66391 34682
L66391 34796
L66419 34853
L66448 34882
L66505 34910
" />
<path d="M68362 35510
L68762 35510
" />
<path d="M68133 35653
L68562 35796
L68562 35425
" />
<path d="M68162 35253
L68162 34853
L68762 35110
" />
<path d="M68762 34625
L68162 34625
" />
<path d="M68762 34282
L68419 34539
" />
<path d="M68162 34282
L68505 34625
" />
</g>
<g style="fill:#000000; fill-opacity:0.0; 
stroke:#000000; stroke-width:80; stroke-opacity:1; 
stroke-linecap:round; stroke-linejoin:round;">
<path d="M57185 33689
L57185 33289
" />
<path d="M57413 33689
L57242 33460
" />
<path d="M57413 33289
L57185 33517
" />
<path d="M57546 33289
L57794 33289
L57661 33441
L57718 33441
L57756 33460
L57775 33479
L57794 33517
L57794 33612
L57775 33650
L57756 33670
L57718 33689
L57604 33689
L57566 33670
L57546 33650
" />
<path d="M61712 32185
L61712 31785
" />
<path d="M61941 32185
L61769 31957
" />
<path d="M61941 31785
L61712 32014
" />
<path d="M62093 31824
L62112 31804
L62150 31785
L62245 31785
L62284 31804
L62303 31824
L62322 31862
L62322 31900
L62303 31957
L62074 32185
L62322 32185
" />
</g>
<g style="fill:#000000; fill-opacity:0.0; 
stroke:#000000; stroke-width:120; stroke-opacity:1; 
stroke-linecap:round; stroke-linejoin:round;">
<path d="M46998 23999
L46998 23399
" />
<path d="M47340 23999
L47083 23656
" />
<path d="M47340 23399
L46998 23742
" />
<path d="M47912 23999
L47569 23999
" />
<path d="M47740 23999
L47740 23399
L47683 23485
L47626 23542
L47569 23570
" />
<path d="M46169 19342
L46140 19370
L46055 19399
L45998 19399
L45912 19370
L45855 19313
L45826 19256
L45798 19142
L45798 19056
L45826 18942
L45855 18885
L45912 18828
L45998 18799
L46055 18799
L46140 18828
L46169 18856
" />
<path d="M46540 18799
L46655 18799
L46712 18828
L46769 18885
L46798 18999
L46798 19199
L46769 19313
L46712 19370
L46655 19399
L46540 19399
L46483 19370
L46426 19313
L46398 19199
L46398 18999
L46426 18885
L46483 18828
L46540 18799
" />
<path d="M47055 19399
L47055 18799
L47398 19399
L47398 18799
" />
<path d="M47683 19399
L47683 18799
L48026 19399
L48026 18799
" />
<path d="M48169 19456
L48626 19456
" />
<path d="M48712 18799
L49083 18799
L48883 19028
L48969 19028
L49026 19056
L49055 19085
L49083 19142
L49083 19285
L49055 19342
L49026 19370
L48969 19399
L48798 19399
L48740 19370
L48712 19342
" />
<path d="M28723 35285
L28123 35285
L28123 35056
L28152 34999
L28181 34971
L28238 34942
L28323 34942
L28381 34971
L28409 34999
L28438 35056
L28438 35285
" />
<path d="M28723 34371
L28723 34713
" />
<path d="M28723 34542
L28123 34542
L28209 34599
L28266 34656
L28295 34713
" />
<path d="M24123 35999
L23523 35999
" />
<path d="M24123 35713
L23523 35713
L24123 35371
L23523 35371
" />
<path d="M24123 35085
L23523 35085
L23523 34856
L23552 34799
L23581 34771
L23638 34742
L23723 34742
L23781 34771
L23809 34799
L23838 34856
L23838 35085
" />
<path d="M23523 34485
L24009 34485
L24066 34456
L24095 34428
L24123 34371
L24123 34256
L24095 34199
L24066 34171
L24009 34142
L23523 34142
" />
<path d="M23523 33942
L23523 33599
" />
<path d="M24123 33771
L23523 33771
" />
<path d="M46577 24852
L45977 24852
L45977 24709
L46006 24623
L46063 24566
L46120 24538
L46234 24509
L46320 24509
L46434 24538
L46491 24566
L46548 24623
L46577 24709
L46577 24852
" />
<path d="M45977 23966
L45977 24252
L46263 24280
L46234 24252
L46206 24195
L46206 24052
L46234 23995
L46263 23966
L46320 23938
L46463 23938
L46520 23966
L46548 23995
L46577 24052
L46577 24195
L46548 24252
L46520 24280
" />
<path d="M49577 24795
L49577 25080
L48977 25080
" />
<path d="M49263 24595
L49263 24395
" />
<path d="M49577 24309
L49577 24595
L48977 24595
L48977 24309
" />
<path d="M49577 24052
L48977 24052
L48977 23909
L49006 23823
L49063 23766
L49120 23738
L49234 23709
L49320 23709
L49434 23738
L49491 23766
L49548 23823
L49577 23909
L49577 24052
" />
<path d="M47412 37253
L46812 37253
L46812 37111
L46840 37025
L46897 36968
L46955 36939
L47069 36911
L47155 36911
L47269 36939
L47326 36968
L47383 37025
L47412 37111
L47412 37253
" />
<path d="M47012 36396
L47412 36396
" />
<path d="M46783 36539
L47212 36682
L47212 36311
" />
<path d="M44412 37196
L44412 37482
L43812 37482
" />
<path d="M44097 36996
L44097 36796
" />
<path d="M44412 36711
L44412 36996
L43812 36996
L43812 36711
" />
<path d="M44412 36453
L43812 36453
L43812 36311
L43840 36225
L43897 36168
L43955 36139
L44069 36111
L44155 36111
L44269 36139
L44326 36168
L44383 36225
L44412 36311
L44412 36453
" />
<path d="M25509 21890
L25309 21890
" />
<path d="M25309 22205
L25309 21605
L25595 21605
" />
<path d="M25823 21605
L25823 22090
L25852 22147
L25881 22176
L25938 22205
L26052 22205
L26109 22176
L26138 22147
L26166 22090
L26166 21605
" />
<path d="M26423 22176
L26509 22205
L26652 22205
L26709 22176
L26738 22147
L26766 22090
L26766 22033
L26738 21976
L26709 21947
L26652 21919
L26538 21890
L26481 21862
L26452 21833
L26423 21776
L26423 21719
L26452 21662
L26481 21633
L26538 21605
L26681 21605
L26766 21633
" />
<path d="M27023 21890
L27223 21890
" />
<path d="M27309 22205
L27023 22205
L27023 21605
L27309 21605
" />
<path d="M27881 22205
L27538 22205
" />
<path d="M27709 22205
L27709 21605
L27652 21690
L27595 21747
L27538 21776
" />
<path d="M24109 31647
L24109 31847
" />
<path d="M24423 31847
L23823 31847
L23823 31562
" />
<path d="M23823 31333
L24309 31333
L24366 31305
L24395 31276
L24423 31219
L24423 31105
L24395 31047
L24366 31019
L24309 30990
L23823 30990
" />
<path d="M24395 30733
L24423 30647
L24423 30505
L24395 30447
L24366 30419
L24309 30390
L24252 30390
L24195 30419
L24166 30447
L24138 30505
L24109 30619
L24081 30676
L24052 30705
L23995 30733
L23938 30733
L23881 30705
L23852 30676
L23823 30619
L23823 30476
L23852 30390
" />
<path d="M24109 30133
L24109 29933
" />
<path d="M24423 29847
L24423 30133
L23823 30133
L23823 29847
" />
</g>
<g style="fill:#000000; fill-opacity:0.0; 
stroke:#000000; stroke-width:80; stroke-opacity:1; 
stroke-linecap:round; stroke-linejoin:round;">
<path d="M54958 28295
L55363 28295
L55410 28274
L55434 28252
L55458 28209
L55458 28124
L55434 28081
L55410 28059
L55363 28038
L54958 28038
" />
<path d="M54958 27867
L54958 27588
L55148 27738
L55148 27674
L55172 27631
L55196 27609
L55244 27588
L55363 27588
L55410 27609
L55434 27631
L55458 27674
L55458 27802
L55434 27845
L55410 27867
" />
<path d="M51908 27655
L52136 27655
" />
<path d="M52022 28155
L52022 27655
" />
<path d="M52460 28155
L52270 28155
L52270 27655
" />
<path d="M52670 27655
L52708 27655
L52746 27678
L52765 27702
L52784 27750
L52803 27845
L52803 27964
L52784 28059
L52765 28107
L52746 28131
L52708 28155
L52670 28155
L52632 28131
L52613 28107
L52594 28059
L52574 27964
L52574 27845
L52594 27750
L52613 27702
L52632 27678
L52670 27655
" />
<path d="M53032 27869
L52994 27845
L52974 27821
L52955 27774
L52955 27750
L52974 27702
L52994 27678
L53032 27655
L53108 27655
L53146 27678
L53165 27702
L53184 27750
L53184 27774
L53165 27821
L53146 27845
L53108 27869
L53032 27869
L52994 27893
L52974 27917
L52955 27964
L52955 28059
L52974 28107
L52994 28131
L53032 28155
L53108 28155
L53146 28131
L53165 28107
L53184 28059
L53184 27964
L53165 27917
L53146 27893
L53108 27869
" />
<path d="M53336 27702
L53355 27678
L53394 27655
L53489 27655
L53527 27678
L53546 27702
L53565 27750
L53565 27797
L53546 27869
L53317 28155
L53565 28155
" />
</g>
<g style="fill:#000000; fill-opacity:0.0; 
stroke:#000000; stroke-width:120; stroke-opacity:1; 
stroke-linecap:round; stroke-linejoin:round;">
<path d="M44449 30560
L43849 30560
L43849 30418
L43878 30332
L43935 30275
L43992 30246
L44106 30218
L44192 30218
L44306 30246
L44363 30275
L44420 30332
L44449 30418
L44449 30560
" />
<path d="M43849 30018
L43849 29646
L44078 29846
L44078 29760
L44106 29703
L44135 29675
L44192 29646
L44335 29646
L44392 29675
L44420 29703
L44449 29760
L44449 29932
L44420 29989
L44392 30018
" />
<path d="M47070 30946
L47070 30489
" />
<path d="M45870 29746
L45870 29289
" />
<path d="M46099 29518
L45642 29518
" />
</g> 
</svg>
