<?xml version="1.0" standalone="no"?>
 <!DOCTYPE svg PUBLIC "-//W3C//DTD SVG 1.1//EN" 
 "http://www.w3.org/Graphics/SVG/1.1/DTD/svg11.dtd"> 
<svg xmlns="http://www.w3.org/2000/svg" version="1.1" 
    width="29.7002cm" height="21.0007cm" viewBox="0 0 116930 82680 ">
<title>SVG Picture created as probes-Back.svg date 2012/12/30 22:52:10 </title>
  <desc>Picture generated by PCBNEW </desc>
<g style="fill:#000000; fill-opacity:1;stroke:#000000; stroke-opacity:1;
stroke-linecap:round; stroke-linejoin:round; "
 transform="translate(0 0) scale(1 1)">
</g>
<g style="fill:#000000; fill-opacity:0.0; 
stroke:#000000; stroke-width:0.0787402; stroke-opacity:1; 
stroke-linecap:round; stroke-linejoin:round;">
<path d="M4000 4000
L112930 4000
L112930 78680
L4000 78680
L4000 4000
" />
<path d="M4700 4700
L112230 4700
L112230 77980
L4700 77980
L4700 4700
" />
<path d="M25780 4000
L25780 4700
" />
<path d="M15032 4552
L14747 4552
" />
<path d="M14890 4552
L14890 4052
L14842 4123
L14794 4171
L14747 4195
" />
<path d="M25780 78680
L25780 77980
" />
<path d="M15032 78532
L14747 78532
" />
<path d="M14890 78532
L14890 78032
L14842 78103
L14794 78151
L14747 78175
" />
<path d="M47560 4000
L47560 4700
" />
<path d="M36527 4100
L36550 4076
L36598 4052
L36717 4052
L36765 4076
L36789 4100
L36812 4147
L36812 4195
L36789 4266
L36503 4552
L36812 4552
" />
<path d="M47560 78680
L47560 77980
" />
<path d="M36527 78080
L36550 78056
L36598 78032
L36717 78032
L36765 78056
L36789 78080
L36812 78127
L36812 78175
L36789 78246
L36503 78532
L36812 78532
" />
<path d="M69340 4000
L69340 4700
" />
<path d="M58283 4052
L58592 4052
L58426 4242
L58497 4242
L58545 4266
L58569 4290
L58592 4338
L58592 4457
L58569 4504
L58545 4528
L58497 4552
L58354 4552
L58307 4528
L58283 4504
" />
<path d="M69340 78680
L69340 77980
" />
<path d="M58283 78032
L58592 78032
L58426 78222
L58497 78222
L58545 78246
L58569 78270
L58592 78318
L58592 78437
L58569 78484
L58545 78508
L58497 78532
L58354 78532
L58307 78508
L58283 78484
" />
<path d="M91120 4000
L91120 4700
" />
<path d="M80325 4219
L80325 4552
" />
<path d="M80206 4028
L80087 4385
L80396 4385
" />
<path d="M91120 78680
L91120 77980
" />
<path d="M80325 78199
L80325 78532
" />
<path d="M80206 78008
L80087 78365
L80396 78365
" />
<path d="M102129 4052
L101890 4052
L101867 4290
L101890 4266
L101938 4242
L102057 4242
L102105 4266
L102129 4290
L102152 4338
L102152 4457
L102129 4504
L102105 4528
L102057 4552
L101938 4552
L101890 4528
L101867 4504
" />
<path d="M102129 78032
L101890 78032
L101867 78270
L101890 78246
L101938 78222
L102057 78222
L102105 78246
L102129 78270
L102152 78318
L102152 78437
L102129 78484
L102105 78508
L102057 78532
L101938 78532
L101890 78508
L101867 78484
" />
<path d="M4000 28890
L4700 28890
" />
<path d="M4230 16509
L4469 16509
" />
<path d="M4183 16652
L4350 16152
L4516 16652
" />
<path d="M112930 28890
L112230 28890
" />
<path d="M112460 16509
L112699 16509
" />
<path d="M112413 16652
L112580 16152
L112746 16652
" />
<path d="M4000 53780
L4700 53780
" />
<path d="M4385 41280
L4457 41304
L4480 41328
L4504 41375
L4504 41447
L4480 41494
L4457 41518
L4409 41542
L4219 41542
L4219 41042
L4385 41042
L4433 41066
L4457 41090
L4480 41137
L4480 41185
L4457 41232
L4433 41256
L4385 41280
L4219 41280
" />
<path d="M112930 53780
L112230 53780
" />
<path d="M112615 41280
L112687 41304
L112710 41328
L112734 41375
L112734 41447
L112710 41494
L112687 41518
L112639 41542
L112449 41542
L112449 41042
L112615 41042
L112663 41066
L112687 41090
L112710 41137
L112710 41185
L112687 41232
L112663 41256
L112615 41280
L112449 41280
" />
<path d="M4504 66384
L4480 66408
L4409 66432
L4361 66432
L4290 66408
L4242 66360
L4219 66313
L4195 66218
L4195 66146
L4219 66051
L4242 66003
L4290 65956
L4361 65932
L4409 65932
L4480 65956
L4504 65980
" />
<path d="M112734 66384
L112710 66408
L112639 66432
L112591 66432
L112520 66408
L112472 66360
L112449 66313
L112425 66218
L112425 66146
L112449 66051
L112472 66003
L112520 65956
L112591 65932
L112639 65932
L112710 65956
L112734 65980
" />
<path d="M79380 76422
L79455 75822
L79597 75822
L79680 75851
L79730 75908
L79751 75965
L79765 76080
L79755 76165
L79712 76280
L79676 76337
L79612 76394
L79522 76422
L79380 76422
" />
<path d="M80237 76422
L80276 76108
L80255 76051
L80201 76022
L80087 76022
L80026 76051
" />
<path d="M80240 76394
L80180 76422
L80037 76422
L79983 76394
L79962 76337
L79969 76280
L80005 76222
L80065 76194
L80208 76194
L80269 76165
" />
<path d="M80487 76022
L80715 76022
" />
<path d="M80597 75822
L80533 76337
L80555 76394
L80608 76422
L80665 76422
" />
<path d="M81097 76394
L81037 76422
L80922 76422
L80869 76394
L80847 76337
L80876 76108
L80912 76051
L80972 76022
L81087 76022
L81140 76051
L81162 76108
L81155 76165
L80862 76222
" />
<path d="M81387 76365
L81412 76394
L81380 76422
L81355 76394
L81387 76365
L81380 76422
" />
<path d="M81426 76051
L81451 76080
L81419 76108
L81394 76080
L81426 76051
L81419 76108
" />
<path d="M82140 75822
L82512 75822
L82283 76051
L82369 76051
L82422 76080
L82447 76108
L82469 76165
L82451 76308
L82415 76365
L82383 76394
L82322 76422
L82151 76422
L82097 76394
L82072 76365
" />
<path d="M82883 75822
L82940 75822
L82994 75851
L83019 75880
L83040 75937
L83055 76051
L83037 76194
L82994 76308
L82958 76365
L82926 76394
L82865 76422
L82808 76422
L82755 76394
L82730 76365
L82708 76308
L82694 76194
L82712 76051
L82755 75937
L82790 75880
L82822 75851
L82883 75822
" />
<path d="M83980 76422
L84055 75822
" />
<path d="M83983 76394
L83922 76422
L83808 76422
L83755 76394
L83730 76365
L83708 76308
L83730 76137
L83765 76080
L83797 76051
L83858 76022
L83972 76022
L84026 76051
" />
<path d="M84497 76394
L84437 76422
L84322 76422
L84269 76394
L84247 76337
L84276 76108
L84312 76051
L84372 76022
L84487 76022
L84540 76051
L84562 76108
L84555 76165
L84262 76222
" />
<path d="M85040 76394
L84980 76422
L84865 76422
L84812 76394
L84787 76365
L84765 76308
L84787 76137
L84822 76080
L84855 76051
L84915 76022
L85030 76022
L85083 76051
" />
<path d="M85790 75880
L85822 75851
L85883 75822
L86026 75822
L86080 75851
L86105 75880
L86126 75937
L86119 75994
L86080 76080
L85694 76422
L86065 76422
" />
<path d="M86512 75822
L86569 75822
L86622 75851
L86647 75880
L86669 75937
L86683 76051
L86665 76194
L86622 76308
L86587 76365
L86555 76394
L86494 76422
L86437 76422
L86383 76394
L86358 76365
L86337 76308
L86322 76194
L86340 76051
L86383 75937
L86419 75880
L86451 75851
L86512 75822
" />
<path d="M87208 76422
L86865 76422
" />
<path d="M87037 76422
L87112 75822
L87044 75908
L86980 75965
L86919 75994
" />
<path d="M87505 75880
L87537 75851
L87597 75822
L87740 75822
L87794 75851
L87819 75880
L87840 75937
L87833 75994
L87794 76080
L87408 76422
L87780 76422
" />
<path d="M70972 77622
L70972 77022
" />
<path d="M71315 77622
L71058 77280
" />
<path d="M71315 77022
L70972 77365
" />
<path d="M71572 77622
L71572 77222
" />
<path d="M71572 77022
L71544 77051
L71572 77080
L71601 77051
L71572 77022
L71572 77080
" />
<path d="M72201 77565
L72172 77594
L72087 77622
L72030 77622
L71944 77594
L71887 77537
L71858 77480
L71830 77365
L71830 77280
L71858 77165
L71887 77108
L71944 77051
L72030 77022
L72087 77022
L72172 77051
L72201 77080
" />
<path d="M72715 77622
L72715 77308
L72687 77251
L72630 77222
L72515 77222
L72458 77251
" />
<path d="M72715 77594
L72658 77622
L72515 77622
L72458 77594
L72430 77537
L72430 77480
L72458 77422
L72515 77394
L72658 77394
L72715 77365
" />
<path d="M73258 77622
L73258 77022
" />
<path d="M73258 77594
L73201 77622
L73087 77622
L73030 77594
L73001 77565
L72972 77508
L72972 77337
L73001 77280
L73030 77251
L73087 77222
L73201 77222
L73258 77251
" />
<path d="M74001 77308
L74201 77308
" />
<path d="M74287 77622
L74001 77622
L74001 77022
L74287 77022
" />
<path d="M74544 77565
L74572 77594
L74544 77622
L74515 77594
L74544 77565
L74544 77622
" />
<path d="M74829 77622
L74829 77022
L74972 77022
L75058 77051
L75115 77108
L75144 77165
L75172 77280
L75172 77365
L75144 77480
L75115 77537
L75058 77594
L74972 77622
L74829 77622
" />
<path d="M75429 77565
L75458 77594
L75429 77622
L75401 77594
L75429 77565
L75429 77622
" />
<path d="M75687 77451
L75972 77451
" />
<path d="M75629 77622
L75829 77022
L76029 77622
" />
<path d="M76229 77565
L76258 77594
L76229 77622
L76201 77594
L76229 77565
L76229 77622
" />
<path d="M104522 76422
L104358 76137
" />
<path d="M104180 76422
L104255 75822
L104483 75822
L104537 75851
L104562 75880
L104583 75937
L104572 76022
L104537 76080
L104505 76108
L104444 76137
L104215 76137
" />
<path d="M105012 76394
L104951 76422
L104837 76422
L104783 76394
L104762 76337
L104790 76108
L104826 76051
L104887 76022
L105001 76022
L105055 76051
L105076 76108
L105069 76165
L104776 76222
" />
<path d="M105287 76022
L105380 76422
L105572 76022
" />
<path d="M105758 76365
L105783 76394
L105751 76422
L105726 76394
L105758 76365
L105751 76422
" />
<path d="M105797 76051
L105822 76080
L105790 76108
L105765 76080
L105797 76051
L105790 76108
" />
<path d="M106808 76422
L106465 76422
" />
<path d="M106637 76422
L106712 75822
L106644 75908
L106580 75965
L106519 75994
" />
<path d="M107072 76365
L107097 76394
L107065 76422
L107040 76394
L107072 76365
L107065 76422
" />
<path d="M107540 75822
L107597 75822
L107651 75851
L107676 75880
L107697 75937
L107712 76051
L107694 76194
L107651 76308
L107615 76365
L107583 76394
L107522 76422
L107465 76422
L107412 76394
L107387 76365
L107365 76308
L107351 76194
L107369 76051
L107412 75937
L107447 75880
L107480 75851
L107540 75822
" />
<path d="M70944 76394
L71030 76422
L71172 76422
L71230 76394
L71258 76365
L71287 76308
L71287 76251
L71258 76194
L71230 76165
L71172 76137
L71058 76108
L71001 76080
L70972 76051
L70944 75994
L70944 75937
L70972 75880
L71001 75851
L71058 75822
L71201 75822
L71287 75851
" />
<path d="M71544 76422
L71544 76022
" />
<path d="M71544 75822
L71515 75851
L71544 75880
L71572 75851
L71544 75822
L71544 75880
" />
<path d="M71772 76022
L72087 76022
L71772 76422
L72087 76422
" />
<path d="M72544 76394
L72487 76422
L72372 76422
L72315 76394
L72287 76337
L72287 76108
L72315 76051
L72372 76022
L72487 76022
L72544 76051
L72572 76108
L72572 76165
L72287 76222
" />
<path d="M72830 76365
L72858 76394
L72830 76422
L72801 76394
L72830 76365
L72830 76422
" />
<path d="M72830 76051
L72858 76080
L72830 76108
L72801 76080
L72830 76051
L72830 76108
" />
<path d="M73544 76251
L73830 76251
" />
<path d="M73487 76422
L73687 75822
L73887 76422
" />
<path d="M74344 76022
L74344 76422
" />
<path d="M74201 75794
L74058 76222
L74430 76222
" />
<path d="M104172 77622
L104172 77022
" />
<path d="M104715 77622
L104715 77022
" />
<path d="M104715 77594
L104658 77622
L104544 77622
L104487 77594
L104458 77565
L104430 77508
L104430 77337
L104458 77280
L104487 77251
L104544 77222
L104658 77222
L104715 77251
" />
<path d="M105001 77565
L105030 77594
L105001 77622
L104972 77594
L105001 77565
L105001 77622
" />
<path d="M105001 77251
L105030 77280
L105001 77308
L104972 77280
L105001 77251
L105001 77308
" />
<path d="M106058 77622
L105715 77622
" />
<path d="M105887 77622
L105887 77022
L105829 77108
L105772 77165
L105715 77194
" />
<path d="M106744 76994
L106230 77765
" />
<path d="M107258 77622
L106915 77622
" />
<path d="M107087 77622
L107087 77022
L107029 77108
L106972 77165
L106915 77194
" />
<path d="M70969 74622
L71312 74622
" />
<path d="M71065 75222
L71140 74622
" />
<path d="M71437 75222
L71487 74822
" />
<path d="M71512 74622
L71480 74651
L71505 74680
L71537 74651
L71512 74622
L71505 74680
" />
<path d="M71687 74822
L71915 74822
" />
<path d="M71797 74622
L71733 75137
L71755 75194
L71808 75222
L71865 75222
" />
<path d="M72151 75222
L72097 75194
L72076 75137
L72140 74622
" />
<path d="M72612 75194
L72551 75222
L72437 75222
L72383 75194
L72362 75137
L72390 74908
L72426 74851
L72487 74822
L72601 74822
L72655 74851
L72676 74908
L72669 74965
L72376 75022
" />
<path d="M72901 75165
L72926 75194
L72894 75222
L72869 75194
L72901 75165
L72894 75222
" />
<path d="M72940 74851
L72965 74880
L72933 74908
L72908 74880
L72940 74851
L72933 74908
" />
<path d="M73637 75222
L73712 74622
L73940 74622
L73994 74651
L74019 74680
L74040 74737
L74030 74822
L73994 74880
L73962 74908
L73901 74937
L73672 74937
" />
<path d="M74587 75165
L74555 75194
L74465 75222
L74408 75222
L74326 75194
L74276 75137
L74255 75080
L74240 74965
L74251 74880
L74294 74765
L74330 74708
L74394 74651
L74483 74622
L74540 74622
L74622 74651
L74647 74680
" />
<path d="M75380 75222
L75326 75194
L75301 75165
L75280 75108
L75301 74937
L75337 74880
L75369 74851
L75430 74822
L75515 74822
L75569 74851
L75594 74880
L75615 74937
L75594 75108
L75558 75165
L75526 75194
L75465 75222
L75380 75222
" />
<path d="M75812 75194
L75865 75222
L75980 75222
L76040 75194
L76076 75137
L76080 75108
L76058 75051
L76005 75022
L75919 75022
L75865 74994
L75844 74937
L75847 74908
L75883 74851
L75944 74822
L76030 74822
L76083 74851
" />
<path d="M76583 75194
L76522 75222
L76408 75222
L76355 75194
L76330 75165
L76308 75108
L76330 74937
L76365 74880
L76397 74851
L76458 74822
L76572 74822
L76626 74851
" />
<path d="M76837 75222
L76887 74822
" />
<path d="M76912 74622
L76880 74651
L76905 74680
L76937 74651
L76912 74622
L76905 74680
" />
<path d="M77208 75222
L77155 75194
L77133 75137
L77197 74622
" />
<path d="M77522 75222
L77469 75194
L77447 75137
L77512 74622
" />
<path d="M77837 75222
L77783 75194
L77758 75165
L77737 75108
L77758 74937
L77794 74880
L77826 74851
L77887 74822
L77972 74822
L78026 74851
L78051 74880
L78072 74937
L78051 75108
L78015 75165
L77983 75194
L77922 75222
L77837 75222
" />
<path d="M78269 75194
L78322 75222
L78437 75222
L78497 75194
L78533 75137
L78537 75108
L78515 75051
L78462 75022
L78376 75022
L78322 74994
L78301 74937
L78305 74908
L78340 74851
L78401 74822
L78487 74822
L78540 74851
" />
<path d="M79040 75194
L78980 75222
L78865 75222
L78812 75194
L78787 75165
L78765 75108
L78787 74937
L78822 74880
L78855 74851
L78915 74822
L79030 74822
L79083 74851
" />
<path d="M79380 75222
L79326 75194
L79301 75165
L79280 75108
L79301 74937
L79337 74880
L79369 74851
L79430 74822
L79515 74822
L79569 74851
L79594 74880
L79615 74937
L79594 75108
L79558 75165
L79526 75194
L79465 75222
L79380 75222
" />
<path d="M79887 74822
L79812 75422
" />
<path d="M79883 74851
L79944 74822
L80058 74822
L80112 74851
L80137 74880
L80158 74937
L80137 75108
L80101 75165
L80069 75194
L80008 75222
L79894 75222
L79840 75194
" />
<path d="M80612 75194
L80551 75222
L80437 75222
L80383 75194
L80362 75137
L80390 74908
L80426 74851
L80487 74822
L80601 74822
L80655 74851
L80676 74908
L80669 74965
L80376 75022
" />
<path d="M81401 74822
L81326 75422
" />
<path d="M81397 74851
L81458 74822
L81572 74822
L81626 74851
L81651 74880
L81672 74937
L81651 75108
L81615 75165
L81583 75194
L81522 75222
L81408 75222
L81355 75194
" />
<path d="M81894 75222
L81944 74822
" />
<path d="M81930 74937
L81965 74880
L81997 74851
L82058 74822
L82115 74822
" />
<path d="M82351 75222
L82297 75194
L82272 75165
L82251 75108
L82272 74937
L82308 74880
L82340 74851
L82401 74822
L82487 74822
L82540 74851
L82565 74880
L82587 74937
L82565 75108
L82530 75165
L82497 75194
L82437 75222
L82351 75222
" />
<path d="M82808 75222
L82883 74622
" />
<path d="M82855 74851
L82915 74822
L83030 74822
L83083 74851
L83108 74880
L83130 74937
L83108 75108
L83072 75165
L83040 75194
L82980 75222
L82865 75222
L82812 75194
" />
<path d="M83583 75194
L83522 75222
L83408 75222
L83355 75194
L83333 75137
L83362 74908
L83397 74851
L83458 74822
L83572 74822
L83626 74851
L83647 74908
L83640 74965
L83347 75022
" />
<path d="M83840 75194
L83894 75222
L84008 75222
L84069 75194
L84105 75137
L84108 75108
L84087 75051
L84033 75022
L83947 75022
L83894 74994
L83872 74937
L83876 74908
L83912 74851
L83972 74822
L84058 74822
L84112 74851
" />
<path d="M71172 72508
L70972 72508
" />
<path d="M70972 72822
L70972 72222
L71258 72222
" />
<path d="M71487 72822
L71487 72422
" />
<path d="M71487 72222
L71458 72251
L71487 72280
L71515 72251
L71487 72222
L71487 72280
" />
<path d="M71858 72822
L71801 72794
L71772 72737
L71772 72222
" />
<path d="M72315 72794
L72258 72822
L72144 72822
L72087 72794
L72058 72737
L72058 72508
L72087 72451
L72144 72422
L72258 72422
L72315 72451
L72344 72508
L72344 72565
L72058 72622
" />
<path d="M72601 72765
L72630 72794
L72601 72822
L72572 72794
L72601 72765
L72601 72822
" />
<path d="M72601 72451
L72630 72480
L72601 72508
L72572 72480
L72601 72451
L72601 72508
" />
<path d="M73344 72422
L73344 73022
" />
<path d="M73344 72451
L73401 72422
L73515 72422
L73572 72451
L73601 72480
L73630 72537
L73630 72708
L73601 72765
L73572 72794
L73515 72822
L73401 72822
L73344 72794
" />
<path d="M73887 72822
L73887 72422
" />
<path d="M73887 72537
L73915 72480
L73944 72451
L74001 72422
L74058 72422
" />
<path d="M74344 72822
L74287 72794
L74258 72765
L74230 72708
L74230 72537
L74258 72480
L74287 72451
L74344 72422
L74430 72422
L74487 72451
L74515 72480
L74544 72537
L74544 72708
L74515 72765
L74487 72794
L74430 72822
L74344 72822
" />
<path d="M74801 72822
L74801 72222
" />
<path d="M74801 72451
L74858 72422
L74972 72422
L75030 72451
L75058 72480
L75087 72537
L75087 72708
L75058 72765
L75030 72794
L74972 72822
L74858 72822
L74801 72794
" />
<path d="M75572 72794
L75515 72822
L75401 72822
L75344 72794
L75315 72737
L75315 72508
L75344 72451
L75401 72422
L75515 72422
L75572 72451
L75601 72508
L75601 72565
L75315 72622
" />
<path d="M75830 72794
L75887 72822
L76001 72822
L76058 72794
L76087 72737
L76087 72708
L76058 72651
L76001 72622
L75915 72622
L75858 72594
L75830 72537
L75830 72508
L75858 72451
L75915 72422
L76001 72422
L76058 72451
" />
<path d="M76344 72765
L76372 72794
L76344 72822
L76315 72794
L76344 72765
L76344 72822
" />
<path d="M76630 72822
L76630 72222
" />
<path d="M76630 72451
L76687 72422
L76801 72422
L76858 72451
L76887 72480
L76915 72537
L76915 72708
L76887 72765
L76858 72794
L76801 72822
L76687 72822
L76630 72794
" />
<path d="M77172 72822
L77172 72422
" />
<path d="M77172 72537
L77201 72480
L77230 72451
L77287 72422
L77344 72422
" />
<path d="M77801 72822
L77801 72222
" />
<path d="M77801 72794
L77744 72822
L77630 72822
L77572 72794
L77544 72765
L77515 72708
L77515 72537
L77544 72480
L77572 72451
L77630 72422
L77744 72422
L77801 72451
" />
<path d="M70944 73994
L71030 74022
L71172 74022
L71230 73994
L71258 73965
L71287 73908
L71287 73851
L71258 73794
L71230 73765
L71172 73737
L71058 73708
L71001 73680
L70972 73651
L70944 73594
L70944 73537
L70972 73480
L71001 73451
L71058 73422
L71201 73422
L71287 73451
" />
<path d="M71544 74022
L71544 73422
" />
<path d="M71801 74022
L71801 73708
L71772 73651
L71715 73622
L71630 73622
L71572 73651
L71544 73680
" />
<path d="M72315 73994
L72258 74022
L72144 74022
L72087 73994
L72058 73937
L72058 73708
L72087 73651
L72144 73622
L72258 73622
L72315 73651
L72344 73708
L72344 73765
L72058 73822
" />
<path d="M72830 73994
L72772 74022
L72658 74022
L72601 73994
L72572 73937
L72572 73708
L72601 73651
L72658 73622
L72772 73622
L72830 73651
L72858 73708
L72858 73765
L72572 73822
" />
<path d="M73030 73622
L73258 73622
" />
<path d="M73115 73422
L73115 73937
L73144 73994
L73201 74022
L73258 74022
" />
<path d="M73458 73965
L73487 73994
L73458 74022
L73430 73994
L73458 73965
L73458 74022
" />
<path d="M73458 73651
L73487 73680
L73458 73708
L73430 73680
L73458 73651
L73458 73708
" />
<path d="M70230 71980
L70230 77980
" />
<path d="M70230 71980
L112230 71980
" />
<path d="M70230 71980
L112230 71980
" />
<path d="M70230 74380
L112230 74380
" />
<path d="M103430 75580
L103430 77980
" />
<path d="M70230 76780
L112230 76780
" />
<path d="M70230 75580
L112230 75580
" />
<path d="M76830 75580
L76830 76780
" />
</g>
<g style="fill:#000000; fill-opacity:0.0; 
stroke:#000000; stroke-width:120; stroke-opacity:1; 
stroke-linecap:round; stroke-linejoin:round;">
<path d="M68307 19685
L68307 38976
" />
<path d="M24409 19685
L68307 19685
" />
<path d="M24409 20078
L24409 19685
" />
<path d="M24409 20669
L24409 20078
" />
<path d="M24409 38976
L24409 20669
" />
<path d="M68307 38976
L24409 38976
" />
</g>
<g style="fill:#000000; fill-opacity:0.0; 
stroke:#000000; stroke-width:591; stroke-opacity:1; 
stroke-linecap:round; stroke-linejoin:round;">
<path d="M64582 27854
L64582 28050
" />
<path d="M63582 27854
L63582 28050
" />
<path d="M62582 27854
L62582 28050
" />
<path d="M58448 28050
L58448 27854
" />
<path d="M59448 28050
L59448 27854
" />
<path d="M60448 28050
L60448 27854
" />
</g>
<g style="fill:#000000; fill-opacity:0.0; 
stroke:#000000; stroke-width:0.0787402; stroke-opacity:1; 
stroke-linecap:round; stroke-linejoin:round;">
</g>
<g style="fill:#000000; fill-opacity:1.0; 
stroke:#000000; stroke-width:0.0787402; stroke-opacity:1; 
stroke-linecap:round; stroke-linejoin:round;">
<circle cx="31220.5" cy="25724.4" r="314.921" /> 
<circle cx="31220.5" cy="27724.4" r="314.921" /> 
<circle cx="31220.5" cy="29724.4" r="314.921" /> 
<circle cx="31220.5" cy="31724.4" r="314.921" /> 
<circle cx="31220.5" cy="33724.4" r="314.921" /> 
<circle cx="41220.5" cy="33724.4" r="314.921" /> 
<circle cx="41220.5" cy="31724.4" r="314.921" /> 
<circle cx="41220.5" cy="29724.4" r="314.921" /> 
<circle cx="41220.5" cy="27724.4" r="314.921" /> 
<circle cx="41220.5" cy="25724.4" r="314.921" /> 
<circle cx="41220.5" cy="22834.6" r="433.031" /> 
<circle cx="31220.5" cy="22834.6" r="433.031" /> 
<circle cx="31220.5" cy="36614.2" r="433.031" /> 
<circle cx="41220.5" cy="36614.2" r="433.031" /> 
<polyline style="fill-rule:evenodd;"
points="46288,25956
46288,25406
46837,25406
46837,25956
46288,25956
" /> 
<circle cx="45563" cy="25681.1" r="274.961" /> 
<circle cx="45563" cy="26681.1" r="274.961" /> 
<polyline style="fill-rule:evenodd;"
points="45894,34673
46444,34673
46444,35223
45894,35223
45894,34673
" /> 
<circle cx="46169.3" cy="33948.8" r="274.961" /> 
<circle cx="45169.3" cy="33948.8" r="274.961" /> 
<circle cx="60196.9" cy="35019.7" r="787.362" /> 
<circle cx="64212.6" cy="35019.7" r="787.362" /> 
<circle cx="62204.7" cy="37027.6" r="787.362" /> 
<circle cx="62204.7" cy="35019.7" r="433.031" /> 
<circle cx="54094.5" cy="35019.7" r="787.362" /> 
<circle cx="58110.2" cy="35019.7" r="787.362" /> 
<circle cx="56102.4" cy="37027.6" r="787.362" /> 
<circle cx="56102.4" cy="35019.7" r="433.031" /> 
<circle cx="64212.6" cy="23641.7" r="787.362" /> 
<circle cx="60196.9" cy="23641.7" r="787.362" /> 
<circle cx="62204.7" cy="21633.9" r="787.362" /> 
<circle cx="62204.7" cy="23641.7" r="433.031" /> 
<circle cx="58110.2" cy="23641.7" r="787.362" /> 
<circle cx="54094.5" cy="23641.7" r="787.362" /> 
<circle cx="56102.4" cy="21633.9" r="787.362" /> 
<circle cx="56102.4" cy="23641.7" r="433.031" /> 
<circle cx="50787.4" cy="34539.4" r="393.461" /> 
<circle cx="50787.4" cy="35539.4" r="393.461" /> 
<circle cx="67519.7" cy="34539.4" r="393.461" /> 
<circle cx="67519.7" cy="35539.4" r="393.461" /> 
<polyline style="fill-rule:evenodd;"
points="55156,32441
55156,31731
55786,31731
55786,32441
55156,32441
" /> 
<polyline style="fill-rule:evenodd;"
points="54056,32441
54056,31731
54686,31731
54686,32441
54056,32441
" /> 
<polyline style="fill-rule:evenodd;"
points="61182,31534
61182,32244
60552,32244
60552,31534
61182,31534
" /> 
<polyline style="fill-rule:evenodd;"
points="62282,31534
62282,32244
61652,32244
61652,31534
62282,31534
" /> 
<polyline style="fill-rule:evenodd;"
points="63620,32244
63620,31534
64250,31534
64250,32244
63620,32244
" /> 
<polyline style="fill-rule:evenodd;"
points="62520,32244
62520,31534
63150,31534
63150,32244
62520,32244
" /> 
<polyline style="fill-rule:evenodd;"
points="65512,36849
65512,37559
64883,37559
64883,36849
65512,36849
" /> 
<polyline style="fill-rule:evenodd;"
points="66612,36849
66612,37559
65983,37559
65983,36849
66612,36849
" /> 
<polyline style="fill-rule:evenodd;"
points="65512,31534
65512,32244
64883,32244
64883,31534
65512,31534
" /> 
<polyline style="fill-rule:evenodd;"
points="66612,31534
66612,32244
65983,32244
65983,31534
66612,31534
" /> 
<polyline style="fill-rule:evenodd;"
points="52794,37559
52794,36849
53424,36849
53424,37559
52794,37559
" /> 
<polyline style="fill-rule:evenodd;"
points="51694,37559
51694,36849
52324,36849
52324,37559
51694,37559
" /> 
<polyline style="fill-rule:evenodd;"
points="53187,32244
53187,31534
53817,31534
53817,32244
53187,32244
" /> 
<polyline style="fill-rule:evenodd;"
points="52087,32244
52087,31534
52717,31534
52717,32244
52087,32244
" /> 
<polyline style="fill-rule:evenodd;"
points="55156,33228
55156,32519
55786,32519
55786,33228
55156,33228
" /> 
<polyline style="fill-rule:evenodd;"
points="54056,33228
54056,32519
54686,32519
54686,33228
54056,33228
" /> 
<polyline style="fill-rule:evenodd;"
points="47675,23386
47675,22676
48305,22676
48305,23386
47675,23386
" /> 
<polyline style="fill-rule:evenodd;"
points="46575,23386
46575,22676
47205,22676
47205,23386
46575,23386
" /> 
<polyline style="fill-rule:evenodd;"
points="45904,38347
45904,37637
46534,37637
46534,38347
45904,38347
" /> 
<polyline style="fill-rule:evenodd;"
points="44804,38347
44804,37637
45434,37637
45434,38347
44804,38347
" /> 
<polyline style="fill-rule:evenodd;"
points="58780,32244
58780,33110
58180,33110
58180,32244
58780,32244
" /> 
</g>
<g style="fill:#000000; fill-opacity:1.0; 
stroke:#000000; stroke-width:600; stroke-opacity:1; 
stroke-linecap:round; stroke-linejoin:round;">
<path d="M57480 32810
L57480 32544
" />
<path d="M56480 32810
L56480 32544
" />
</g>
<g style="fill:#000000; fill-opacity:1.0; 
stroke:#000000; stroke-width:0.0787402; stroke-opacity:1; 
stroke-linecap:round; stroke-linejoin:round;">
<polyline style="fill-rule:evenodd;"
points="60707,33306
60707,32441
61307,32441
61307,33306
60707,33306
" /> 
</g>
<g style="fill:#000000; fill-opacity:1.0; 
stroke:#000000; stroke-width:600; stroke-opacity:1; 
stroke-linecap:round; stroke-linejoin:round;">
<path d="M62007 32741
L62007 33007
" />
<path d="M63007 32741
L63007 33007
" />
</g>
<g style="fill:#000000; fill-opacity:1.0; 
stroke:#000000; stroke-width:0.0787402; stroke-opacity:1; 
stroke-linecap:round; stroke-linejoin:round;">
<polyline style="fill-rule:evenodd;"
points="50031,20866
50031,22047
48850,22047
48850,20866
50031,20866
" /> 
<circle cx="47440.9" cy="21456.7" r="590.461" /> 
<circle cx="45440.9" cy="21456.7" r="590.461" /> 
<polyline style="fill-rule:evenodd;"
points="25590,33252
26771,33252
26771,34432
25590,34432
25590,33252
" /> 
<circle cx="26181.1" cy="35842.5" r="590.461" /> 
<polyline style="fill-rule:evenodd;"
points="51830,33622
51318,33622
51318,33307
51830,33307
51830,33622
" /> 
<polyline style="fill-rule:evenodd;"
points="51830,32834
51318,32834
51318,32519
51830,32519
51830,32834
" /> 
<polyline style="fill-rule:evenodd;"
points="51830,32244
51318,32244
51318,31929
51830,31929
51830,32244
" /> 
<polyline style="fill-rule:evenodd;"
points="51830,31456
51318,31456
51318,31141
51830,31141
51830,31456
" /> 
<polyline style="fill-rule:evenodd;"
points="52106,32519
52618,32519
52618,32834
52106,32834
52106,32519
" /> 
<polyline style="fill-rule:evenodd;"
points="52106,33307
52618,33307
52618,33622
52106,33622
52106,33307
" /> 
<polyline style="fill-rule:evenodd;"
points="67381,32047
66870,32047
66870,31732
67381,31732
67381,32047
" /> 
<polyline style="fill-rule:evenodd;"
points="67381,31259
66870,31259
66870,30944
67381,30944
67381,31259
" /> 
<polyline style="fill-rule:evenodd;"
points="66082,32519
66594,32519
66594,32834
66082,32834
66082,32519
" /> 
<polyline style="fill-rule:evenodd;"
points="66082,33307
66594,33307
66594,33622
66082,33622
66082,33307
" /> 
<polyline style="fill-rule:evenodd;"
points="67185,33622
66673,33622
66673,33307
67185,33307
67185,33622
" /> 
<polyline style="fill-rule:evenodd;"
points="67185,32834
66673,32834
66673,32519
67185,32519
67185,32834
" /> 
<polyline style="fill-rule:evenodd;"
points="49665,23582
49153,23582
49153,23268
49665,23268
49665,23582
" /> 
<polyline style="fill-rule:evenodd;"
points="49665,22794
49153,22794
49153,22480
49665,22480
49665,22794
" /> 
<polyline style="fill-rule:evenodd;"
points="45216,22480
45728,22480
45728,22794
45216,22794
45216,22480
" /> 
<polyline style="fill-rule:evenodd;"
points="45216,23268
45728,23268
45728,23582
45216,23582
45216,23268
" /> 
<circle cx="48334.6" cy="24409.4" r="393.461" /> 
<circle cx="47334.6" cy="24409.4" r="393.461" /> 
<circle cx="45169.3" cy="36811" r="393.461" /> 
<circle cx="46169.3" cy="36811" r="393.461" /> 
<circle cx="26181.1" cy="31647.2" r="590.461" /> 
<circle cx="26181.1" cy="23077.2" r="590.461" /> 
<polyline style="fill-rule:evenodd;"
points="54530,26177
54530,26727
53980,26727
53980,26177
54530,26177
" /> 
<circle cx="53255.9" cy="26452.8" r="274.961" /> 
<circle cx="52255.9" cy="26452.8" r="274.961" /> 
<circle cx="51255.9" cy="26452.8" r="274.961" /> 
<circle cx="51255.9" cy="29452.8" r="274.961" /> 
<circle cx="52255.9" cy="29452.8" r="274.961" /> 
<circle cx="53255.9" cy="29452.8" r="274.961" /> 
<circle cx="54255.9" cy="29452.8" r="274.961" /> 
<polyline style="fill-rule:evenodd;"
points="52323,34804
51613,34804
51613,34174
52323,34174
52323,34804
" /> 
<polyline style="fill-rule:evenodd;"
points="52323,35904
51613,35904
51613,35274
52323,35274
52323,35904
" /> 
<polyline style="fill-rule:evenodd;"
points="47873,27400
48583,27400
48583,28030
47873,28030
47873,27400
" /> 
<polyline style="fill-rule:evenodd;"
points="47873,26300
48583,26300
48583,26930
47873,26930
47873,26300
" /> 
<polyline style="fill-rule:evenodd;"
points="49764,28701
49054,28701
49054,28072
49764,28072
49764,28701
" /> 
<polyline style="fill-rule:evenodd;"
points="49764,29801
49054,29801
49054,29172
49764,29172
49764,29801
" /> 
<polyline style="fill-rule:evenodd;"
points="56140,29685
56140,28975
56770,28975
56770,29685
56140,29685
" /> 
<polyline style="fill-rule:evenodd;"
points="55040,29685
55040,28975
55670,28975
55670,29685
55040,29685
" /> 
<polyline style="fill-rule:evenodd;"
points="48070,33699
48780,33699
48780,34329
48070,34329
48070,33699
" /> 
<polyline style="fill-rule:evenodd;"
points="48070,32599
48780,32599
48780,33229
48070,33229
48070,32599
" /> 
<polyline style="fill-rule:evenodd;"
points="47085,27400
47795,27400
47795,28030
47085,28030
47085,27400
" /> 
<polyline style="fill-rule:evenodd;"
points="47085,26300
47795,26300
47795,26930
47085,26930
47085,26300
" /> 
<polyline style="fill-rule:evenodd;"
points="48977,28701
48267,28701
48267,28072
48977,28072
48977,28701
" /> 
<polyline style="fill-rule:evenodd;"
points="48977,29801
48267,29801
48267,29172
48977,29172
48977,29801
" /> 
<polyline style="fill-rule:evenodd;"
points="47992,35001
47282,35001
47282,34371
47992,34371
47992,35001
" /> 
<polyline style="fill-rule:evenodd;"
points="47992,36101
47282,36101
47282,35471
47992,35471
47992,36101
" /> 
<polyline style="fill-rule:evenodd;"
points="47282,33699
47992,33699
47992,34329
47282,34329
47282,33699
" /> 
<polyline style="fill-rule:evenodd;"
points="47282,32599
47992,32599
47992,33229
47282,33229
47282,32599
" /> 
<polyline style="fill-rule:evenodd;"
points="66693,34804
65983,34804
65983,34174
66693,34174
66693,34804
" /> 
<polyline style="fill-rule:evenodd;"
points="66693,35904
65983,35904
65983,35274
66693,35274
66693,35904
" /> 
<polyline style="fill-rule:evenodd;"
points="65512,36062
65512,36772
64883,36772
64883,36062
65512,36062
" /> 
<polyline style="fill-rule:evenodd;"
points="66612,36062
66612,36772
65983,36772
65983,36062
66612,36062
" /> 
<polyline style="fill-rule:evenodd;"
points="65983,38347
65983,37637
66612,37637
66612,38347
65983,38347
" /> 
<polyline style="fill-rule:evenodd;"
points="64883,38347
64883,37637
65512,37637
65512,38347
64883,38347
" /> 
<polyline style="fill-rule:evenodd;"
points="52324,37637
52324,38347
51694,38347
51694,37637
52324,37637
" /> 
<polyline style="fill-rule:evenodd;"
points="53424,37637
53424,38347
52794,38347
52794,37637
53424,37637
" /> 
<polyline style="fill-rule:evenodd;"
points="52794,36772
52794,36062
53424,36062
53424,36772
52794,36772
" /> 
<polyline style="fill-rule:evenodd;"
points="51694,36772
51694,36062
52324,36062
52324,36772
51694,36772
" /> 
<circle cx="45456.7" cy="29118.1" r="499.961" /> 
<circle cx="45456.7" cy="31118.1" r="499.961" /> 
<circle cx="47456.7" cy="31118.1" r="499.961" /> 
<circle cx="47456.7" cy="29118.1" r="499.961" /> 
<circle cx="25393.7" cy="37992.1" r="314.921" /> 
<circle cx="25393.7" cy="20669.3" r="314.921" /> 
<circle cx="50000" cy="37204.7" r="314.921" /> 
<circle cx="51771.7" cy="21850.4" r="314.921" /> 
<circle cx="66929.1" cy="21850.4" r="314.921" /> 
<circle cx="47637.8" cy="37204.7" r="177.126" /> 
<circle cx="67126" cy="30511.8" r="177.126" /> 
<circle cx="50393.7" cy="31889.8" r="177.126" /> 
<circle cx="49606.3" cy="26574.8" r="177.126" /> 
<circle cx="49212.6" cy="31102.4" r="177.126" /> 
<circle cx="50787.4" cy="33464.6" r="177.126" /> 
<circle cx="67716.5" cy="33464.6" r="177.126" /> 
</g>
<g style="fill:#000000; fill-opacity:1.0; 
stroke:#000000; stroke-width:393.701; stroke-opacity:1; 
stroke-linecap:round; stroke-linejoin:round;">
<path d="M53109 37992
L53937 37992
" />
<path d="M54330 36791
L56102 35019
" />
<path d="M54330 37598
L54330 36791
" />
<path d="M53937 37992
L54330 37598
" />
<path d="M62204 23641
L62204 25000
" />
<path d="M63582 25787
L63582 27952
" />
<path d="M63188 25393
L63582 25787
" />
<path d="M62598 25393
L63188 25393
" />
<path d="M62204 25000
L62598 25393
" />
<path d="M65198 37992
L64370 37992
" />
<path d="M63976 36791
L62204 35019
" />
<path d="M63976 37598
L63976 36791
" />
<path d="M64370 37992
L63976 37598
" />
<path d="M56102 23641
L56102 25000
" />
<path d="M59448 25984
L59448 27952
" />
<path d="M59055 25590
L59448 25984
" />
<path d="M56692 25590
L59055 25590
" />
<path d="M56102 25000
L56692 25590
" />
<path d="M47456 31118
L47456 32733
" />
<path d="M47456 32733
L47637 32914
" />
<path d="M48425 32914
L47637 32914
" />
<path d="M45169 33948
L45169 33374
" />
<path d="M45628 32914
L47637 32914
" />
<path d="M45169 33374
L45628 32914
" />
<path d="M47637 35786
L48268 35786
" />
<path d="M49803 32676
L51574 32676
" />
<path d="M49803 32677
L49803 32676
" />
<path d="M49803 34251
L49803 32677
" />
<path d="M48268 35786
L49803 34251
" />
<path d="M54255 29452
L55233 29452
" />
<path d="M55233 29452
L55355 29330
" />
<path d="M47637 35786
L47637 37204
" />
<path d="M47637 35786
L46259 35786
" />
<path d="M46259 35786
L46169 35695
" />
<path d="M46169 35695
L46169 34948
" />
<path d="M46259 35786
L45709 35786
" />
<path d="M45169 36326
L45169 36811
" />
<path d="M45709 35786
L45169 36326
" />
<path d="M45472 23425
L45472 23425
" />
<path d="M44685 25803
L45562 26681
" />
<path d="M44685 24212
L44685 25803
" />
<path d="M45472 23425
L44685 24212
" />
<path d="M47456 29118
L47228 29118
" />
<path d="M46456 27574
L45562 26681
" />
<path d="M46456 28346
L46456 27574
" />
<path d="M47228 29118
L46456 28346
" />
<path d="M47456 29118
L47622 29118
" />
<path d="M47990 29487
L48622 29487
" />
<path d="M47622 29118
L47990 29487
" />
<path d="M49409 29487
L48622 29487
" />
</g>
<g style="fill:#000000; fill-opacity:1.0; 
stroke:#000000; stroke-width:314.961; stroke-opacity:1; 
stroke-linecap:round; stroke-linejoin:round;">
<path d="M67125 31102
L67125 30511
" />
</g>
<g style="fill:#000000; fill-opacity:1.0; 
stroke:#000000; stroke-width:393.701; stroke-opacity:1; 
stroke-linecap:round; stroke-linejoin:round;">
<path d="M51574 31298
L50984 31298
" />
<path d="M50984 31298
L50393 31889
" />
<path d="M49606 26574
L50393 26574
" />
<path d="M49565 26615
L49606 26574
" />
<path d="M48228 26615
L49565 26615
" />
<path d="M50515 26452
L51255 26452
" />
<path d="M50393 26574
L50515 26452
" />
<path d="M46562 25681
L46562 25181
" />
<path d="M46562 25181
L47334 24409
" />
<path d="M46562 25681
L46562 25737
" />
<path d="M46562 25737
L47440 26615
" />
<path d="M48228 26615
L47440 26615
" />
<path d="M60448 27952
L62582 27952
" />
</g>
<g style="fill:#000000; fill-opacity:1.0; 
stroke:#000000; stroke-width:314.961; stroke-opacity:1; 
stroke-linecap:round; stroke-linejoin:round;">
<path d="M63007 32874
L64960 32874
" />
<path d="M65198 32636
L65198 31889
" />
<path d="M64960 32874
L65198 32636
" />
<path d="M53502 31889
L53502 33505
" />
<path d="M53109 35786
L53109 36417
" />
<path d="M52952 35629
L53109 35786
" />
<path d="M52952 34055
L52952 35629
" />
<path d="M53502 33505
L52952 34055
" />
<path d="M53109 36417
L53109 37204
" />
</g>
<g style="fill:#000000; fill-opacity:1.0; 
stroke:#000000; stroke-width:393.701; stroke-opacity:1; 
stroke-linecap:round; stroke-linejoin:round;">
<path d="M48425 34014
L49172 34014
" />
<path d="M50040 28387
L48622 28387
" />
<path d="M50196 28543
L50040 28387
" />
<path d="M50196 30118
L50196 28543
" />
<path d="M49212 31102
L50196 30118
" />
<path d="M49212 33974
L49212 31102
" />
<path d="M49172 34014
L49212 33974
" />
<path d="M45562 25681
L45562 24712
" />
<path d="M46456 23465
L46890 23031
" />
<path d="M46456 23818
L46456 23465
" />
<path d="M45562 24712
L46456 23818
" />
<path d="M46890 23031
L46890 22006
" />
<path d="M46890 22006
L47440 21456
" />
<path d="M48622 28387
L48622 28109
" />
<path d="M48622 28109
L48228 27715
" />
<path d="M47440 27715
L48228 27715
" />
<path d="M49409 28387
L48622 28387
" />
<path d="M46169 33948
L47572 33948
" />
<path d="M47572 33948
L47637 34014
" />
<path d="M48425 34014
L47637 34014
" />
<path d="M48425 34014
L48425 34686
" />
<path d="M47637 34686
L48425 34686
" />
</g>
<g style="fill:#000000; fill-opacity:1.0; 
stroke:#000000; stroke-width:787.402; stroke-opacity:1; 
stroke-linecap:round; stroke-linejoin:round;">
<path d="M41220 27724
L39992 27724
" />
<path d="M39992 31724
L41220 31724
" />
<path d="M39566 31299
L39992 31724
" />
<path d="M39566 28149
L39566 31299
" />
<path d="M39992 27724
L39566 28149
" />
<path d="M41220 25724
L42062 25724
" />
<path d="M42062 25724
L45456 29118
" />
<path d="M41220 33724
L42850 33724
" />
<path d="M42850 33724
L45456 31118
" />
</g>
<g style="fill:#000000; fill-opacity:1.0; 
stroke:#000000; stroke-width:393.701; stroke-opacity:1; 
stroke-linecap:round; stroke-linejoin:round;">
<path d="M55471 32086
L55471 31536
" />
<path d="M57480 31299
L57480 32677
" />
<path d="M55708 31299
L57480 31299
" />
<path d="M55471 31536
L55708 31299
" />
<path d="M52255 29452
L52255 29814
" />
<path d="M54371 30946
L54371 32086
" />
<path d="M54330 30905
L54371 30946
" />
<path d="M53346 30905
L54330 30905
" />
<path d="M52255 29814
L53346 30905
" />
<path d="M54371 32874
L54371 32086
" />
<path d="M58448 27952
L58448 28740
" />
<path d="M58448 30314
L58464 30314
" />
<path d="M58448 28740
L58448 30314
" />
<path d="M55471 32874
L55471 33620
" />
<path d="M59251 30314
L58464 30314
" />
<path d="M58464 30314
L57874 30314
" />
<path d="M59251 33661
L59251 30314
" />
<path d="M55511 33661
L59251 33661
" />
<path d="M55471 33620
L55511 33661
" />
<path d="M53255 29452
L53255 29830
" />
<path d="M53740 30314
L57874 30314
" />
<path d="M53255 29830
L53740 30314
" />
</g>
<g style="fill:#000000; fill-opacity:1.0; 
stroke:#000000; stroke-width:787.402; stroke-opacity:1; 
stroke-linecap:round; stroke-linejoin:round;">
<path d="M26181 31647
L26181 33842
" />
</g>
<g style="fill:#000000; fill-opacity:1.0; 
stroke:#000000; stroke-width:393.701; stroke-opacity:1; 
stroke-linecap:round; stroke-linejoin:round;">
<path d="M45472 22637
L45472 21488
" />
<path d="M45472 21488
L45440 21456
" />
<path d="M49440 21456
L49440 22606
" />
<path d="M49440 22606
L49409 22637
" />
</g>
<g style="fill:#000000; fill-opacity:1.0; 
stroke:#000000; stroke-width:787.402; stroke-opacity:1; 
stroke-linecap:round; stroke-linejoin:round;">
<path d="M26181 23077
L26181 24015
" />
<path d="M27889 25724
L31220 25724
" />
<path d="M26181 24015
L27889 25724
" />
</g>
<g style="fill:#000000; fill-opacity:1.0; 
stroke:#000000; stroke-width:393.701; stroke-opacity:1; 
stroke-linecap:round; stroke-linejoin:round;">
<path d="M51968 35589
L50837 35589
" />
<path d="M50837 35589
L50787 35539
" />
<path d="M51968 35589
L51968 36376
" />
<path d="M51968 36376
L52009 36417
" />
<path d="M52009 36417
L52009 37204
" />
<path d="M52009 37992
L52009 37204
" />
</g>
<g style="fill:#000000; fill-opacity:1.0; 
stroke:#000000; stroke-width:314.961; stroke-opacity:1; 
stroke-linecap:round; stroke-linejoin:round;">
<path d="M62007 32874
L62007 33661
" />
<path d="M60039 31889
L60867 31889
" />
<path d="M60039 32086
L60039 31889
" />
<path d="M60039 33661
L60039 32086
" />
<path d="M62007 33661
L60039 33661
" />
</g>
<g style="fill:#000000; fill-opacity:1.0; 
stroke:#000000; stroke-width:393.701; stroke-opacity:1; 
stroke-linecap:round; stroke-linejoin:round;">
<path d="M66338 32676
L66338 31930
" />
<path d="M66338 31930
L66298 31889
" />
<path d="M67125 31890
L66298 31890
" />
<path d="M66298 31890
L66298 31889
" />
<path d="M64582 27952
L64582 28740
" />
<path d="M63935 30749
L64582 30102
" />
<path d="M64582 30102
L64582 28740
" />
<path d="M63935 30749
L63935 31889
" />
</g>
<g style="fill:#000000; fill-opacity:1.0; 
stroke:#000000; stroke-width:314.961; stroke-opacity:1; 
stroke-linecap:round; stroke-linejoin:round;">
<path d="M51574 33464
L50787 33464
" />
<path d="M50787 33464
L50787 33464
" />
</g>
<g style="fill:#000000; fill-opacity:1.0; 
stroke:#000000; stroke-width:393.701; stroke-opacity:1; 
stroke-linecap:round; stroke-linejoin:round;">
<path d="M51968 34489
L51968 33464
" />
<path d="M51968 33464
L51968 33464
" />
<path d="M51968 33464
L51968 33464
" />
<path d="M51574 33464
L51968 33464
" />
<path d="M51968 33464
L52362 33464
" />
<path d="M50787 34539
L51918 34539
" />
<path d="M51918 34539
L51968 34489
" />
</g>
<g style="fill:#000000; fill-opacity:1.0; 
stroke:#000000; stroke-width:314.961; stroke-opacity:1; 
stroke-linecap:round; stroke-linejoin:round;">
<path d="M66929 33464
L67716 33464
" />
<path d="M67716 33464
L67716 33464
" />
</g>
<g style="fill:#000000; fill-opacity:1.0; 
stroke:#000000; stroke-width:393.701; stroke-opacity:1; 
stroke-linecap:round; stroke-linejoin:round;">
<path d="M66338 33464
L66338 34489
" />
<path d="M66338 33464
L66929 33464
" />
<path d="M66338 34489
L67469 34489
" />
<path d="M67469 34489
L67519 34539
" />
</g>
<g style="fill:#000000; fill-opacity:1.0; 
stroke:#000000; stroke-width:314.961; stroke-opacity:1; 
stroke-linecap:round; stroke-linejoin:round;">
<path d="M62835 31889
L61967 31889
" />
</g>
<g style="fill:#000000; fill-opacity:1.0; 
stroke:#000000; stroke-width:787.402; stroke-opacity:1; 
stroke-linecap:round; stroke-linejoin:round;">
<path d="M31220 33724
L28874 33724
" />
<path d="M27740 35842
L26181 35842
" />
<path d="M28346 35236
L27740 35842
" />
<path d="M28346 34251
L28346 35236
" />
<path d="M28874 33724
L28346 34251
" />
</g>
<g style="fill:#000000; fill-opacity:1.0; 
stroke:#000000; stroke-width:393.701; stroke-opacity:1; 
stroke-linecap:round; stroke-linejoin:round;">
<path d="M48334 24409
L48334 23375
" />
<path d="M48334 23375
L47990 23031
" />
<path d="M66338 35589
L67469 35589
" />
<path d="M67469 35589
L67519 35539
" />
<path d="M66338 35589
L66338 36376
" />
<path d="M66338 36376
L66298 36417
" />
<path d="M66298 36417
L66298 37204
" />
<path d="M66298 37992
L66298 37204
" />
<path d="M46169 36811
L46169 37942
" />
<path d="M46169 37942
L46219 37992
" />
<path d="M51574 32086
L52205 32086
" />
<path d="M52205 32086
L52402 31889
" />
<path d="M52362 32676
L52362 31930
" />
<path d="M52362 31930
L52402 31889
" />
</g>
<g style="fill:#000000; fill-opacity:1.0; 
stroke:#000000; stroke-width:0.0787402; stroke-opacity:1; 
stroke-linecap:round; stroke-linejoin:round;">
<polyline style="fill-rule:evenodd;"
points="45565,25681
45562,25683
45560,25681
45562,25678
45565,25681
" /> 
</g>
<g style="fill:#000000; fill-opacity:0.0; 
stroke:#000000; stroke-width:196.85; stroke-opacity:1; 
stroke-linecap:round; stroke-linejoin:round;">
<polyline fill="none;"
points="45565,25681
45562,25683
45560,25681
45562,25678
45565,25681
" /> 
</g>
<g style="fill:#000000; fill-opacity:1.0; 
stroke:#000000; stroke-width:0.0787402; stroke-opacity:1; 
stroke-linecap:round; stroke-linejoin:round;">
<polyline style="fill-rule:evenodd;"
points="46171,33948
46169,33951
46169,33951
46167,33948
46169,33946
46171,33948
" /> 
</g>
<g style="fill:#000000; fill-opacity:0.0; 
stroke:#000000; stroke-width:196.85; stroke-opacity:1; 
stroke-linecap:round; stroke-linejoin:round;">
<polyline fill="none;"
points="46171,33948
46169,33951
46169,33951
46167,33948
46169,33946
46171,33948
" /> 
</g>
<g style="fill:#000000; fill-opacity:1.0; 
stroke:#000000; stroke-width:0.0787402; stroke-opacity:1; 
stroke-linecap:round; stroke-linejoin:round;">
<polyline style="fill-rule:evenodd;"
points="48374,22184
48335,22184
48335,21313
48212,20981
48175,20925
48030,20869
47443,21456
48030,22043
48175,21988
48322,21666
48335,21313
48335,22184
48208,22184
47974,22184
48027,22045
47440,21458
47438,21461
47438,21456
46851,20869
46706,20925
46559,21246
46546,21600
46668,21931
46706,21988
46851,22043
47438,21456
47438,21461
46853,22045
46909,22190
47230,22338
47314,22341
47274,22381
47265,22378
46967,22378
46892,22452
46892,22931
46892,23029
46892,23033
46889,23033
46889,23029
46889,22452
46814,22378
46516,22378
46407,22423
46323,22507
46277,22616
46277,22735
46277,22955
46352,23029
46889,23029
46889,23033
46790,23033
46352,23033
46277,23107
46277,23327
46277,23446
46323,23555
46407,23639
46516,23684
46806,23684
46584,23907
46449,24232
46449,24320
46075,24693
45926,24917
45888,25109
45871,25126
45848,25181
45697,25112
45469,25103
45374,25139
45374,24497
45796,24075
45825,24075
46006,24000
46145,23862
46220,23681
46220,23485
46220,23170
46163,23031
46220,22893
46220,22697
46220,22382
46169,22259
46358,22070
46523,21672
46523,21242
46359,20844
46282,20767
46892,20767
46853,20867
47440,21454
48027,20867
47989,20767
48358,20767
48358,20767
48358,20963
48358,22144
48374,22184
" /> 
</g>
<g style="fill:#000000; fill-opacity:0.0; 
stroke:#000000; stroke-width:196.85; stroke-opacity:1; 
stroke-linecap:round; stroke-linejoin:round;">
<polyline fill="none;"
points="48374,22184
48335,22184
48335,21313
48212,20981
48175,20925
48030,20869
47443,21456
48030,22043
48175,21988
48322,21666
48335,21313
48335,22184
48208,22184
47974,22184
48027,22045
47440,21458
47438,21461
47438,21456
46851,20869
46706,20925
46559,21246
46546,21600
46668,21931
46706,21988
46851,22043
47438,21456
47438,21461
46853,22045
46909,22190
47230,22338
47314,22341
47274,22381
47265,22378
46967,22378
46892,22452
46892,22931
46892,23029
46892,23033
46889,23033
46889,23029
46889,22452
46814,22378
46516,22378
46407,22423
46323,22507
46277,22616
46277,22735
46277,22955
46352,23029
46889,23029
46889,23033
46790,23033
46352,23033
46277,23107
46277,23327
46277,23446
46323,23555
46407,23639
46516,23684
46806,23684
46584,23907
46449,24232
46449,24320
46075,24693
45926,24917
45888,25109
45871,25126
45848,25181
45697,25112
45469,25103
45374,25139
45374,24497
45796,24075
45825,24075
46006,24000
46145,23862
46220,23681
46220,23485
46220,23170
46163,23031
46220,22893
46220,22697
46220,22382
46169,22259
46358,22070
46523,21672
46523,21242
46359,20844
46282,20767
46892,20767
46853,20867
47440,21454
48027,20867
47989,20767
48358,20767
48358,20767
48358,20963
48358,22144
48374,22184
" /> 
</g>
<g style="fill:#000000; fill-opacity:1.0; 
stroke:#000000; stroke-width:0.0787402; stroke-opacity:1; 
stroke-linecap:round; stroke-linejoin:round;">
<polyline style="fill-rule:evenodd;"
points="48477,34603
48423,34657
48423,34553
48423,34016
48216,34016
47846,34016
47639,34016
47639,34147
47639,34553
47639,34684
48216,34684
48273,34628
48349,34627
48423,34553
48423,34657
48291,34789
48291,34762
48216,34687
47737,34687
47639,34687
47636,34687
47636,34684
47636,34553
47636,34147
47636,34016
47058,34016
46984,34090
46984,34312
46984,34312
46984,34350
46984,34388
46984,34388
46984,34610
47058,34684
47636,34684
47636,34687
47537,34687
47058,34687
46984,34762
46984,35060
46988,35069
46960,35097
46936,35097
46936,34576
46861,34395
46723,34256
46669,34234
46738,34083
46746,33855
46666,33641
46647,33612
46652,33607
46648,33603
46960,33603
46988,33631
46984,33640
46984,33938
47058,34012
47537,34012
47636,34012
47639,34012
47737,34012
47846,34012
48216,34012
48325,34012
48423,34012
48426,34012
48426,34016
48426,34114
48426,34553
48477,34603
" /> 
</g>
<g style="fill:#000000; fill-opacity:0.0; 
stroke:#000000; stroke-width:196.85; stroke-opacity:1; 
stroke-linecap:round; stroke-linejoin:round;">
<polyline fill="none;"
points="48477,34603
48423,34657
48423,34553
48423,34016
48216,34016
47846,34016
47639,34016
47639,34147
47639,34553
47639,34684
48216,34684
48273,34628
48349,34627
48423,34553
48423,34657
48291,34789
48291,34762
48216,34687
47737,34687
47639,34687
47636,34687
47636,34684
47636,34553
47636,34147
47636,34016
47058,34016
46984,34090
46984,34312
46984,34312
46984,34350
46984,34388
46984,34388
46984,34610
47058,34684
47636,34684
47636,34687
47537,34687
47058,34687
46984,34762
46984,35060
46988,35069
46960,35097
46936,35097
46936,34576
46861,34395
46723,34256
46669,34234
46738,34083
46746,33855
46666,33641
46647,33612
46652,33607
46648,33603
46960,33603
46988,33631
46984,33640
46984,33938
47058,34012
47537,34012
47636,34012
47639,34012
47737,34012
47846,34012
48216,34012
48325,34012
48423,34012
48426,34012
48426,34016
48426,34114
48426,34553
48477,34603
" /> 
</g>
<g style="fill:#000000; fill-opacity:1.0; 
stroke:#000000; stroke-width:0.0787402; stroke-opacity:1; 
stroke-linecap:round; stroke-linejoin:round;">
<polyline style="fill-rule:evenodd;"
points="55471,34342
55318,34494
55180,34826
55037,34439
54991,34370
54825,34290
54823,34292
54823,34288
54743,34123
54351,33942
53919,33926
53514,34076
53445,34123
53365,34288
54094,35017
54823,34288
54823,34292
54166,34950
54096,35019
54094,35021
54092,35019
54022,34950
53363,34290
53197,34370
53017,34762
53001,35194
53151,35599
53197,35669
53269,35703
53242,35730
53275,35763
53185,35763
53110,35838
53110,36415
53647,36415
53722,36341
53722,36121
53722,36043
53837,36096
54043,36104
53843,36304
53719,36490
53647,36418
53110,36418
53110,36625
53110,36996
53110,37104
53110,37144
53107,37144
53107,37104
53107,36996
53107,36625
53107,36517
53107,36418
53107,36415
53107,36317
53107,35838
53032,35763
52815,35763
52815,35176
52758,35039
52815,34902
52815,34706
52815,34076
52814,34073
52896,34039
53035,33901
53110,33720
53110,33524
53110,33209
53052,33070
53110,32932
53110,32736
53110,32548
53119,32539
53128,32543
53426,32543
53501,32468
53501,31989
53501,31891
53501,31888
53504,31888
53504,31891
53504,31989
53504,32468
53564,32528
53564,32539
53564,32539
53564,32616
53564,33326
53638,33507
53777,33645
53957,33721
54153,33721
54783,33721
54800,33714
54834,33884
54984,34108
55024,34148
55024,34148
55248,34297
55248,34297
55471,34342
" /> 
</g>
<g style="fill:#000000; fill-opacity:0.0; 
stroke:#000000; stroke-width:196.85; stroke-opacity:1; 
stroke-linecap:round; stroke-linejoin:round;">
<polyline fill="none;"
points="55471,34342
55318,34494
55180,34826
55037,34439
54991,34370
54825,34290
54823,34292
54823,34288
54743,34123
54351,33942
53919,33926
53514,34076
53445,34123
53365,34288
54094,35017
54823,34288
54823,34292
54166,34950
54096,35019
54094,35021
54092,35019
54022,34950
53363,34290
53197,34370
53017,34762
53001,35194
53151,35599
53197,35669
53269,35703
53242,35730
53275,35763
53185,35763
53110,35838
53110,36415
53647,36415
53722,36341
53722,36121
53722,36043
53837,36096
54043,36104
53843,36304
53719,36490
53647,36418
53110,36418
53110,36625
53110,36996
53110,37104
53110,37144
53107,37144
53107,37104
53107,36996
53107,36625
53107,36517
53107,36418
53107,36415
53107,36317
53107,35838
53032,35763
52815,35763
52815,35176
52758,35039
52815,34902
52815,34706
52815,34076
52814,34073
52896,34039
53035,33901
53110,33720
53110,33524
53110,33209
53052,33070
53110,32932
53110,32736
53110,32548
53119,32539
53128,32543
53426,32543
53501,32468
53501,31989
53501,31891
53501,31888
53504,31888
53504,31891
53504,31989
53504,32468
53564,32528
53564,32539
53564,32539
53564,32616
53564,33326
53638,33507
53777,33645
53957,33721
54153,33721
54783,33721
54800,33714
54834,33884
54984,34108
55024,34148
55024,34148
55248,34297
55248,34297
55471,34342
" /> 
</g>
<g style="fill:#000000; fill-opacity:1.0; 
stroke:#000000; stroke-width:0.0787402; stroke-opacity:1; 
stroke-linecap:round; stroke-linejoin:round;">
<polyline style="fill-rule:evenodd;"
points="56481,32678
56478,32678
56478,32675
56481,32675
56481,32678
" /> 
</g>
<g style="fill:#000000; fill-opacity:0.0; 
stroke:#000000; stroke-width:196.85; stroke-opacity:1; 
stroke-linecap:round; stroke-linejoin:round;">
<polyline fill="none;"
points="56481,32678
56478,32678
56478,32675
56481,32675
56481,32678
" /> 
</g>
<g style="fill:#000000; fill-opacity:1.0; 
stroke:#000000; stroke-width:0.0787402; stroke-opacity:1; 
stroke-linecap:round; stroke-linejoin:round;">
<polyline style="fill-rule:evenodd;"
points="63827,38424
62933,38424
62933,37758
62204,37029
62202,37032
62202,37027
61473,36298
61308,36378
61127,36770
61111,37202
61261,37607
61308,37677
61473,37756
62202,37027
62202,37032
61475,37758
61555,37924
61947,38104
62379,38120
62784,37970
62854,37924
62933,37758
62933,38424
60925,38424
60925,35750
60196,35021
59467,35750
59547,35916
59939,36096
60371,36112
60776,35962
60846,35916
60925,35750
60925,38424
58839,38424
58839,35750
58110,35021
57381,35750
57460,35916
57853,36096
58284,36112
58690,35962
58759,35916
58839,35750
58839,38424
57195,38424
57195,36852
57045,36447
56998,36378
56833,36298
56104,37027
56833,37756
56998,37677
57179,37284
57195,36852
57195,38424
56831,38424
56831,37758
56102,37029
55373,37758
55452,37924
55845,38104
56277,38120
56682,37970
56751,37924
56831,37758
56831,38424
54479,38424
54817,38085
54817,38085
54817,38085
54967,37862
55019,37598
55019,37230
55159,37607
55205,37677
55371,37756
56030,37097
56100,37027
56102,37025
56171,36955
56171,36955
56831,36296
56751,36130
56359,35950
56208,35944
56285,35945
56625,35804
56886,35544
57023,35212
57167,35599
57213,35669
57379,35748
58038,35089
58038,35089
58108,35019
58110,35017
58112,35019
58182,35089
58841,35748
59006,35669
59157,35340
59253,35599
59300,35669
59465,35748
60125,35089
60194,35019
60196,35017
60196,35017
60199,35019
60268,35089
60928,35748
61093,35669
61273,35276
61279,35125
61279,35202
61419,35543
61679,35803
62011,35941
61624,36084
61555,36130
61475,36296
62135,36955
62135,36955
62204,37025
62206,37027
62276,37097
62935,37756
63101,37677
63281,37284
63287,37131
63287,37598
63339,37862
63489,38085
63827,38424
" /> 
</g>
<g style="fill:#000000; fill-opacity:0.0; 
stroke:#000000; stroke-width:196.85; stroke-opacity:1; 
stroke-linecap:round; stroke-linejoin:round;">
<polyline fill="none;"
points="63827,38424
62933,38424
62933,37758
62204,37029
62202,37032
62202,37027
61473,36298
61308,36378
61127,36770
61111,37202
61261,37607
61308,37677
61473,37756
62202,37027
62202,37032
61475,37758
61555,37924
61947,38104
62379,38120
62784,37970
62854,37924
62933,37758
62933,38424
60925,38424
60925,35750
60196,35021
59467,35750
59547,35916
59939,36096
60371,36112
60776,35962
60846,35916
60925,35750
60925,38424
58839,38424
58839,35750
58110,35021
57381,35750
57460,35916
57853,36096
58284,36112
58690,35962
58759,35916
58839,35750
58839,38424
57195,38424
57195,36852
57045,36447
56998,36378
56833,36298
56104,37027
56833,37756
56998,37677
57179,37284
57195,36852
57195,38424
56831,38424
56831,37758
56102,37029
55373,37758
55452,37924
55845,38104
56277,38120
56682,37970
56751,37924
56831,37758
56831,38424
54479,38424
54817,38085
54817,38085
54817,38085
54967,37862
55019,37598
55019,37230
55159,37607
55205,37677
55371,37756
56030,37097
56100,37027
56102,37025
56171,36955
56171,36955
56831,36296
56751,36130
56359,35950
56208,35944
56285,35945
56625,35804
56886,35544
57023,35212
57167,35599
57213,35669
57379,35748
58038,35089
58038,35089
58108,35019
58110,35017
58112,35019
58182,35089
58841,35748
59006,35669
59157,35340
59253,35599
59300,35669
59465,35748
60125,35089
60194,35019
60196,35017
60196,35017
60199,35019
60268,35089
60928,35748
61093,35669
61273,35276
61279,35125
61279,35202
61419,35543
61679,35803
62011,35941
61624,36084
61555,36130
61475,36296
62135,36955
62135,36955
62204,37025
62206,37027
62276,37097
62935,37756
63101,37677
63281,37284
63287,37131
63287,37598
63339,37862
63489,38085
63827,38424
" /> 
</g>
<g style="fill:#000000; fill-opacity:1.0; 
stroke:#000000; stroke-width:0.0787402; stroke-opacity:1; 
stroke-linecap:round; stroke-linejoin:round;">
<polyline style="fill-rule:evenodd;"
points="67754,30281
67736,30236
67736,21690
67613,21393
67386,21166
67090,21043
66769,21043
66472,21165
66245,21392
66122,21689
66121,22010
66244,22306
66471,22534
66767,22657
67088,22657
67385,22535
67612,22308
67736,22011
67736,21690
67736,30236
67693,30133
67505,29944
67259,29842
66993,29842
66747,29944
66558,30132
66456,30378
66456,30644
66461,30656
66453,30665
66377,30846
66377,31042
66377,31042
65885,31042
65704,31117
65581,31240
65572,31236
65274,31236
65199,31310
65199,31789
65199,31888
65199,31891
65199,31989
65199,32468
65274,32543
65572,32543
65581,32539
65590,32548
65590,32616
65590,32931
65647,33070
65590,33209
65590,33404
65590,33719
65634,33827
65566,33895
65491,34076
65491,34271
65491,34901
65548,35039
65491,35176
65491,35371
65491,35763
65305,35763
65274,35763
65199,35838
65199,36317
65199,36415
65199,36418
65199,36517
65199,36625
65199,36996
65199,37104
65199,37144
65196,37144
65196,37104
65196,36996
65196,36625
65196,36418
64659,36418
64587,36490
64463,36304
64267,36108
64387,36112
64584,36039
64584,36121
64584,36341
64659,36415
65196,36415
65196,35838
65121,35763
65031,35763
65064,35730
65037,35703
65109,35669
65289,35276
65305,34844
65155,34439
65109,34370
64943,34290
64941,34292
64941,34288
64862,34123
64469,33942
64037,33926
63632,34076
63606,34094
63606,33008
63606,32875
63009,32875
63009,33530
63103,33597
63235,33560
63429,33431
63560,33237
63606,33008
63606,34094
63563,34123
63483,34288
64212,35017
64941,34288
64941,34292
64284,34950
64214,35019
64212,35021
64210,35019
64140,34950
63481,34290
63316,34370
63135,34762
63130,34913
63130,34836
62989,34496
62729,34235
62461,34124
62467,34120
62608,33910
62657,33661
62657,33478
62780,33560
62912,33597
63006,33530
63006,32974
63006,32875
63006,32872
63009,32872
63107,32872
63606,32872
63606,32739
63605,32736
63718,32736
64348,32736
64529,32662
64667,32523
64689,32472
64714,32497
64823,32543
65121,32543
65196,32468
65196,31989
65196,31891
65196,31888
65196,31789
65196,31310
65121,31236
64823,31236
64714,31281
64689,31306
64668,31256
64624,31212
64624,31034
65069,30589
65069,30589
65069,30589
65219,30366
65219,30366
65261,30154
65271,30102
65271,30102
65271,30102
65271,28740
65271,28427
65310,28369
65370,28068
65370,27837
65310,27535
65305,27529
65305,23466
65155,23061
65109,22992
64943,22912
64941,22914
64941,22910
64862,22745
64469,22564
64037,22548
63632,22698
63563,22745
63483,22910
64212,23639
64941,22910
64941,22914
64214,23641
64943,24370
65109,24291
65289,23898
65305,23466
65305,27529
65139,27280
64941,27148
64941,24372
64212,23643
63483,24372
63563,24538
63955,24718
64387,24734
64792,24584
64862,24538
64941,24372
64941,27148
64884,27109
64582,27049
64281,27109
64271,27116
64271,25787
64219,25523
64069,25300
64069,25300
63676,24906
63452,24757
63188,24704
62893,24704
62893,24261
62988,24166
63126,23835
63269,24221
63316,24291
63481,24370
64210,23641
63481,22912
63316,22992
63297,23031
63297,21459
63147,21054
63101,20984
62935,20904
62206,21633
62935,22362
63101,22283
63281,21890
63297,21459
63297,23031
63135,23384
63130,23535
63130,23458
62989,23118
62729,22857
62398,22720
62784,22576
62854,22530
62933,22365
62204,21636
62202,21638
62202,21633
61473,20904
61308,20984
61127,21376
61111,21808
61261,22213
61308,22283
61473,22362
62202,21633
62202,21638
61475,22365
61555,22530
61947,22710
62098,22716
62021,22716
61681,22856
61420,23116
61283,23448
61139,23061
61093,22992
60928,22912
60925,22914
60925,22910
60846,22745
60453,22564
60022,22548
59617,22698
59547,22745
59467,22910
60196,23639
60925,22910
60925,22914
60199,23641
60928,24370
61093,24291
61273,23898
61279,23747
61279,23824
61419,24165
61515,24261
61515,25000
61568,25263
61717,25487
62111,25880
62111,25880
62334,26030
62598,26082
62893,26082
62893,27362
62808,27305
62677,27268
62584,27335
62584,27852
62584,27951
62584,27954
62584,28052
62584,28570
62677,28637
62808,28600
62947,28507
63025,28625
63281,28795
63582,28855
63884,28795
63893,28789
63893,29816
63448,30262
63299,30485
63246,30749
63246,31042
63053,31042
62581,31042
62581,28570
62581,27954
62581,27951
62581,27335
62488,27268
62356,27305
62163,27433
62034,27626
61988,27853
61988,27951
62581,27951
62581,27954
61988,27954
61988,28052
62034,28279
62163,28471
62356,28600
62488,28637
62581,28570
62581,31042
62423,31042
62401,31051
62380,31042
62184,31042
61554,31042
61417,31099
61280,31042
61084,31042
61042,31042
61042,28052
61042,27954
61042,27951
61042,27853
60996,27626
60925,27520
60925,24372
60196,23643
60194,23646
60194,23641
59465,22912
59300,22992
59149,23320
59053,23061
59006,22992
58841,22912
58839,22914
58839,22910
58759,22745
58367,22564
57935,22548
57530,22698
57460,22745
57381,22910
58110,23639
58839,22910
58839,22914
58112,23641
58841,24370
59006,24291
59157,23962
59253,24221
59300,24291
59465,24370
60194,23641
60194,23646
59467,24372
59547,24538
59939,24718
60371,24734
60776,24584
60846,24538
60925,24372
60925,27520
60867,27433
60674,27305
60543,27268
60450,27335
60450,27951
61042,27951
61042,27954
60450,27954
60450,28570
60543,28637
60674,28600
60867,28471
60996,28279
61042,28052
61042,31042
60454,31042
60273,31117
60150,31240
60039,31240
59940,31259
59940,30314
59888,30051
59739,29827
59515,29678
59251,29625
59137,29625
59137,28789
59147,28795
59448,28855
59750,28795
60005,28625
60084,28507
60222,28600
60354,28637
60447,28570
60447,28052
60447,27954
60447,27951
60447,27852
60447,27335
60354,27268
60222,27305
60137,27362
60137,25984
60085,25720
59935,25497
59935,25497
59542,25103
59318,24954
59055,24901
58839,24901
58839,24372
58110,23643
57381,24372
57460,24538
57853,24718
58284,24734
58690,24584
58759,24538
58839,24372
58839,24901
56978,24901
56791,24714
56791,24261
56886,24166
57023,23835
57167,24221
57213,24291
57379,24370
58108,23641
57379,22912
57213,22992
57195,23031
57195,21459
57045,21054
56998,20984
56833,20904
56104,21633
56833,22362
56998,22283
57179,21890
57195,21459
57195,23031
57033,23384
57027,23535
57027,23458
56887,23118
56627,22857
56295,22720
56682,22576
56751,22530
56831,22365
56102,21636
56100,21638
56100,21633
55371,20904
55205,20984
55025,21376
55009,21808
55159,22213
55205,22283
55371,22362
56100,21633
56100,21638
55373,22365
55452,22530
55845,22710
55996,22716
55919,22716
55578,22856
55318,23116
55180,23448
55037,23061
54991,22992
54825,22912
54823,22914
54823,22910
54743,22745
54351,22564
53919,22548
53514,22698
53445,22745
53365,22910
54094,23639
54823,22910
54823,22914
54096,23641
54825,24370
54991,24291
55171,23898
55177,23747
55177,23824
55317,24165
55413,24261
55413,25000
55465,25263
55615,25487
56205,26077
56429,26227
56692,26279
58759,26279
58759,27116
58750,27109
58448,27049
58147,27109
57891,27280
57721,27535
57661,27837
57661,28068
57721,28369
57759,28427
57759,28740
57759,29625
57068,29625
57068,29034
57068,28916
57023,28806
56939,28722
56829,28677
56531,28677
56457,28751
56457,29329
56994,29329
57068,29254
57068,29034
57068,29625
57068,29625
57068,29406
56994,29332
56555,29332
56457,29332
56453,29332
56453,29329
56453,29230
56453,28751
56379,28677
56081,28677
56071,28681
55949,28558
55768,28483
55573,28483
54943,28483
54762,28558
54623,28696
54595,28763
54409,28685
54103,28685
53821,28802
53755,28867
53691,28802
53409,28685
53103,28685
52821,28802
52755,28867
52691,28802
52409,28685
52103,28685
51821,28802
51755,28867
51691,28802
51409,28685
51103,28685
50821,28802
50605,29017
50488,29299
50488,29604
50605,29886
50820,30102
51102,30219
51407,30220
51647,30120
51768,30302
52509,31042
52322,31042
52248,30863
52109,30724
51929,30649
51772,30649
51574,30609
50984,30609
50720,30662
50497,30811
49906,31402
49850,31486
49826,31510
49813,31541
49757,31626
49737,31724
49724,31756
49724,31790
49704,31889
49724,31988
49724,32003
49724,32003
49539,32040
49316,32189
49316,32189
49315,32189
49209,32349
49197,32321
49059,32182
48878,32107
48682,32107
48145,32107
48145,31832
48297,31680
48448,31316
48448,30921
48298,30556
48019,30277
47654,30126
47260,30125
46895,30276
46616,30555
46464,30919
46464,31314
46615,31679
46767,31832
46767,32225
45628,32225
45595,32232
45762,32065
46017,31959
46297,31680
46448,31316
46448,30921
46298,30556
46019,30277
45654,30126
45260,30125
44895,30276
44616,30555
44509,30812
42483,32838
42027,32838
42027,29564
41905,29267
41837,29200
41837,27625
41752,27396
41727,27358
41611,27336
41608,27338
41608,27333
41586,27217
41364,27115
41121,27106
40892,27191
40854,27217
40832,27333
41220,27722
41608,27333
41608,27338
41222,27724
41611,28112
41727,28090
41828,27868
41837,27625
41837,29200
41678,29040
41608,29011
41608,28114
41220,27726
41218,27728
41218,27724
40829,27336
40713,27358
40611,27579
40603,27823
40688,28052
40713,28090
40829,28112
41218,27724
41218,27728
40832,28114
40854,28231
41076,28332
41319,28341
41548,28256
41586,28231
41608,28114
41608,29011
41381,28917
41060,28917
40763,29039
40536,29266
40413,29563
40413,29884
40535,30180
40762,30408
41059,30531
41380,30531
41677,30409
41904,30182
42027,29885
42027,29564
42027,32838
41837,32838
41837,31625
41752,31396
41727,31358
41611,31336
41608,31338
41608,31333
41586,31217
41364,31115
41121,31106
40892,31191
40854,31217
40832,31333
41220,31722
41608,31333
41608,31338
41222,31724
41611,32112
41727,32090
41828,31868
41837,31625
41837,32838
41608,32838
41608,32114
41220,31726
41218,31728
41218,31724
40829,31336
40713,31358
40611,31579
40603,31823
40688,32052
40713,32090
40829,32112
41218,31724
41218,31728
40832,32114
40854,32231
41076,32332
41319,32341
41548,32256
41586,32231
41608,32114
41608,32838
41220,32838
40881,32906
40594,33098
40402,33385
40334,33724
40402,34063
40594,34350
40881,34542
41220,34610
42850,34610
43189,34542
43476,34350
44486,33340
44480,33374
44480,33607
44402,33795
44402,34100
44518,34382
44734,34598
45016,34715
45321,34716
45402,34682
45402,34771
45402,35179
45222,35299
44682,35839
44532,36063
44500,36227
44418,36308
44283,36634
44283,36986
44418,37312
44562,37456
44551,37467
44505,37577
44505,37696
44505,37915
44580,37990
45019,37990
45117,37990
45120,37990
45120,37993
45117,37993
45019,37993
44580,37993
44505,38068
44505,38288
44505,38406
44513,38424
42145,38424
42145,36430
42005,36090
41745,35830
41405,35689
41037,35688
40697,35829
40436,36089
40295,36429
40295,36797
40435,37137
40695,37398
41035,37539
41403,37539
41743,37398
42004,37138
42145,36799
42145,36430
42145,38424
38877,38424
38877,20767
44598,20767
44523,20842
44358,21240
44358,21671
44522,22069
44756,22303
44724,22381
44724,22577
44724,22892
44781,23031
44724,23169
44724,23198
44197,23725
44048,23948
43996,24212
43996,25803
44048,26066
44197,26290
44834,26927
44912,27115
45127,27331
45317,27409
45767,27860
45767,28173
45761,28170
42689,25098
42401,24906
42145,24855
42145,22651
42005,22311
41745,22050
41405,21909
41037,21909
40697,22049
40436,22309
40295,22649
40295,23017
40435,23358
40695,23618
41035,23759
41403,23760
41743,23619
42004,23359
42145,23019
42145,22651
42145,24855
42062,24838
41220,24838
40881,24906
40594,25098
40402,25385
40334,25724
40402,26063
40594,26350
40881,26542
41220,26610
41696,26610
44509,29423
44615,29679
44893,29958
45258,30110
45653,30110
46017,29959
46297,29680
46448,29316
46448,29312
46474,29338
46615,29679
46893,29958
47258,30110
47653,30110
47686,30096
47727,30123
47933,30164
47987,30218
48168,30294
48364,30294
49074,30294
49074,30294
49151,30294
49861,30294
50042,30219
50181,30081
50256,29900
50256,29704
50256,29074
50181,28893
50059,28770
50062,28761
50062,28012
50017,27903
49933,27819
49824,27773
49705,27773
49485,27773
49411,27848
49411,28385
49988,28385
50062,28310
50062,28012
50062,28761
50062,28463
49988,28388
49509,28388
49411,28388
49407,28388
49309,28388
49200,28388
48830,28388
48722,28388
48623,28388
48620,28388
48620,28385
48623,28385
48722,28385
48830,28385
49200,28385
49407,28385
49407,27848
49333,27773
49113,27773
49015,27773
48917,27773
48863,27773
48807,27716
48328,27716
48229,27716
48226,27716
48128,27716
48019,27716
47649,27716
47540,27716
47442,27716
47439,27716
47439,27713
47442,27713
47540,27713
47649,27713
48019,27713
48128,27713
48226,27713
48229,27713
48328,27713
48807,27713
48881,27639
48881,27341
48877,27331
48905,27304
49565,27304
49769,27263
50393,27263
50657,27211
50761,27141
50914,27141
51102,27219
51407,27220
51689,27103
51755,27037
51820,27102
52102,27219
52407,27220
52689,27103
52755,27037
52820,27102
53102,27219
53407,27220
53669,27112
53701,27144
53882,27219
54078,27219
54628,27219
54809,27145
54947,27006
55022,26826
55023,26630
55023,26080
54948,25899
54823,25774
54823,24372
54094,23643
54092,23646
54092,23641
53363,22912
53197,22992
53017,23384
53001,23816
53151,24221
53197,24291
53363,24370
54092,23641
54092,23646
53365,24372
53445,24538
53837,24718
54269,24734
54674,24584
54743,24538
54823,24372
54823,25774
54810,25760
54629,25685
54433,25685
53883,25685
53702,25760
53669,25793
53409,25685
53103,25685
52821,25802
52755,25867
52691,25802
52578,25756
52578,21690
52456,21393
52229,21166
51932,21043
51611,21043
51315,21165
51087,21392
50964,21689
50964,22010
51087,22306
51313,22534
51610,22657
51931,22657
52228,22535
52455,22308
52578,22011
52578,21690
52578,25756
52409,25685
52103,25685
51821,25802
51755,25867
51691,25802
51409,25685
51103,25685
50914,25763
50515,25763
50252,25816
50147,25885
49606,25885
49507,25905
49473,25905
49442,25918
49402,25926
48905,25926
48862,25883
48681,25808
48485,25808
47775,25808
47775,25808
47698,25808
47608,25808
47330,25530
47330,25388
47423,25295
47510,25295
47835,25160
48157,25294
48510,25295
48835,25160
49085,24911
49220,24586
49220,24234
49154,24075
49250,24075
49762,24075
49943,24000
50082,23862
50157,23681
50157,23485
50157,23170
50100,23031
50157,22893
50157,22697
50157,22527
50309,22464
50448,22326
50523,22145
50523,21949
50523,20768
50523,20767
55438,20767
55373,20902
56102,21631
56831,20902
56766,20767
61540,20767
61475,20902
62204,21631
62933,20902
62868,20767
67754,20767
67754,30281
" /> 
</g>
<g style="fill:#000000; fill-opacity:0.0; 
stroke:#000000; stroke-width:196.85; stroke-opacity:1; 
stroke-linecap:round; stroke-linejoin:round;">
<polyline fill="none;"
points="67754,30281
67736,30236
67736,21690
67613,21393
67386,21166
67090,21043
66769,21043
66472,21165
66245,21392
66122,21689
66121,22010
66244,22306
66471,22534
66767,22657
67088,22657
67385,22535
67612,22308
67736,22011
67736,21690
67736,30236
67693,30133
67505,29944
67259,29842
66993,29842
66747,29944
66558,30132
66456,30378
66456,30644
66461,30656
66453,30665
66377,30846
66377,31042
66377,31042
65885,31042
65704,31117
65581,31240
65572,31236
65274,31236
65199,31310
65199,31789
65199,31888
65199,31891
65199,31989
65199,32468
65274,32543
65572,32543
65581,32539
65590,32548
65590,32616
65590,32931
65647,33070
65590,33209
65590,33404
65590,33719
65634,33827
65566,33895
65491,34076
65491,34271
65491,34901
65548,35039
65491,35176
65491,35371
65491,35763
65305,35763
65274,35763
65199,35838
65199,36317
65199,36415
65199,36418
65199,36517
65199,36625
65199,36996
65199,37104
65199,37144
65196,37144
65196,37104
65196,36996
65196,36625
65196,36418
64659,36418
64587,36490
64463,36304
64267,36108
64387,36112
64584,36039
64584,36121
64584,36341
64659,36415
65196,36415
65196,35838
65121,35763
65031,35763
65064,35730
65037,35703
65109,35669
65289,35276
65305,34844
65155,34439
65109,34370
64943,34290
64941,34292
64941,34288
64862,34123
64469,33942
64037,33926
63632,34076
63606,34094
63606,33008
63606,32875
63009,32875
63009,33530
63103,33597
63235,33560
63429,33431
63560,33237
63606,33008
63606,34094
63563,34123
63483,34288
64212,35017
64941,34288
64941,34292
64284,34950
64214,35019
64212,35021
64210,35019
64140,34950
63481,34290
63316,34370
63135,34762
63130,34913
63130,34836
62989,34496
62729,34235
62461,34124
62467,34120
62608,33910
62657,33661
62657,33478
62780,33560
62912,33597
63006,33530
63006,32974
63006,32875
63006,32872
63009,32872
63107,32872
63606,32872
63606,32739
63605,32736
63718,32736
64348,32736
64529,32662
64667,32523
64689,32472
64714,32497
64823,32543
65121,32543
65196,32468
65196,31989
65196,31891
65196,31888
65196,31789
65196,31310
65121,31236
64823,31236
64714,31281
64689,31306
64668,31256
64624,31212
64624,31034
65069,30589
65069,30589
65069,30589
65219,30366
65219,30366
65261,30154
65271,30102
65271,30102
65271,30102
65271,28740
65271,28427
65310,28369
65370,28068
65370,27837
65310,27535
65305,27529
65305,23466
65155,23061
65109,22992
64943,22912
64941,22914
64941,22910
64862,22745
64469,22564
64037,22548
63632,22698
63563,22745
63483,22910
64212,23639
64941,22910
64941,22914
64214,23641
64943,24370
65109,24291
65289,23898
65305,23466
65305,27529
65139,27280
64941,27148
64941,24372
64212,23643
63483,24372
63563,24538
63955,24718
64387,24734
64792,24584
64862,24538
64941,24372
64941,27148
64884,27109
64582,27049
64281,27109
64271,27116
64271,25787
64219,25523
64069,25300
64069,25300
63676,24906
63452,24757
63188,24704
62893,24704
62893,24261
62988,24166
63126,23835
63269,24221
63316,24291
63481,24370
64210,23641
63481,22912
63316,22992
63297,23031
63297,21459
63147,21054
63101,20984
62935,20904
62206,21633
62935,22362
63101,22283
63281,21890
63297,21459
63297,23031
63135,23384
63130,23535
63130,23458
62989,23118
62729,22857
62398,22720
62784,22576
62854,22530
62933,22365
62204,21636
62202,21638
62202,21633
61473,20904
61308,20984
61127,21376
61111,21808
61261,22213
61308,22283
61473,22362
62202,21633
62202,21638
61475,22365
61555,22530
61947,22710
62098,22716
62021,22716
61681,22856
61420,23116
61283,23448
61139,23061
61093,22992
60928,22912
60925,22914
60925,22910
60846,22745
60453,22564
60022,22548
59617,22698
59547,22745
59467,22910
60196,23639
60925,22910
60925,22914
60199,23641
60928,24370
61093,24291
61273,23898
61279,23747
61279,23824
61419,24165
61515,24261
61515,25000
61568,25263
61717,25487
62111,25880
62111,25880
62334,26030
62598,26082
62893,26082
62893,27362
62808,27305
62677,27268
62584,27335
62584,27852
62584,27951
62584,27954
62584,28052
62584,28570
62677,28637
62808,28600
62947,28507
63025,28625
63281,28795
63582,28855
63884,28795
63893,28789
63893,29816
63448,30262
63299,30485
63246,30749
63246,31042
63053,31042
62581,31042
62581,28570
62581,27954
62581,27951
62581,27335
62488,27268
62356,27305
62163,27433
62034,27626
61988,27853
61988,27951
62581,27951
62581,27954
61988,27954
61988,28052
62034,28279
62163,28471
62356,28600
62488,28637
62581,28570
62581,31042
62423,31042
62401,31051
62380,31042
62184,31042
61554,31042
61417,31099
61280,31042
61084,31042
61042,31042
61042,28052
61042,27954
61042,27951
61042,27853
60996,27626
60925,27520
60925,24372
60196,23643
60194,23646
60194,23641
59465,22912
59300,22992
59149,23320
59053,23061
59006,22992
58841,22912
58839,22914
58839,22910
58759,22745
58367,22564
57935,22548
57530,22698
57460,22745
57381,22910
58110,23639
58839,22910
58839,22914
58112,23641
58841,24370
59006,24291
59157,23962
59253,24221
59300,24291
59465,24370
60194,23641
60194,23646
59467,24372
59547,24538
59939,24718
60371,24734
60776,24584
60846,24538
60925,24372
60925,27520
60867,27433
60674,27305
60543,27268
60450,27335
60450,27951
61042,27951
61042,27954
60450,27954
60450,28570
60543,28637
60674,28600
60867,28471
60996,28279
61042,28052
61042,31042
60454,31042
60273,31117
60150,31240
60039,31240
59940,31259
59940,30314
59888,30051
59739,29827
59515,29678
59251,29625
59137,29625
59137,28789
59147,28795
59448,28855
59750,28795
60005,28625
60084,28507
60222,28600
60354,28637
60447,28570
60447,28052
60447,27954
60447,27951
60447,27852
60447,27335
60354,27268
60222,27305
60137,27362
60137,25984
60085,25720
59935,25497
59935,25497
59542,25103
59318,24954
59055,24901
58839,24901
58839,24372
58110,23643
57381,24372
57460,24538
57853,24718
58284,24734
58690,24584
58759,24538
58839,24372
58839,24901
56978,24901
56791,24714
56791,24261
56886,24166
57023,23835
57167,24221
57213,24291
57379,24370
58108,23641
57379,22912
57213,22992
57195,23031
57195,21459
57045,21054
56998,20984
56833,20904
56104,21633
56833,22362
56998,22283
57179,21890
57195,21459
57195,23031
57033,23384
57027,23535
57027,23458
56887,23118
56627,22857
56295,22720
56682,22576
56751,22530
56831,22365
56102,21636
56100,21638
56100,21633
55371,20904
55205,20984
55025,21376
55009,21808
55159,22213
55205,22283
55371,22362
56100,21633
56100,21638
55373,22365
55452,22530
55845,22710
55996,22716
55919,22716
55578,22856
55318,23116
55180,23448
55037,23061
54991,22992
54825,22912
54823,22914
54823,22910
54743,22745
54351,22564
53919,22548
53514,22698
53445,22745
53365,22910
54094,23639
54823,22910
54823,22914
54096,23641
54825,24370
54991,24291
55171,23898
55177,23747
55177,23824
55317,24165
55413,24261
55413,25000
55465,25263
55615,25487
56205,26077
56429,26227
56692,26279
58759,26279
58759,27116
58750,27109
58448,27049
58147,27109
57891,27280
57721,27535
57661,27837
57661,28068
57721,28369
57759,28427
57759,28740
57759,29625
57068,29625
57068,29034
57068,28916
57023,28806
56939,28722
56829,28677
56531,28677
56457,28751
56457,29329
56994,29329
57068,29254
57068,29034
57068,29625
57068,29625
57068,29406
56994,29332
56555,29332
56457,29332
56453,29332
56453,29329
56453,29230
56453,28751
56379,28677
56081,28677
56071,28681
55949,28558
55768,28483
55573,28483
54943,28483
54762,28558
54623,28696
54595,28763
54409,28685
54103,28685
53821,28802
53755,28867
53691,28802
53409,28685
53103,28685
52821,28802
52755,28867
52691,28802
52409,28685
52103,28685
51821,28802
51755,28867
51691,28802
51409,28685
51103,28685
50821,28802
50605,29017
50488,29299
50488,29604
50605,29886
50820,30102
51102,30219
51407,30220
51647,30120
51768,30302
52509,31042
52322,31042
52248,30863
52109,30724
51929,30649
51772,30649
51574,30609
50984,30609
50720,30662
50497,30811
49906,31402
49850,31486
49826,31510
49813,31541
49757,31626
49737,31724
49724,31756
49724,31790
49704,31889
49724,31988
49724,32003
49724,32003
49539,32040
49316,32189
49316,32189
49315,32189
49209,32349
49197,32321
49059,32182
48878,32107
48682,32107
48145,32107
48145,31832
48297,31680
48448,31316
48448,30921
48298,30556
48019,30277
47654,30126
47260,30125
46895,30276
46616,30555
46464,30919
46464,31314
46615,31679
46767,31832
46767,32225
45628,32225
45595,32232
45762,32065
46017,31959
46297,31680
46448,31316
46448,30921
46298,30556
46019,30277
45654,30126
45260,30125
44895,30276
44616,30555
44509,30812
42483,32838
42027,32838
42027,29564
41905,29267
41837,29200
41837,27625
41752,27396
41727,27358
41611,27336
41608,27338
41608,27333
41586,27217
41364,27115
41121,27106
40892,27191
40854,27217
40832,27333
41220,27722
41608,27333
41608,27338
41222,27724
41611,28112
41727,28090
41828,27868
41837,27625
41837,29200
41678,29040
41608,29011
41608,28114
41220,27726
41218,27728
41218,27724
40829,27336
40713,27358
40611,27579
40603,27823
40688,28052
40713,28090
40829,28112
41218,27724
41218,27728
40832,28114
40854,28231
41076,28332
41319,28341
41548,28256
41586,28231
41608,28114
41608,29011
41381,28917
41060,28917
40763,29039
40536,29266
40413,29563
40413,29884
40535,30180
40762,30408
41059,30531
41380,30531
41677,30409
41904,30182
42027,29885
42027,29564
42027,32838
41837,32838
41837,31625
41752,31396
41727,31358
41611,31336
41608,31338
41608,31333
41586,31217
41364,31115
41121,31106
40892,31191
40854,31217
40832,31333
41220,31722
41608,31333
41608,31338
41222,31724
41611,32112
41727,32090
41828,31868
41837,31625
41837,32838
41608,32838
41608,32114
41220,31726
41218,31728
41218,31724
40829,31336
40713,31358
40611,31579
40603,31823
40688,32052
40713,32090
40829,32112
41218,31724
41218,31728
40832,32114
40854,32231
41076,32332
41319,32341
41548,32256
41586,32231
41608,32114
41608,32838
41220,32838
40881,32906
40594,33098
40402,33385
40334,33724
40402,34063
40594,34350
40881,34542
41220,34610
42850,34610
43189,34542
43476,34350
44486,33340
44480,33374
44480,33607
44402,33795
44402,34100
44518,34382
44734,34598
45016,34715
45321,34716
45402,34682
45402,34771
45402,35179
45222,35299
44682,35839
44532,36063
44500,36227
44418,36308
44283,36634
44283,36986
44418,37312
44562,37456
44551,37467
44505,37577
44505,37696
44505,37915
44580,37990
45019,37990
45117,37990
45120,37990
45120,37993
45117,37993
45019,37993
44580,37993
44505,38068
44505,38288
44505,38406
44513,38424
42145,38424
42145,36430
42005,36090
41745,35830
41405,35689
41037,35688
40697,35829
40436,36089
40295,36429
40295,36797
40435,37137
40695,37398
41035,37539
41403,37539
41743,37398
42004,37138
42145,36799
42145,36430
42145,38424
38877,38424
38877,20767
44598,20767
44523,20842
44358,21240
44358,21671
44522,22069
44756,22303
44724,22381
44724,22577
44724,22892
44781,23031
44724,23169
44724,23198
44197,23725
44048,23948
43996,24212
43996,25803
44048,26066
44197,26290
44834,26927
44912,27115
45127,27331
45317,27409
45767,27860
45767,28173
45761,28170
42689,25098
42401,24906
42145,24855
42145,22651
42005,22311
41745,22050
41405,21909
41037,21909
40697,22049
40436,22309
40295,22649
40295,23017
40435,23358
40695,23618
41035,23759
41403,23760
41743,23619
42004,23359
42145,23019
42145,22651
42145,24855
42062,24838
41220,24838
40881,24906
40594,25098
40402,25385
40334,25724
40402,26063
40594,26350
40881,26542
41220,26610
41696,26610
44509,29423
44615,29679
44893,29958
45258,30110
45653,30110
46017,29959
46297,29680
46448,29316
46448,29312
46474,29338
46615,29679
46893,29958
47258,30110
47653,30110
47686,30096
47727,30123
47933,30164
47987,30218
48168,30294
48364,30294
49074,30294
49074,30294
49151,30294
49861,30294
50042,30219
50181,30081
50256,29900
50256,29704
50256,29074
50181,28893
50059,28770
50062,28761
50062,28012
50017,27903
49933,27819
49824,27773
49705,27773
49485,27773
49411,27848
49411,28385
49988,28385
50062,28310
50062,28012
50062,28761
50062,28463
49988,28388
49509,28388
49411,28388
49407,28388
49309,28388
49200,28388
48830,28388
48722,28388
48623,28388
48620,28388
48620,28385
48623,28385
48722,28385
48830,28385
49200,28385
49407,28385
49407,27848
49333,27773
49113,27773
49015,27773
48917,27773
48863,27773
48807,27716
48328,27716
48229,27716
48226,27716
48128,27716
48019,27716
47649,27716
47540,27716
47442,27716
47439,27716
47439,27713
47442,27713
47540,27713
47649,27713
48019,27713
48128,27713
48226,27713
48229,27713
48328,27713
48807,27713
48881,27639
48881,27341
48877,27331
48905,27304
49565,27304
49769,27263
50393,27263
50657,27211
50761,27141
50914,27141
51102,27219
51407,27220
51689,27103
51755,27037
51820,27102
52102,27219
52407,27220
52689,27103
52755,27037
52820,27102
53102,27219
53407,27220
53669,27112
53701,27144
53882,27219
54078,27219
54628,27219
54809,27145
54947,27006
55022,26826
55023,26630
55023,26080
54948,25899
54823,25774
54823,24372
54094,23643
54092,23646
54092,23641
53363,22912
53197,22992
53017,23384
53001,23816
53151,24221
53197,24291
53363,24370
54092,23641
54092,23646
53365,24372
53445,24538
53837,24718
54269,24734
54674,24584
54743,24538
54823,24372
54823,25774
54810,25760
54629,25685
54433,25685
53883,25685
53702,25760
53669,25793
53409,25685
53103,25685
52821,25802
52755,25867
52691,25802
52578,25756
52578,21690
52456,21393
52229,21166
51932,21043
51611,21043
51315,21165
51087,21392
50964,21689
50964,22010
51087,22306
51313,22534
51610,22657
51931,22657
52228,22535
52455,22308
52578,22011
52578,21690
52578,25756
52409,25685
52103,25685
51821,25802
51755,25867
51691,25802
51409,25685
51103,25685
50914,25763
50515,25763
50252,25816
50147,25885
49606,25885
49507,25905
49473,25905
49442,25918
49402,25926
48905,25926
48862,25883
48681,25808
48485,25808
47775,25808
47775,25808
47698,25808
47608,25808
47330,25530
47330,25388
47423,25295
47510,25295
47835,25160
48157,25294
48510,25295
48835,25160
49085,24911
49220,24586
49220,24234
49154,24075
49250,24075
49762,24075
49943,24000
50082,23862
50157,23681
50157,23485
50157,23170
50100,23031
50157,22893
50157,22697
50157,22527
50309,22464
50448,22326
50523,22145
50523,21949
50523,20768
50523,20767
55438,20767
55373,20902
56102,21631
56831,20902
56766,20767
61540,20767
61475,20902
62204,21631
62933,20902
62868,20767
67754,20767
67754,30281
" /> 
</g>
<g style="fill:#FFFFFF; fill-opacity:0.0; 
stroke:#FFFFFF; stroke-width:0.0787402; stroke-opacity:1; 
stroke-linecap:round; stroke-linejoin:round;">
</g>
<g style="fill:#FFFFFF; fill-opacity:1.0; 
stroke:#FFFFFF; stroke-width:0.0787402; stroke-opacity:1; 
stroke-linecap:round; stroke-linejoin:round;">
<circle cx="25393.7" cy="37992.1" r="68.8583" /> 
<circle cx="25393.7" cy="20669.3" r="68.8583" /> 
<circle cx="50000" cy="37204.7" r="68.8583" /> 
<circle cx="51771.7" cy="21850.4" r="68.8583" /> 
<circle cx="66929.1" cy="21850.4" r="68.8583" /> 
<circle cx="47637.8" cy="37204.7" r="68.8583" /> 
<circle cx="67126" cy="30511.8" r="68.8583" /> 
<circle cx="50393.7" cy="31889.8" r="68.8583" /> 
<circle cx="49606.3" cy="26574.8" r="68.8583" /> 
<circle cx="49212.6" cy="31102.4" r="68.8583" /> 
<circle cx="50787.4" cy="33464.6" r="68.8583" /> 
<circle cx="67716.5" cy="33464.6" r="68.8583" /> 
<circle cx="64582.7" cy="27952.8" r="68.8583" /> 
<circle cx="63582.7" cy="27952.8" r="68.8583" /> 
<circle cx="62582.7" cy="27952.8" r="68.8583" /> 
<circle cx="58448.8" cy="27952.8" r="68.8583" /> 
<circle cx="59448.8" cy="27952.8" r="68.8583" /> 
<circle cx="60448.8" cy="27952.8" r="68.8583" /> 
<circle cx="31220.5" cy="25724.4" r="68.8583" /> 
<circle cx="31220.5" cy="27724.4" r="68.8583" /> 
<circle cx="31220.5" cy="29724.4" r="68.8583" /> 
<circle cx="31220.5" cy="31724.4" r="68.8583" /> 
<circle cx="31220.5" cy="33724.4" r="68.8583" /> 
<circle cx="41220.5" cy="33724.4" r="68.8583" /> 
<circle cx="41220.5" cy="31724.4" r="68.8583" /> 
<circle cx="41220.5" cy="29724.4" r="68.8583" /> 
<circle cx="41220.5" cy="27724.4" r="68.8583" /> 
<circle cx="41220.5" cy="25724.4" r="68.8583" /> 
<circle cx="41220.5" cy="22834.6" r="68.8583" /> 
<circle cx="31220.5" cy="22834.6" r="68.8583" /> 
<circle cx="31220.5" cy="36614.2" r="68.8583" /> 
<circle cx="41220.5" cy="36614.2" r="68.8583" /> 
<circle cx="46563" cy="25681.1" r="68.8583" /> 
<circle cx="45563" cy="25681.1" r="68.8583" /> 
<circle cx="45563" cy="26681.1" r="68.8583" /> 
<circle cx="46169.3" cy="34948.8" r="68.8583" /> 
<circle cx="46169.3" cy="33948.8" r="68.8583" /> 
<circle cx="45169.3" cy="33948.8" r="68.8583" /> 
<circle cx="60196.9" cy="35019.7" r="68.8583" /> 
<circle cx="64212.6" cy="35019.7" r="68.8583" /> 
<circle cx="62204.7" cy="37027.6" r="68.8583" /> 
<circle cx="62204.7" cy="35019.7" r="68.8583" /> 
<circle cx="54094.5" cy="35019.7" r="68.8583" /> 
<circle cx="58110.2" cy="35019.7" r="68.8583" /> 
<circle cx="56102.4" cy="37027.6" r="68.8583" /> 
<circle cx="56102.4" cy="35019.7" r="68.8583" /> 
<circle cx="64212.6" cy="23641.7" r="68.8583" /> 
<circle cx="60196.9" cy="23641.7" r="68.8583" /> 
<circle cx="62204.7" cy="21633.9" r="68.8583" /> 
<circle cx="62204.7" cy="23641.7" r="68.8583" /> 
<circle cx="58110.2" cy="23641.7" r="68.8583" /> 
<circle cx="54094.5" cy="23641.7" r="68.8583" /> 
<circle cx="56102.4" cy="21633.9" r="68.8583" /> 
<circle cx="56102.4" cy="23641.7" r="68.8583" /> 
<circle cx="50787.4" cy="34539.4" r="68.8583" /> 
<circle cx="50787.4" cy="35539.4" r="68.8583" /> 
<circle cx="67519.7" cy="34539.4" r="68.8583" /> 
<circle cx="67519.7" cy="35539.4" r="68.8583" /> 
<circle cx="58480.3" cy="32677.2" r="68.8583" /> 
<circle cx="57480.3" cy="32677.2" r="68.8583" /> 
<circle cx="56480.3" cy="32677.2" r="68.8583" /> 
<circle cx="61007.9" cy="32874" r="68.8583" /> 
<circle cx="62007.9" cy="32874" r="68.8583" /> 
<circle cx="63007.9" cy="32874" r="68.8583" /> 
<circle cx="49440.9" cy="21456.7" r="68.8583" /> 
<circle cx="47440.9" cy="21456.7" r="68.8583" /> 
<circle cx="45440.9" cy="21456.7" r="68.8583" /> 
<circle cx="26181.1" cy="33842.5" r="68.8583" /> 
<circle cx="26181.1" cy="35842.5" r="68.8583" /> 
<circle cx="48334.6" cy="24409.4" r="68.8583" /> 
<circle cx="47334.6" cy="24409.4" r="68.8583" /> 
<circle cx="45169.3" cy="36811" r="68.8583" /> 
<circle cx="46169.3" cy="36811" r="68.8583" /> 
<circle cx="26181.1" cy="31647.2" r="68.8583" /> 
<circle cx="26181.1" cy="23077.2" r="68.8583" /> 
<circle cx="54255.9" cy="26452.8" r="68.8583" /> 
<circle cx="53255.9" cy="26452.8" r="68.8583" /> 
<circle cx="52255.9" cy="26452.8" r="68.8583" /> 
<circle cx="51255.9" cy="26452.8" r="68.8583" /> 
<circle cx="51255.9" cy="29452.8" r="68.8583" /> 
<circle cx="52255.9" cy="29452.8" r="68.8583" /> 
<circle cx="53255.9" cy="29452.8" r="68.8583" /> 
<circle cx="54255.9" cy="29452.8" r="68.8583" /> 
<circle cx="45456.7" cy="29118.1" r="68.8583" /> 
<circle cx="45456.7" cy="31118.1" r="68.8583" /> 
<circle cx="47456.7" cy="31118.1" r="68.8583" /> 
<circle cx="47456.7" cy="29118.1" r="68.8583" /> 
</g> 
</svg>
