G04 (created by PCBNEW (2012-nov-02)-testing) date 31.12.2012 (пн) 11,29,38 EET*
%MOIN*%
G04 Gerber Fmt 3.4, Leading zero omitted, Abs format*
%FSLAX34Y34*%
G01*
G70*
G90*
G04 APERTURE LIST*
%ADD10C,7.87402e-06*%
%ADD11C,0.012*%
%ADD12O,0.0591X0.0787*%
%ADD13C,0.0629921*%
%ADD14C,0.0866142*%
%ADD15R,0.055X0.055*%
%ADD16C,0.055*%
%ADD17C,0.15748*%
%ADD18C,0.0787*%
%ADD19R,0.063X0.071*%
%ADD20R,0.06X0.0866*%
%ADD21O,0.06X0.0866*%
%ADD22R,0.1181X0.1181*%
%ADD23C,0.1181*%
%ADD24R,0.0512X0.0315*%
%ADD25R,0.071X0.063*%
%ADD26C,0.1*%
%ADD27C,0.0354331*%
%ADD28C,0.0393701*%
%ADD29C,0.0314961*%
%ADD30C,0.0787402*%
%ADD31C,0.019685*%
G04 APERTURE END LIST*
G54D10*
X4000Y-4000D02*
X112930Y-4000D01*
X112930Y-78680D01*
X4000Y-78680D01*
X4000Y-4000D01*
X4700Y-4700D02*
X112230Y-4700D01*
X112230Y-77980D01*
X4700Y-77980D01*
X4700Y-4700D01*
X25780Y-4000D02*
X25780Y-4700D01*
X15032Y-4552D02*
X14747Y-4552D01*
X14890Y-4552D02*
X14890Y-4052D01*
X14842Y-4123D01*
X14794Y-4171D01*
X14747Y-4195D01*
X25780Y-78680D02*
X25780Y-77980D01*
X15032Y-78532D02*
X14747Y-78532D01*
X14890Y-78532D02*
X14890Y-78032D01*
X14842Y-78103D01*
X14794Y-78151D01*
X14747Y-78175D01*
X47560Y-4000D02*
X47560Y-4700D01*
X36527Y-4100D02*
X36550Y-4076D01*
X36598Y-4052D01*
X36717Y-4052D01*
X36765Y-4076D01*
X36789Y-4100D01*
X36812Y-4147D01*
X36812Y-4195D01*
X36789Y-4266D01*
X36503Y-4552D01*
X36812Y-4552D01*
X47560Y-78680D02*
X47560Y-77980D01*
X36527Y-78080D02*
X36550Y-78056D01*
X36598Y-78032D01*
X36717Y-78032D01*
X36765Y-78056D01*
X36789Y-78080D01*
X36812Y-78127D01*
X36812Y-78175D01*
X36789Y-78246D01*
X36503Y-78532D01*
X36812Y-78532D01*
X69340Y-4000D02*
X69340Y-4700D01*
X58283Y-4052D02*
X58592Y-4052D01*
X58426Y-4242D01*
X58497Y-4242D01*
X58545Y-4266D01*
X58569Y-4290D01*
X58592Y-4338D01*
X58592Y-4457D01*
X58569Y-4504D01*
X58545Y-4528D01*
X58497Y-4552D01*
X58354Y-4552D01*
X58307Y-4528D01*
X58283Y-4504D01*
X69340Y-78680D02*
X69340Y-77980D01*
X58283Y-78032D02*
X58592Y-78032D01*
X58426Y-78222D01*
X58497Y-78222D01*
X58545Y-78246D01*
X58569Y-78270D01*
X58592Y-78318D01*
X58592Y-78437D01*
X58569Y-78484D01*
X58545Y-78508D01*
X58497Y-78532D01*
X58354Y-78532D01*
X58307Y-78508D01*
X58283Y-78484D01*
X91120Y-4000D02*
X91120Y-4700D01*
X80325Y-4219D02*
X80325Y-4552D01*
X80206Y-4028D02*
X80087Y-4385D01*
X80396Y-4385D01*
X91120Y-78680D02*
X91120Y-77980D01*
X80325Y-78199D02*
X80325Y-78532D01*
X80206Y-78008D02*
X80087Y-78365D01*
X80396Y-78365D01*
X102129Y-4052D02*
X101890Y-4052D01*
X101867Y-4290D01*
X101890Y-4266D01*
X101938Y-4242D01*
X102057Y-4242D01*
X102105Y-4266D01*
X102129Y-4290D01*
X102152Y-4338D01*
X102152Y-4457D01*
X102129Y-4504D01*
X102105Y-4528D01*
X102057Y-4552D01*
X101938Y-4552D01*
X101890Y-4528D01*
X101867Y-4504D01*
X102129Y-78032D02*
X101890Y-78032D01*
X101867Y-78270D01*
X101890Y-78246D01*
X101938Y-78222D01*
X102057Y-78222D01*
X102105Y-78246D01*
X102129Y-78270D01*
X102152Y-78318D01*
X102152Y-78437D01*
X102129Y-78484D01*
X102105Y-78508D01*
X102057Y-78532D01*
X101938Y-78532D01*
X101890Y-78508D01*
X101867Y-78484D01*
X4000Y-28890D02*
X4700Y-28890D01*
X4230Y-16509D02*
X4469Y-16509D01*
X4183Y-16652D02*
X4350Y-16152D01*
X4516Y-16652D01*
X112930Y-28890D02*
X112230Y-28890D01*
X112460Y-16509D02*
X112699Y-16509D01*
X112413Y-16652D02*
X112580Y-16152D01*
X112746Y-16652D01*
X4000Y-53780D02*
X4700Y-53780D01*
X4385Y-41280D02*
X4457Y-41304D01*
X4480Y-41328D01*
X4504Y-41375D01*
X4504Y-41447D01*
X4480Y-41494D01*
X4457Y-41518D01*
X4409Y-41542D01*
X4219Y-41542D01*
X4219Y-41042D01*
X4385Y-41042D01*
X4433Y-41066D01*
X4457Y-41090D01*
X4480Y-41137D01*
X4480Y-41185D01*
X4457Y-41232D01*
X4433Y-41256D01*
X4385Y-41280D01*
X4219Y-41280D01*
X112930Y-53780D02*
X112230Y-53780D01*
X112615Y-41280D02*
X112687Y-41304D01*
X112710Y-41328D01*
X112734Y-41375D01*
X112734Y-41447D01*
X112710Y-41494D01*
X112687Y-41518D01*
X112639Y-41542D01*
X112449Y-41542D01*
X112449Y-41042D01*
X112615Y-41042D01*
X112663Y-41066D01*
X112687Y-41090D01*
X112710Y-41137D01*
X112710Y-41185D01*
X112687Y-41232D01*
X112663Y-41256D01*
X112615Y-41280D01*
X112449Y-41280D01*
X4504Y-66384D02*
X4480Y-66408D01*
X4409Y-66432D01*
X4361Y-66432D01*
X4290Y-66408D01*
X4242Y-66360D01*
X4219Y-66313D01*
X4195Y-66218D01*
X4195Y-66146D01*
X4219Y-66051D01*
X4242Y-66003D01*
X4290Y-65956D01*
X4361Y-65932D01*
X4409Y-65932D01*
X4480Y-65956D01*
X4504Y-65980D01*
X112734Y-66384D02*
X112710Y-66408D01*
X112639Y-66432D01*
X112591Y-66432D01*
X112520Y-66408D01*
X112472Y-66360D01*
X112449Y-66313D01*
X112425Y-66218D01*
X112425Y-66146D01*
X112449Y-66051D01*
X112472Y-66003D01*
X112520Y-65956D01*
X112591Y-65932D01*
X112639Y-65932D01*
X112710Y-65956D01*
X112734Y-65980D01*
X79380Y-76422D02*
X79455Y-75822D01*
X79597Y-75822D01*
X79680Y-75851D01*
X79730Y-75908D01*
X79751Y-75965D01*
X79765Y-76080D01*
X79755Y-76165D01*
X79712Y-76280D01*
X79676Y-76337D01*
X79612Y-76394D01*
X79522Y-76422D01*
X79380Y-76422D01*
X80237Y-76422D02*
X80276Y-76108D01*
X80255Y-76051D01*
X80201Y-76022D01*
X80087Y-76022D01*
X80026Y-76051D01*
X80240Y-76394D02*
X80180Y-76422D01*
X80037Y-76422D01*
X79983Y-76394D01*
X79962Y-76337D01*
X79969Y-76280D01*
X80005Y-76222D01*
X80065Y-76194D01*
X80208Y-76194D01*
X80269Y-76165D01*
X80487Y-76022D02*
X80715Y-76022D01*
X80597Y-75822D02*
X80533Y-76337D01*
X80555Y-76394D01*
X80608Y-76422D01*
X80665Y-76422D01*
X81097Y-76394D02*
X81037Y-76422D01*
X80922Y-76422D01*
X80869Y-76394D01*
X80847Y-76337D01*
X80876Y-76108D01*
X80912Y-76051D01*
X80972Y-76022D01*
X81087Y-76022D01*
X81140Y-76051D01*
X81162Y-76108D01*
X81155Y-76165D01*
X80862Y-76222D01*
X81387Y-76365D02*
X81412Y-76394D01*
X81380Y-76422D01*
X81355Y-76394D01*
X81387Y-76365D01*
X81380Y-76422D01*
X81426Y-76051D02*
X81451Y-76080D01*
X81419Y-76108D01*
X81394Y-76080D01*
X81426Y-76051D01*
X81419Y-76108D01*
X82140Y-75822D02*
X82512Y-75822D01*
X82283Y-76051D01*
X82369Y-76051D01*
X82422Y-76080D01*
X82447Y-76108D01*
X82469Y-76165D01*
X82451Y-76308D01*
X82415Y-76365D01*
X82383Y-76394D01*
X82322Y-76422D01*
X82151Y-76422D01*
X82097Y-76394D01*
X82072Y-76365D01*
X83008Y-76422D02*
X82665Y-76422D01*
X82837Y-76422D02*
X82912Y-75822D01*
X82844Y-75908D01*
X82780Y-75965D01*
X82719Y-75994D01*
X83980Y-76422D02*
X84055Y-75822D01*
X83983Y-76394D02*
X83922Y-76422D01*
X83808Y-76422D01*
X83755Y-76394D01*
X83730Y-76365D01*
X83708Y-76308D01*
X83730Y-76137D01*
X83765Y-76080D01*
X83797Y-76051D01*
X83858Y-76022D01*
X83972Y-76022D01*
X84026Y-76051D01*
X84497Y-76394D02*
X84437Y-76422D01*
X84322Y-76422D01*
X84269Y-76394D01*
X84247Y-76337D01*
X84276Y-76108D01*
X84312Y-76051D01*
X84372Y-76022D01*
X84487Y-76022D01*
X84540Y-76051D01*
X84562Y-76108D01*
X84555Y-76165D01*
X84262Y-76222D01*
X85040Y-76394D02*
X84980Y-76422D01*
X84865Y-76422D01*
X84812Y-76394D01*
X84787Y-76365D01*
X84765Y-76308D01*
X84787Y-76137D01*
X84822Y-76080D01*
X84855Y-76051D01*
X84915Y-76022D01*
X85030Y-76022D01*
X85083Y-76051D01*
X85790Y-75880D02*
X85822Y-75851D01*
X85883Y-75822D01*
X86026Y-75822D01*
X86080Y-75851D01*
X86105Y-75880D01*
X86126Y-75937D01*
X86119Y-75994D01*
X86080Y-76080D01*
X85694Y-76422D01*
X86065Y-76422D01*
X86512Y-75822D02*
X86569Y-75822D01*
X86622Y-75851D01*
X86647Y-75880D01*
X86669Y-75937D01*
X86683Y-76051D01*
X86665Y-76194D01*
X86622Y-76308D01*
X86587Y-76365D01*
X86555Y-76394D01*
X86494Y-76422D01*
X86437Y-76422D01*
X86383Y-76394D01*
X86358Y-76365D01*
X86337Y-76308D01*
X86322Y-76194D01*
X86340Y-76051D01*
X86383Y-75937D01*
X86419Y-75880D01*
X86451Y-75851D01*
X86512Y-75822D01*
X87208Y-76422D02*
X86865Y-76422D01*
X87037Y-76422D02*
X87112Y-75822D01*
X87044Y-75908D01*
X86980Y-75965D01*
X86919Y-75994D01*
X87505Y-75880D02*
X87537Y-75851D01*
X87597Y-75822D01*
X87740Y-75822D01*
X87794Y-75851D01*
X87819Y-75880D01*
X87840Y-75937D01*
X87833Y-75994D01*
X87794Y-76080D01*
X87408Y-76422D01*
X87780Y-76422D01*
X70972Y-77622D02*
X70972Y-77022D01*
X71315Y-77622D02*
X71058Y-77280D01*
X71315Y-77022D02*
X70972Y-77365D01*
X71572Y-77622D02*
X71572Y-77222D01*
X71572Y-77022D02*
X71544Y-77051D01*
X71572Y-77080D01*
X71601Y-77051D01*
X71572Y-77022D01*
X71572Y-77080D01*
X72201Y-77565D02*
X72172Y-77594D01*
X72087Y-77622D01*
X72030Y-77622D01*
X71944Y-77594D01*
X71887Y-77537D01*
X71858Y-77480D01*
X71830Y-77365D01*
X71830Y-77280D01*
X71858Y-77165D01*
X71887Y-77108D01*
X71944Y-77051D01*
X72030Y-77022D01*
X72087Y-77022D01*
X72172Y-77051D01*
X72201Y-77080D01*
X72715Y-77622D02*
X72715Y-77308D01*
X72687Y-77251D01*
X72630Y-77222D01*
X72515Y-77222D01*
X72458Y-77251D01*
X72715Y-77594D02*
X72658Y-77622D01*
X72515Y-77622D01*
X72458Y-77594D01*
X72430Y-77537D01*
X72430Y-77480D01*
X72458Y-77422D01*
X72515Y-77394D01*
X72658Y-77394D01*
X72715Y-77365D01*
X73258Y-77622D02*
X73258Y-77022D01*
X73258Y-77594D02*
X73201Y-77622D01*
X73087Y-77622D01*
X73030Y-77594D01*
X73001Y-77565D01*
X72972Y-77508D01*
X72972Y-77337D01*
X73001Y-77280D01*
X73030Y-77251D01*
X73087Y-77222D01*
X73201Y-77222D01*
X73258Y-77251D01*
X74001Y-77308D02*
X74201Y-77308D01*
X74287Y-77622D02*
X74001Y-77622D01*
X74001Y-77022D01*
X74287Y-77022D01*
X74544Y-77565D02*
X74572Y-77594D01*
X74544Y-77622D01*
X74515Y-77594D01*
X74544Y-77565D01*
X74544Y-77622D01*
X74829Y-77622D02*
X74829Y-77022D01*
X74972Y-77022D01*
X75058Y-77051D01*
X75115Y-77108D01*
X75144Y-77165D01*
X75172Y-77280D01*
X75172Y-77365D01*
X75144Y-77480D01*
X75115Y-77537D01*
X75058Y-77594D01*
X74972Y-77622D01*
X74829Y-77622D01*
X75429Y-77565D02*
X75458Y-77594D01*
X75429Y-77622D01*
X75401Y-77594D01*
X75429Y-77565D01*
X75429Y-77622D01*
X75687Y-77451D02*
X75972Y-77451D01*
X75629Y-77622D02*
X75829Y-77022D01*
X76029Y-77622D01*
X76229Y-77565D02*
X76258Y-77594D01*
X76229Y-77622D01*
X76201Y-77594D01*
X76229Y-77565D01*
X76229Y-77622D01*
X104522Y-76422D02*
X104358Y-76137D01*
X104180Y-76422D02*
X104255Y-75822D01*
X104483Y-75822D01*
X104537Y-75851D01*
X104562Y-75880D01*
X104583Y-75937D01*
X104572Y-76022D01*
X104537Y-76080D01*
X104505Y-76108D01*
X104444Y-76137D01*
X104215Y-76137D01*
X105012Y-76394D02*
X104951Y-76422D01*
X104837Y-76422D01*
X104783Y-76394D01*
X104762Y-76337D01*
X104790Y-76108D01*
X104826Y-76051D01*
X104887Y-76022D01*
X105001Y-76022D01*
X105055Y-76051D01*
X105076Y-76108D01*
X105069Y-76165D01*
X104776Y-76222D01*
X105287Y-76022D02*
X105380Y-76422D01*
X105572Y-76022D01*
X105758Y-76365D02*
X105783Y-76394D01*
X105751Y-76422D01*
X105726Y-76394D01*
X105758Y-76365D01*
X105751Y-76422D01*
X105797Y-76051D02*
X105822Y-76080D01*
X105790Y-76108D01*
X105765Y-76080D01*
X105797Y-76051D01*
X105790Y-76108D01*
X106808Y-76422D02*
X106465Y-76422D01*
X106637Y-76422D02*
X106712Y-75822D01*
X106644Y-75908D01*
X106580Y-75965D01*
X106519Y-75994D01*
X107072Y-76365D02*
X107097Y-76394D01*
X107065Y-76422D01*
X107040Y-76394D01*
X107072Y-76365D01*
X107065Y-76422D01*
X107540Y-75822D02*
X107597Y-75822D01*
X107651Y-75851D01*
X107676Y-75880D01*
X107697Y-75937D01*
X107712Y-76051D01*
X107694Y-76194D01*
X107651Y-76308D01*
X107615Y-76365D01*
X107583Y-76394D01*
X107522Y-76422D01*
X107465Y-76422D01*
X107412Y-76394D01*
X107387Y-76365D01*
X107365Y-76308D01*
X107351Y-76194D01*
X107369Y-76051D01*
X107412Y-75937D01*
X107447Y-75880D01*
X107480Y-75851D01*
X107540Y-75822D01*
X70944Y-76394D02*
X71030Y-76422D01*
X71172Y-76422D01*
X71230Y-76394D01*
X71258Y-76365D01*
X71287Y-76308D01*
X71287Y-76251D01*
X71258Y-76194D01*
X71230Y-76165D01*
X71172Y-76137D01*
X71058Y-76108D01*
X71001Y-76080D01*
X70972Y-76051D01*
X70944Y-75994D01*
X70944Y-75937D01*
X70972Y-75880D01*
X71001Y-75851D01*
X71058Y-75822D01*
X71201Y-75822D01*
X71287Y-75851D01*
X71544Y-76422D02*
X71544Y-76022D01*
X71544Y-75822D02*
X71515Y-75851D01*
X71544Y-75880D01*
X71572Y-75851D01*
X71544Y-75822D01*
X71544Y-75880D01*
X71772Y-76022D02*
X72087Y-76022D01*
X71772Y-76422D01*
X72087Y-76422D01*
X72544Y-76394D02*
X72487Y-76422D01*
X72372Y-76422D01*
X72315Y-76394D01*
X72287Y-76337D01*
X72287Y-76108D01*
X72315Y-76051D01*
X72372Y-76022D01*
X72487Y-76022D01*
X72544Y-76051D01*
X72572Y-76108D01*
X72572Y-76165D01*
X72287Y-76222D01*
X72830Y-76365D02*
X72858Y-76394D01*
X72830Y-76422D01*
X72801Y-76394D01*
X72830Y-76365D01*
X72830Y-76422D01*
X72830Y-76051D02*
X72858Y-76080D01*
X72830Y-76108D01*
X72801Y-76080D01*
X72830Y-76051D01*
X72830Y-76108D01*
X73544Y-76251D02*
X73830Y-76251D01*
X73487Y-76422D02*
X73687Y-75822D01*
X73887Y-76422D01*
X74344Y-76022D02*
X74344Y-76422D01*
X74201Y-75794D02*
X74058Y-76222D01*
X74430Y-76222D01*
X104172Y-77622D02*
X104172Y-77022D01*
X104715Y-77622D02*
X104715Y-77022D01*
X104715Y-77594D02*
X104658Y-77622D01*
X104544Y-77622D01*
X104487Y-77594D01*
X104458Y-77565D01*
X104430Y-77508D01*
X104430Y-77337D01*
X104458Y-77280D01*
X104487Y-77251D01*
X104544Y-77222D01*
X104658Y-77222D01*
X104715Y-77251D01*
X105001Y-77565D02*
X105030Y-77594D01*
X105001Y-77622D01*
X104972Y-77594D01*
X105001Y-77565D01*
X105001Y-77622D01*
X105001Y-77251D02*
X105030Y-77280D01*
X105001Y-77308D01*
X104972Y-77280D01*
X105001Y-77251D01*
X105001Y-77308D01*
X106058Y-77622D02*
X105715Y-77622D01*
X105887Y-77622D02*
X105887Y-77022D01*
X105829Y-77108D01*
X105772Y-77165D01*
X105715Y-77194D01*
X106744Y-76994D02*
X106230Y-77765D01*
X107258Y-77622D02*
X106915Y-77622D01*
X107087Y-77622D02*
X107087Y-77022D01*
X107029Y-77108D01*
X106972Y-77165D01*
X106915Y-77194D01*
X70969Y-74622D02*
X71312Y-74622D01*
X71065Y-75222D02*
X71140Y-74622D01*
X71437Y-75222D02*
X71487Y-74822D01*
X71512Y-74622D02*
X71480Y-74651D01*
X71505Y-74680D01*
X71537Y-74651D01*
X71512Y-74622D01*
X71505Y-74680D01*
X71687Y-74822D02*
X71915Y-74822D01*
X71797Y-74622D02*
X71733Y-75137D01*
X71755Y-75194D01*
X71808Y-75222D01*
X71865Y-75222D01*
X72151Y-75222D02*
X72097Y-75194D01*
X72076Y-75137D01*
X72140Y-74622D01*
X72612Y-75194D02*
X72551Y-75222D01*
X72437Y-75222D01*
X72383Y-75194D01*
X72362Y-75137D01*
X72390Y-74908D01*
X72426Y-74851D01*
X72487Y-74822D01*
X72601Y-74822D01*
X72655Y-74851D01*
X72676Y-74908D01*
X72669Y-74965D01*
X72376Y-75022D01*
X72901Y-75165D02*
X72926Y-75194D01*
X72894Y-75222D01*
X72869Y-75194D01*
X72901Y-75165D01*
X72894Y-75222D01*
X72940Y-74851D02*
X72965Y-74880D01*
X72933Y-74908D01*
X72908Y-74880D01*
X72940Y-74851D01*
X72933Y-74908D01*
X73637Y-75222D02*
X73712Y-74622D01*
X73940Y-74622D01*
X73994Y-74651D01*
X74019Y-74680D01*
X74040Y-74737D01*
X74030Y-74822D01*
X73994Y-74880D01*
X73962Y-74908D01*
X73901Y-74937D01*
X73672Y-74937D01*
X74587Y-75165D02*
X74555Y-75194D01*
X74465Y-75222D01*
X74408Y-75222D01*
X74326Y-75194D01*
X74276Y-75137D01*
X74255Y-75080D01*
X74240Y-74965D01*
X74251Y-74880D01*
X74294Y-74765D01*
X74330Y-74708D01*
X74394Y-74651D01*
X74483Y-74622D01*
X74540Y-74622D01*
X74622Y-74651D01*
X74647Y-74680D01*
X75380Y-75222D02*
X75326Y-75194D01*
X75301Y-75165D01*
X75280Y-75108D01*
X75301Y-74937D01*
X75337Y-74880D01*
X75369Y-74851D01*
X75430Y-74822D01*
X75515Y-74822D01*
X75569Y-74851D01*
X75594Y-74880D01*
X75615Y-74937D01*
X75594Y-75108D01*
X75558Y-75165D01*
X75526Y-75194D01*
X75465Y-75222D01*
X75380Y-75222D01*
X75812Y-75194D02*
X75865Y-75222D01*
X75980Y-75222D01*
X76040Y-75194D01*
X76076Y-75137D01*
X76080Y-75108D01*
X76058Y-75051D01*
X76005Y-75022D01*
X75919Y-75022D01*
X75865Y-74994D01*
X75844Y-74937D01*
X75847Y-74908D01*
X75883Y-74851D01*
X75944Y-74822D01*
X76030Y-74822D01*
X76083Y-74851D01*
X76583Y-75194D02*
X76522Y-75222D01*
X76408Y-75222D01*
X76355Y-75194D01*
X76330Y-75165D01*
X76308Y-75108D01*
X76330Y-74937D01*
X76365Y-74880D01*
X76397Y-74851D01*
X76458Y-74822D01*
X76572Y-74822D01*
X76626Y-74851D01*
X76837Y-75222D02*
X76887Y-74822D01*
X76912Y-74622D02*
X76880Y-74651D01*
X76905Y-74680D01*
X76937Y-74651D01*
X76912Y-74622D01*
X76905Y-74680D01*
X77208Y-75222D02*
X77155Y-75194D01*
X77133Y-75137D01*
X77197Y-74622D01*
X77522Y-75222D02*
X77469Y-75194D01*
X77447Y-75137D01*
X77512Y-74622D01*
X77837Y-75222D02*
X77783Y-75194D01*
X77758Y-75165D01*
X77737Y-75108D01*
X77758Y-74937D01*
X77794Y-74880D01*
X77826Y-74851D01*
X77887Y-74822D01*
X77972Y-74822D01*
X78026Y-74851D01*
X78051Y-74880D01*
X78072Y-74937D01*
X78051Y-75108D01*
X78015Y-75165D01*
X77983Y-75194D01*
X77922Y-75222D01*
X77837Y-75222D01*
X78269Y-75194D02*
X78322Y-75222D01*
X78437Y-75222D01*
X78497Y-75194D01*
X78533Y-75137D01*
X78537Y-75108D01*
X78515Y-75051D01*
X78462Y-75022D01*
X78376Y-75022D01*
X78322Y-74994D01*
X78301Y-74937D01*
X78305Y-74908D01*
X78340Y-74851D01*
X78401Y-74822D01*
X78487Y-74822D01*
X78540Y-74851D01*
X79040Y-75194D02*
X78980Y-75222D01*
X78865Y-75222D01*
X78812Y-75194D01*
X78787Y-75165D01*
X78765Y-75108D01*
X78787Y-74937D01*
X78822Y-74880D01*
X78855Y-74851D01*
X78915Y-74822D01*
X79030Y-74822D01*
X79083Y-74851D01*
X79380Y-75222D02*
X79326Y-75194D01*
X79301Y-75165D01*
X79280Y-75108D01*
X79301Y-74937D01*
X79337Y-74880D01*
X79369Y-74851D01*
X79430Y-74822D01*
X79515Y-74822D01*
X79569Y-74851D01*
X79594Y-74880D01*
X79615Y-74937D01*
X79594Y-75108D01*
X79558Y-75165D01*
X79526Y-75194D01*
X79465Y-75222D01*
X79380Y-75222D01*
X79887Y-74822D02*
X79812Y-75422D01*
X79883Y-74851D02*
X79944Y-74822D01*
X80058Y-74822D01*
X80112Y-74851D01*
X80137Y-74880D01*
X80158Y-74937D01*
X80137Y-75108D01*
X80101Y-75165D01*
X80069Y-75194D01*
X80008Y-75222D01*
X79894Y-75222D01*
X79840Y-75194D01*
X80612Y-75194D02*
X80551Y-75222D01*
X80437Y-75222D01*
X80383Y-75194D01*
X80362Y-75137D01*
X80390Y-74908D01*
X80426Y-74851D01*
X80487Y-74822D01*
X80601Y-74822D01*
X80655Y-74851D01*
X80676Y-74908D01*
X80669Y-74965D01*
X80376Y-75022D01*
X81401Y-74822D02*
X81326Y-75422D01*
X81397Y-74851D02*
X81458Y-74822D01*
X81572Y-74822D01*
X81626Y-74851D01*
X81651Y-74880D01*
X81672Y-74937D01*
X81651Y-75108D01*
X81615Y-75165D01*
X81583Y-75194D01*
X81522Y-75222D01*
X81408Y-75222D01*
X81355Y-75194D01*
X81894Y-75222D02*
X81944Y-74822D01*
X81930Y-74937D02*
X81965Y-74880D01*
X81997Y-74851D01*
X82058Y-74822D01*
X82115Y-74822D01*
X82351Y-75222D02*
X82297Y-75194D01*
X82272Y-75165D01*
X82251Y-75108D01*
X82272Y-74937D01*
X82308Y-74880D01*
X82340Y-74851D01*
X82401Y-74822D01*
X82487Y-74822D01*
X82540Y-74851D01*
X82565Y-74880D01*
X82587Y-74937D01*
X82565Y-75108D01*
X82530Y-75165D01*
X82497Y-75194D01*
X82437Y-75222D01*
X82351Y-75222D01*
X82808Y-75222D02*
X82883Y-74622D01*
X82855Y-74851D02*
X82915Y-74822D01*
X83030Y-74822D01*
X83083Y-74851D01*
X83108Y-74880D01*
X83130Y-74937D01*
X83108Y-75108D01*
X83072Y-75165D01*
X83040Y-75194D01*
X82980Y-75222D01*
X82865Y-75222D01*
X82812Y-75194D01*
X83583Y-75194D02*
X83522Y-75222D01*
X83408Y-75222D01*
X83355Y-75194D01*
X83333Y-75137D01*
X83362Y-74908D01*
X83397Y-74851D01*
X83458Y-74822D01*
X83572Y-74822D01*
X83626Y-74851D01*
X83647Y-74908D01*
X83640Y-74965D01*
X83347Y-75022D01*
X83840Y-75194D02*
X83894Y-75222D01*
X84008Y-75222D01*
X84069Y-75194D01*
X84105Y-75137D01*
X84108Y-75108D01*
X84087Y-75051D01*
X84033Y-75022D01*
X83947Y-75022D01*
X83894Y-74994D01*
X83872Y-74937D01*
X83876Y-74908D01*
X83912Y-74851D01*
X83972Y-74822D01*
X84058Y-74822D01*
X84112Y-74851D01*
X71172Y-72508D02*
X70972Y-72508D01*
X70972Y-72822D02*
X70972Y-72222D01*
X71258Y-72222D01*
X71487Y-72822D02*
X71487Y-72422D01*
X71487Y-72222D02*
X71458Y-72251D01*
X71487Y-72280D01*
X71515Y-72251D01*
X71487Y-72222D01*
X71487Y-72280D01*
X71858Y-72822D02*
X71801Y-72794D01*
X71772Y-72737D01*
X71772Y-72222D01*
X72315Y-72794D02*
X72258Y-72822D01*
X72144Y-72822D01*
X72087Y-72794D01*
X72058Y-72737D01*
X72058Y-72508D01*
X72087Y-72451D01*
X72144Y-72422D01*
X72258Y-72422D01*
X72315Y-72451D01*
X72344Y-72508D01*
X72344Y-72565D01*
X72058Y-72622D01*
X72601Y-72765D02*
X72630Y-72794D01*
X72601Y-72822D01*
X72572Y-72794D01*
X72601Y-72765D01*
X72601Y-72822D01*
X72601Y-72451D02*
X72630Y-72480D01*
X72601Y-72508D01*
X72572Y-72480D01*
X72601Y-72451D01*
X72601Y-72508D01*
X73344Y-72422D02*
X73344Y-73022D01*
X73344Y-72451D02*
X73401Y-72422D01*
X73515Y-72422D01*
X73572Y-72451D01*
X73601Y-72480D01*
X73630Y-72537D01*
X73630Y-72708D01*
X73601Y-72765D01*
X73572Y-72794D01*
X73515Y-72822D01*
X73401Y-72822D01*
X73344Y-72794D01*
X73887Y-72822D02*
X73887Y-72422D01*
X73887Y-72537D02*
X73915Y-72480D01*
X73944Y-72451D01*
X74001Y-72422D01*
X74058Y-72422D01*
X74344Y-72822D02*
X74287Y-72794D01*
X74258Y-72765D01*
X74230Y-72708D01*
X74230Y-72537D01*
X74258Y-72480D01*
X74287Y-72451D01*
X74344Y-72422D01*
X74430Y-72422D01*
X74487Y-72451D01*
X74515Y-72480D01*
X74544Y-72537D01*
X74544Y-72708D01*
X74515Y-72765D01*
X74487Y-72794D01*
X74430Y-72822D01*
X74344Y-72822D01*
X74801Y-72822D02*
X74801Y-72222D01*
X74801Y-72451D02*
X74858Y-72422D01*
X74972Y-72422D01*
X75030Y-72451D01*
X75058Y-72480D01*
X75087Y-72537D01*
X75087Y-72708D01*
X75058Y-72765D01*
X75030Y-72794D01*
X74972Y-72822D01*
X74858Y-72822D01*
X74801Y-72794D01*
X75572Y-72794D02*
X75515Y-72822D01*
X75401Y-72822D01*
X75344Y-72794D01*
X75315Y-72737D01*
X75315Y-72508D01*
X75344Y-72451D01*
X75401Y-72422D01*
X75515Y-72422D01*
X75572Y-72451D01*
X75601Y-72508D01*
X75601Y-72565D01*
X75315Y-72622D01*
X75830Y-72794D02*
X75887Y-72822D01*
X76001Y-72822D01*
X76058Y-72794D01*
X76087Y-72737D01*
X76087Y-72708D01*
X76058Y-72651D01*
X76001Y-72622D01*
X75915Y-72622D01*
X75858Y-72594D01*
X75830Y-72537D01*
X75830Y-72508D01*
X75858Y-72451D01*
X75915Y-72422D01*
X76001Y-72422D01*
X76058Y-72451D01*
X76344Y-72765D02*
X76372Y-72794D01*
X76344Y-72822D01*
X76315Y-72794D01*
X76344Y-72765D01*
X76344Y-72822D01*
X76630Y-72822D02*
X76630Y-72222D01*
X76630Y-72451D02*
X76687Y-72422D01*
X76801Y-72422D01*
X76858Y-72451D01*
X76887Y-72480D01*
X76915Y-72537D01*
X76915Y-72708D01*
X76887Y-72765D01*
X76858Y-72794D01*
X76801Y-72822D01*
X76687Y-72822D01*
X76630Y-72794D01*
X77172Y-72822D02*
X77172Y-72422D01*
X77172Y-72537D02*
X77201Y-72480D01*
X77230Y-72451D01*
X77287Y-72422D01*
X77344Y-72422D01*
X77801Y-72822D02*
X77801Y-72222D01*
X77801Y-72794D02*
X77744Y-72822D01*
X77630Y-72822D01*
X77572Y-72794D01*
X77544Y-72765D01*
X77515Y-72708D01*
X77515Y-72537D01*
X77544Y-72480D01*
X77572Y-72451D01*
X77630Y-72422D01*
X77744Y-72422D01*
X77801Y-72451D01*
X70944Y-73994D02*
X71030Y-74022D01*
X71172Y-74022D01*
X71230Y-73994D01*
X71258Y-73965D01*
X71287Y-73908D01*
X71287Y-73851D01*
X71258Y-73794D01*
X71230Y-73765D01*
X71172Y-73737D01*
X71058Y-73708D01*
X71001Y-73680D01*
X70972Y-73651D01*
X70944Y-73594D01*
X70944Y-73537D01*
X70972Y-73480D01*
X71001Y-73451D01*
X71058Y-73422D01*
X71201Y-73422D01*
X71287Y-73451D01*
X71544Y-74022D02*
X71544Y-73422D01*
X71801Y-74022D02*
X71801Y-73708D01*
X71772Y-73651D01*
X71715Y-73622D01*
X71630Y-73622D01*
X71572Y-73651D01*
X71544Y-73680D01*
X72315Y-73994D02*
X72258Y-74022D01*
X72144Y-74022D01*
X72087Y-73994D01*
X72058Y-73937D01*
X72058Y-73708D01*
X72087Y-73651D01*
X72144Y-73622D01*
X72258Y-73622D01*
X72315Y-73651D01*
X72344Y-73708D01*
X72344Y-73765D01*
X72058Y-73822D01*
X72830Y-73994D02*
X72772Y-74022D01*
X72658Y-74022D01*
X72601Y-73994D01*
X72572Y-73937D01*
X72572Y-73708D01*
X72601Y-73651D01*
X72658Y-73622D01*
X72772Y-73622D01*
X72830Y-73651D01*
X72858Y-73708D01*
X72858Y-73765D01*
X72572Y-73822D01*
X73030Y-73622D02*
X73258Y-73622D01*
X73115Y-73422D02*
X73115Y-73937D01*
X73144Y-73994D01*
X73201Y-74022D01*
X73258Y-74022D01*
X73458Y-73965D02*
X73487Y-73994D01*
X73458Y-74022D01*
X73430Y-73994D01*
X73458Y-73965D01*
X73458Y-74022D01*
X73458Y-73651D02*
X73487Y-73680D01*
X73458Y-73708D01*
X73430Y-73680D01*
X73458Y-73651D01*
X73458Y-73708D01*
X70230Y-71980D02*
X70230Y-77980D01*
X70230Y-71980D02*
X112230Y-71980D01*
X70230Y-71980D02*
X112230Y-71980D01*
X70230Y-74380D02*
X112230Y-74380D01*
X103430Y-75580D02*
X103430Y-77980D01*
X70230Y-76780D02*
X112230Y-76780D01*
X70230Y-75580D02*
X112230Y-75580D01*
X76830Y-75580D02*
X76830Y-76780D01*
G54D11*
X68307Y-19685D02*
X68307Y-38976D01*
X24409Y-19685D02*
X68307Y-19685D01*
X24409Y-20078D02*
X24409Y-19685D01*
X24409Y-20669D02*
X24409Y-20078D01*
X24409Y-38976D02*
X24409Y-20669D01*
X68307Y-38976D02*
X24409Y-38976D01*
G54D12*
X64582Y-27952D03*
X63582Y-27952D03*
X62582Y-27952D03*
X58448Y-27952D03*
X59448Y-27952D03*
X60448Y-27952D03*
G54D13*
X31220Y-25724D03*
X31220Y-27724D03*
X31220Y-29724D03*
X31220Y-31724D03*
X31220Y-33724D03*
X41220Y-33724D03*
X41220Y-31724D03*
X41220Y-29724D03*
X41220Y-27724D03*
X41220Y-25724D03*
G54D14*
X41220Y-22834D03*
X31220Y-22834D03*
X31220Y-36614D03*
X41220Y-36614D03*
G54D15*
X46562Y-25681D03*
G54D16*
X45562Y-25681D03*
X45562Y-26681D03*
G54D15*
X46169Y-34948D03*
G54D16*
X46169Y-33948D03*
X45169Y-33948D03*
G54D17*
X60196Y-35019D03*
X64212Y-35019D03*
X62204Y-37027D03*
G54D14*
X62204Y-35019D03*
G54D17*
X54094Y-35019D03*
X58110Y-35019D03*
X56102Y-37027D03*
G54D14*
X56102Y-35019D03*
G54D17*
X64212Y-23641D03*
X60196Y-23641D03*
X62204Y-21633D03*
G54D14*
X62204Y-23641D03*
G54D17*
X58110Y-23641D03*
X54094Y-23641D03*
X56102Y-21633D03*
G54D14*
X56102Y-23641D03*
G54D18*
X50787Y-34539D03*
X50787Y-35539D03*
X67519Y-34539D03*
X67519Y-35539D03*
G54D19*
X55471Y-32086D03*
X54371Y-32086D03*
X60867Y-31889D03*
X61967Y-31889D03*
X63935Y-31889D03*
X62835Y-31889D03*
X65198Y-37204D03*
X66298Y-37204D03*
X65198Y-31889D03*
X66298Y-31889D03*
X53109Y-37204D03*
X52009Y-37204D03*
X53502Y-31889D03*
X52402Y-31889D03*
X55471Y-32874D03*
X54371Y-32874D03*
X47990Y-23031D03*
X46890Y-23031D03*
X46219Y-37992D03*
X45119Y-37992D03*
G54D20*
X58480Y-32677D03*
G54D21*
X57480Y-32677D03*
X56480Y-32677D03*
G54D20*
X61007Y-32874D03*
G54D21*
X62007Y-32874D03*
X63007Y-32874D03*
G54D22*
X49440Y-21456D03*
G54D23*
X47440Y-21456D03*
X45440Y-21456D03*
G54D22*
X26181Y-33842D03*
G54D23*
X26181Y-35842D03*
G54D24*
X51574Y-33464D03*
X51574Y-32676D03*
X51574Y-32086D03*
X51574Y-31298D03*
X52362Y-32676D03*
X52362Y-33464D03*
X67125Y-31890D03*
X67125Y-31102D03*
X66338Y-32676D03*
X66338Y-33464D03*
X66929Y-33464D03*
X66929Y-32676D03*
X49409Y-23425D03*
X49409Y-22637D03*
X45472Y-22637D03*
X45472Y-23425D03*
G54D18*
X48334Y-24409D03*
X47334Y-24409D03*
X45169Y-36811D03*
X46169Y-36811D03*
G54D23*
X26181Y-31647D03*
X26181Y-23077D03*
G54D15*
X54255Y-26452D03*
G54D16*
X53255Y-26452D03*
X52255Y-26452D03*
X51255Y-26452D03*
X51255Y-29452D03*
X52255Y-29452D03*
X53255Y-29452D03*
X54255Y-29452D03*
G54D25*
X51968Y-34489D03*
X51968Y-35589D03*
X48228Y-27715D03*
X48228Y-26615D03*
X49409Y-28387D03*
X49409Y-29487D03*
G54D19*
X56455Y-29330D03*
X55355Y-29330D03*
G54D25*
X48425Y-34014D03*
X48425Y-32914D03*
X47440Y-27715D03*
X47440Y-26615D03*
X48622Y-28387D03*
X48622Y-29487D03*
X47637Y-34686D03*
X47637Y-35786D03*
X47637Y-34014D03*
X47637Y-32914D03*
X66338Y-34489D03*
X66338Y-35589D03*
G54D19*
X65198Y-36417D03*
X66298Y-36417D03*
X66298Y-37992D03*
X65198Y-37992D03*
X52009Y-37992D03*
X53109Y-37992D03*
X53109Y-36417D03*
X52009Y-36417D03*
G54D26*
X45456Y-29118D03*
X45456Y-31118D03*
X47456Y-31118D03*
X47456Y-29118D03*
G54D13*
X25393Y-37992D03*
X25393Y-20669D03*
X50000Y-37204D03*
X51771Y-21850D03*
X66929Y-21850D03*
G54D27*
X47637Y-37204D03*
X67125Y-30511D03*
X50393Y-31889D03*
X49606Y-26574D03*
X49212Y-31102D03*
X50787Y-33464D03*
X67716Y-33464D03*
G54D28*
X53109Y-37992D02*
X53937Y-37992D01*
X54330Y-36791D02*
X56102Y-35019D01*
X54330Y-37598D02*
X54330Y-36791D01*
X53937Y-37992D02*
X54330Y-37598D01*
X62204Y-23641D02*
X62204Y-25000D01*
X63582Y-25787D02*
X63582Y-27952D01*
X63188Y-25393D02*
X63582Y-25787D01*
X62598Y-25393D02*
X63188Y-25393D01*
X62204Y-25000D02*
X62598Y-25393D01*
X65198Y-37992D02*
X64370Y-37992D01*
X63976Y-36791D02*
X62204Y-35019D01*
X63976Y-37598D02*
X63976Y-36791D01*
X64370Y-37992D02*
X63976Y-37598D01*
X56102Y-23641D02*
X56102Y-25000D01*
X59448Y-25984D02*
X59448Y-27952D01*
X59055Y-25590D02*
X59448Y-25984D01*
X56692Y-25590D02*
X59055Y-25590D01*
X56102Y-25000D02*
X56692Y-25590D01*
X47456Y-31118D02*
X47456Y-32733D01*
X47456Y-32733D02*
X47637Y-32914D01*
X48425Y-32914D02*
X47637Y-32914D01*
X45169Y-33948D02*
X45169Y-33374D01*
X45628Y-32914D02*
X47637Y-32914D01*
X45169Y-33374D02*
X45628Y-32914D01*
X47637Y-35786D02*
X48268Y-35786D01*
X49803Y-32676D02*
X51574Y-32676D01*
X49803Y-32677D02*
X49803Y-32676D01*
X49803Y-34251D02*
X49803Y-32677D01*
X48268Y-35786D02*
X49803Y-34251D01*
X54255Y-29452D02*
X55233Y-29452D01*
X55233Y-29452D02*
X55355Y-29330D01*
X47637Y-35786D02*
X47637Y-37204D01*
X47637Y-35786D02*
X46259Y-35786D01*
X46259Y-35786D02*
X46169Y-35695D01*
X46169Y-35695D02*
X46169Y-34948D01*
X46259Y-35786D02*
X45709Y-35786D01*
X45169Y-36326D02*
X45169Y-36811D01*
X45709Y-35786D02*
X45169Y-36326D01*
X45472Y-23425D02*
X45472Y-23425D01*
X44685Y-25803D02*
X45562Y-26681D01*
X44685Y-24212D02*
X44685Y-25803D01*
X45472Y-23425D02*
X44685Y-24212D01*
X47456Y-29118D02*
X47228Y-29118D01*
X46456Y-27574D02*
X45562Y-26681D01*
X46456Y-28346D02*
X46456Y-27574D01*
X47228Y-29118D02*
X46456Y-28346D01*
X47456Y-29118D02*
X47622Y-29118D01*
X47990Y-29487D02*
X48622Y-29487D01*
X47622Y-29118D02*
X47990Y-29487D01*
X49409Y-29487D02*
X48622Y-29487D01*
G54D29*
X67125Y-31102D02*
X67125Y-30511D01*
G54D28*
X51574Y-31298D02*
X50984Y-31298D01*
X50984Y-31298D02*
X50393Y-31889D01*
X49606Y-26574D02*
X50393Y-26574D01*
X49565Y-26615D02*
X49606Y-26574D01*
X48228Y-26615D02*
X49565Y-26615D01*
X50515Y-26452D02*
X51255Y-26452D01*
X50393Y-26574D02*
X50515Y-26452D01*
X46562Y-25681D02*
X46562Y-25181D01*
X46562Y-25181D02*
X47334Y-24409D01*
X46562Y-25681D02*
X46562Y-25737D01*
X46562Y-25737D02*
X47440Y-26615D01*
X48228Y-26615D02*
X47440Y-26615D01*
X60448Y-27952D02*
X62582Y-27952D01*
G54D29*
X63007Y-32874D02*
X64960Y-32874D01*
X65198Y-32636D02*
X65198Y-31889D01*
X64960Y-32874D02*
X65198Y-32636D01*
X53502Y-31889D02*
X53502Y-33505D01*
X53109Y-35786D02*
X53109Y-36417D01*
X52952Y-35629D02*
X53109Y-35786D01*
X52952Y-34055D02*
X52952Y-35629D01*
X53502Y-33505D02*
X52952Y-34055D01*
X53109Y-36417D02*
X53109Y-37204D01*
G54D28*
X48425Y-34014D02*
X49172Y-34014D01*
X50040Y-28387D02*
X48622Y-28387D01*
X50196Y-28543D02*
X50040Y-28387D01*
X50196Y-30118D02*
X50196Y-28543D01*
X49212Y-31102D02*
X50196Y-30118D01*
X49212Y-33974D02*
X49212Y-31102D01*
X49172Y-34014D02*
X49212Y-33974D01*
X45562Y-25681D02*
X45562Y-24712D01*
X46456Y-23465D02*
X46890Y-23031D01*
X46456Y-23818D02*
X46456Y-23465D01*
X45562Y-24712D02*
X46456Y-23818D01*
X46890Y-23031D02*
X46890Y-22006D01*
X46890Y-22006D02*
X47440Y-21456D01*
X48622Y-28387D02*
X48622Y-28109D01*
X48622Y-28109D02*
X48228Y-27715D01*
X47440Y-27715D02*
X48228Y-27715D01*
X49409Y-28387D02*
X48622Y-28387D01*
X46169Y-33948D02*
X47572Y-33948D01*
X47572Y-33948D02*
X47637Y-34014D01*
X48425Y-34014D02*
X47637Y-34014D01*
X48425Y-34014D02*
X48425Y-34686D01*
X47637Y-34686D02*
X48425Y-34686D01*
G54D30*
X41220Y-27724D02*
X39992Y-27724D01*
X39992Y-31724D02*
X41220Y-31724D01*
X39566Y-31299D02*
X39992Y-31724D01*
X39566Y-28149D02*
X39566Y-31299D01*
X39992Y-27724D02*
X39566Y-28149D01*
X41220Y-25724D02*
X42062Y-25724D01*
X42062Y-25724D02*
X45456Y-29118D01*
X41220Y-33724D02*
X42850Y-33724D01*
X42850Y-33724D02*
X45456Y-31118D01*
G54D28*
X55471Y-32086D02*
X55471Y-31536D01*
X57480Y-31299D02*
X57480Y-32677D01*
X55708Y-31299D02*
X57480Y-31299D01*
X55471Y-31536D02*
X55708Y-31299D01*
X52255Y-29452D02*
X52255Y-29814D01*
X54371Y-30946D02*
X54371Y-32086D01*
X54330Y-30905D02*
X54371Y-30946D01*
X53346Y-30905D02*
X54330Y-30905D01*
X52255Y-29814D02*
X53346Y-30905D01*
X54371Y-32874D02*
X54371Y-32086D01*
X58448Y-27952D02*
X58448Y-28740D01*
X58448Y-30314D02*
X58464Y-30314D01*
X58448Y-28740D02*
X58448Y-30314D01*
X55471Y-32874D02*
X55471Y-33620D01*
X59251Y-30314D02*
X58464Y-30314D01*
X58464Y-30314D02*
X57874Y-30314D01*
X59251Y-33661D02*
X59251Y-30314D01*
X55511Y-33661D02*
X59251Y-33661D01*
X55471Y-33620D02*
X55511Y-33661D01*
X53255Y-29452D02*
X53255Y-29830D01*
X53740Y-30314D02*
X57874Y-30314D01*
X53255Y-29830D02*
X53740Y-30314D01*
G54D30*
X26181Y-31647D02*
X26181Y-33842D01*
G54D28*
X45472Y-22637D02*
X45472Y-21488D01*
X45472Y-21488D02*
X45440Y-21456D01*
X49440Y-21456D02*
X49440Y-22606D01*
X49440Y-22606D02*
X49409Y-22637D01*
G54D30*
X26181Y-23077D02*
X26181Y-24015D01*
X27889Y-25724D02*
X31220Y-25724D01*
X26181Y-24015D02*
X27889Y-25724D01*
G54D28*
X51968Y-35589D02*
X50837Y-35589D01*
X50837Y-35589D02*
X50787Y-35539D01*
X51968Y-35589D02*
X51968Y-36376D01*
X51968Y-36376D02*
X52009Y-36417D01*
X52009Y-36417D02*
X52009Y-37204D01*
X52009Y-37992D02*
X52009Y-37204D01*
G54D29*
X62007Y-32874D02*
X62007Y-33661D01*
X60039Y-31889D02*
X60867Y-31889D01*
X60039Y-32086D02*
X60039Y-31889D01*
X60039Y-33661D02*
X60039Y-32086D01*
X62007Y-33661D02*
X60039Y-33661D01*
G54D28*
X66338Y-32676D02*
X66338Y-31930D01*
X66338Y-31930D02*
X66298Y-31889D01*
X67125Y-31890D02*
X66298Y-31890D01*
X66298Y-31890D02*
X66298Y-31889D01*
X64582Y-27952D02*
X64582Y-28740D01*
X63935Y-30749D02*
X64582Y-30102D01*
X64582Y-30102D02*
X64582Y-28740D01*
X63935Y-30749D02*
X63935Y-31889D01*
G54D29*
X51574Y-33464D02*
X50787Y-33464D01*
X50787Y-33464D02*
X50787Y-33464D01*
G54D28*
X51968Y-34489D02*
X51968Y-33464D01*
X51968Y-33464D02*
X51968Y-33464D01*
X51968Y-33464D02*
X51968Y-33464D01*
X51574Y-33464D02*
X51968Y-33464D01*
X51968Y-33464D02*
X52362Y-33464D01*
X50787Y-34539D02*
X51918Y-34539D01*
X51918Y-34539D02*
X51968Y-34489D01*
G54D29*
X66929Y-33464D02*
X67716Y-33464D01*
X67716Y-33464D02*
X67716Y-33464D01*
G54D28*
X66338Y-33464D02*
X66338Y-34489D01*
X66338Y-33464D02*
X66929Y-33464D01*
X66338Y-34489D02*
X67469Y-34489D01*
X67469Y-34489D02*
X67519Y-34539D01*
G54D29*
X62835Y-31889D02*
X61967Y-31889D01*
G54D30*
X31220Y-33724D02*
X28874Y-33724D01*
X27740Y-35842D02*
X26181Y-35842D01*
X28346Y-35236D02*
X27740Y-35842D01*
X28346Y-34251D02*
X28346Y-35236D01*
X28874Y-33724D02*
X28346Y-34251D01*
G54D28*
X48334Y-24409D02*
X48334Y-23375D01*
X48334Y-23375D02*
X47990Y-23031D01*
X66338Y-35589D02*
X67469Y-35589D01*
X67469Y-35589D02*
X67519Y-35539D01*
X66338Y-35589D02*
X66338Y-36376D01*
X66338Y-36376D02*
X66298Y-36417D01*
X66298Y-36417D02*
X66298Y-37204D01*
X66298Y-37992D02*
X66298Y-37204D01*
X46169Y-36811D02*
X46169Y-37942D01*
X46169Y-37942D02*
X46219Y-37992D01*
X51574Y-32086D02*
X52205Y-32086D01*
X52205Y-32086D02*
X52402Y-31889D01*
X52362Y-32676D02*
X52362Y-31930D01*
X52362Y-31930D02*
X52402Y-31889D01*
G54D10*
G36*
X45565Y-25681D02*
X45562Y-25683D01*
X45560Y-25681D01*
X45562Y-25678D01*
X45565Y-25681D01*
X45565Y-25681D01*
G37*
G54D31*
X45565Y-25681D02*
X45562Y-25683D01*
X45560Y-25681D01*
X45562Y-25678D01*
X45565Y-25681D01*
G54D10*
G36*
X46171Y-33948D02*
X46169Y-33951D01*
X46169Y-33951D01*
X46167Y-33948D01*
X46169Y-33946D01*
X46171Y-33948D01*
X46171Y-33948D01*
G37*
G54D31*
X46171Y-33948D02*
X46169Y-33951D01*
X46169Y-33951D01*
X46167Y-33948D01*
X46169Y-33946D01*
X46171Y-33948D01*
G54D10*
G36*
X48374Y-22184D02*
X48335Y-22184D01*
X48335Y-21313D01*
X48212Y-20981D01*
X48175Y-20925D01*
X48030Y-20869D01*
X47443Y-21456D01*
X48030Y-22043D01*
X48175Y-21988D01*
X48322Y-21666D01*
X48335Y-21313D01*
X48335Y-22184D01*
X48208Y-22184D01*
X47974Y-22184D01*
X48027Y-22045D01*
X47440Y-21458D01*
X47438Y-21461D01*
X47438Y-21456D01*
X46851Y-20869D01*
X46706Y-20925D01*
X46559Y-21246D01*
X46546Y-21600D01*
X46668Y-21931D01*
X46706Y-21988D01*
X46851Y-22043D01*
X47438Y-21456D01*
X47438Y-21461D01*
X46853Y-22045D01*
X46909Y-22190D01*
X47230Y-22338D01*
X47314Y-22341D01*
X47274Y-22381D01*
X47265Y-22378D01*
X46967Y-22378D01*
X46892Y-22452D01*
X46892Y-22931D01*
X46892Y-23029D01*
X46892Y-23033D01*
X46889Y-23033D01*
X46889Y-23029D01*
X46889Y-22452D01*
X46814Y-22378D01*
X46516Y-22378D01*
X46407Y-22423D01*
X46323Y-22507D01*
X46277Y-22616D01*
X46277Y-22735D01*
X46277Y-22955D01*
X46352Y-23029D01*
X46889Y-23029D01*
X46889Y-23033D01*
X46790Y-23033D01*
X46352Y-23033D01*
X46277Y-23107D01*
X46277Y-23327D01*
X46277Y-23446D01*
X46323Y-23555D01*
X46407Y-23639D01*
X46516Y-23684D01*
X46806Y-23684D01*
X46584Y-23907D01*
X46449Y-24232D01*
X46449Y-24320D01*
X46075Y-24693D01*
X45926Y-24917D01*
X45888Y-25109D01*
X45871Y-25126D01*
X45848Y-25181D01*
X45697Y-25112D01*
X45469Y-25103D01*
X45374Y-25139D01*
X45374Y-24497D01*
X45796Y-24075D01*
X45825Y-24075D01*
X46006Y-24000D01*
X46145Y-23862D01*
X46220Y-23681D01*
X46220Y-23485D01*
X46220Y-23170D01*
X46163Y-23031D01*
X46220Y-22893D01*
X46220Y-22697D01*
X46220Y-22382D01*
X46169Y-22259D01*
X46358Y-22070D01*
X46523Y-21672D01*
X46523Y-21242D01*
X46359Y-20844D01*
X46282Y-20767D01*
X46892Y-20767D01*
X46853Y-20867D01*
X47440Y-21454D01*
X48027Y-20867D01*
X47989Y-20767D01*
X48358Y-20767D01*
X48358Y-20767D01*
X48358Y-20963D01*
X48358Y-22144D01*
X48374Y-22184D01*
X48374Y-22184D01*
G37*
G54D31*
X48374Y-22184D02*
X48335Y-22184D01*
X48335Y-21313D01*
X48212Y-20981D01*
X48175Y-20925D01*
X48030Y-20869D01*
X47443Y-21456D01*
X48030Y-22043D01*
X48175Y-21988D01*
X48322Y-21666D01*
X48335Y-21313D01*
X48335Y-22184D01*
X48208Y-22184D01*
X47974Y-22184D01*
X48027Y-22045D01*
X47440Y-21458D01*
X47438Y-21461D01*
X47438Y-21456D01*
X46851Y-20869D01*
X46706Y-20925D01*
X46559Y-21246D01*
X46546Y-21600D01*
X46668Y-21931D01*
X46706Y-21988D01*
X46851Y-22043D01*
X47438Y-21456D01*
X47438Y-21461D01*
X46853Y-22045D01*
X46909Y-22190D01*
X47230Y-22338D01*
X47314Y-22341D01*
X47274Y-22381D01*
X47265Y-22378D01*
X46967Y-22378D01*
X46892Y-22452D01*
X46892Y-22931D01*
X46892Y-23029D01*
X46892Y-23033D01*
X46889Y-23033D01*
X46889Y-23029D01*
X46889Y-22452D01*
X46814Y-22378D01*
X46516Y-22378D01*
X46407Y-22423D01*
X46323Y-22507D01*
X46277Y-22616D01*
X46277Y-22735D01*
X46277Y-22955D01*
X46352Y-23029D01*
X46889Y-23029D01*
X46889Y-23033D01*
X46790Y-23033D01*
X46352Y-23033D01*
X46277Y-23107D01*
X46277Y-23327D01*
X46277Y-23446D01*
X46323Y-23555D01*
X46407Y-23639D01*
X46516Y-23684D01*
X46806Y-23684D01*
X46584Y-23907D01*
X46449Y-24232D01*
X46449Y-24320D01*
X46075Y-24693D01*
X45926Y-24917D01*
X45888Y-25109D01*
X45871Y-25126D01*
X45848Y-25181D01*
X45697Y-25112D01*
X45469Y-25103D01*
X45374Y-25139D01*
X45374Y-24497D01*
X45796Y-24075D01*
X45825Y-24075D01*
X46006Y-24000D01*
X46145Y-23862D01*
X46220Y-23681D01*
X46220Y-23485D01*
X46220Y-23170D01*
X46163Y-23031D01*
X46220Y-22893D01*
X46220Y-22697D01*
X46220Y-22382D01*
X46169Y-22259D01*
X46358Y-22070D01*
X46523Y-21672D01*
X46523Y-21242D01*
X46359Y-20844D01*
X46282Y-20767D01*
X46892Y-20767D01*
X46853Y-20867D01*
X47440Y-21454D01*
X48027Y-20867D01*
X47989Y-20767D01*
X48358Y-20767D01*
X48358Y-20767D01*
X48358Y-20963D01*
X48358Y-22144D01*
X48374Y-22184D01*
G54D10*
G36*
X48477Y-34603D02*
X48423Y-34657D01*
X48423Y-34553D01*
X48423Y-34016D01*
X48216Y-34016D01*
X47846Y-34016D01*
X47639Y-34016D01*
X47639Y-34147D01*
X47639Y-34553D01*
X47639Y-34684D01*
X48216Y-34684D01*
X48273Y-34628D01*
X48349Y-34627D01*
X48423Y-34553D01*
X48423Y-34657D01*
X48291Y-34789D01*
X48291Y-34762D01*
X48216Y-34687D01*
X47737Y-34687D01*
X47639Y-34687D01*
X47636Y-34687D01*
X47636Y-34684D01*
X47636Y-34553D01*
X47636Y-34147D01*
X47636Y-34016D01*
X47058Y-34016D01*
X46984Y-34090D01*
X46984Y-34312D01*
X46984Y-34312D01*
X46984Y-34350D01*
X46984Y-34388D01*
X46984Y-34388D01*
X46984Y-34610D01*
X47058Y-34684D01*
X47636Y-34684D01*
X47636Y-34687D01*
X47537Y-34687D01*
X47058Y-34687D01*
X46984Y-34762D01*
X46984Y-35060D01*
X46988Y-35069D01*
X46960Y-35097D01*
X46936Y-35097D01*
X46936Y-34576D01*
X46861Y-34395D01*
X46723Y-34256D01*
X46669Y-34234D01*
X46738Y-34083D01*
X46746Y-33855D01*
X46666Y-33641D01*
X46647Y-33612D01*
X46652Y-33607D01*
X46648Y-33603D01*
X46960Y-33603D01*
X46988Y-33631D01*
X46984Y-33640D01*
X46984Y-33938D01*
X47058Y-34012D01*
X47537Y-34012D01*
X47636Y-34012D01*
X47639Y-34012D01*
X47737Y-34012D01*
X47846Y-34012D01*
X48216Y-34012D01*
X48325Y-34012D01*
X48423Y-34012D01*
X48426Y-34012D01*
X48426Y-34016D01*
X48426Y-34114D01*
X48426Y-34553D01*
X48477Y-34603D01*
X48477Y-34603D01*
G37*
G54D31*
X48477Y-34603D02*
X48423Y-34657D01*
X48423Y-34553D01*
X48423Y-34016D01*
X48216Y-34016D01*
X47846Y-34016D01*
X47639Y-34016D01*
X47639Y-34147D01*
X47639Y-34553D01*
X47639Y-34684D01*
X48216Y-34684D01*
X48273Y-34628D01*
X48349Y-34627D01*
X48423Y-34553D01*
X48423Y-34657D01*
X48291Y-34789D01*
X48291Y-34762D01*
X48216Y-34687D01*
X47737Y-34687D01*
X47639Y-34687D01*
X47636Y-34687D01*
X47636Y-34684D01*
X47636Y-34553D01*
X47636Y-34147D01*
X47636Y-34016D01*
X47058Y-34016D01*
X46984Y-34090D01*
X46984Y-34312D01*
X46984Y-34312D01*
X46984Y-34350D01*
X46984Y-34388D01*
X46984Y-34388D01*
X46984Y-34610D01*
X47058Y-34684D01*
X47636Y-34684D01*
X47636Y-34687D01*
X47537Y-34687D01*
X47058Y-34687D01*
X46984Y-34762D01*
X46984Y-35060D01*
X46988Y-35069D01*
X46960Y-35097D01*
X46936Y-35097D01*
X46936Y-34576D01*
X46861Y-34395D01*
X46723Y-34256D01*
X46669Y-34234D01*
X46738Y-34083D01*
X46746Y-33855D01*
X46666Y-33641D01*
X46647Y-33612D01*
X46652Y-33607D01*
X46648Y-33603D01*
X46960Y-33603D01*
X46988Y-33631D01*
X46984Y-33640D01*
X46984Y-33938D01*
X47058Y-34012D01*
X47537Y-34012D01*
X47636Y-34012D01*
X47639Y-34012D01*
X47737Y-34012D01*
X47846Y-34012D01*
X48216Y-34012D01*
X48325Y-34012D01*
X48423Y-34012D01*
X48426Y-34012D01*
X48426Y-34016D01*
X48426Y-34114D01*
X48426Y-34553D01*
X48477Y-34603D01*
G54D10*
G36*
X55471Y-34342D02*
X55318Y-34494D01*
X55180Y-34826D01*
X55037Y-34439D01*
X54991Y-34370D01*
X54825Y-34290D01*
X54823Y-34292D01*
X54823Y-34288D01*
X54743Y-34123D01*
X54351Y-33942D01*
X53919Y-33926D01*
X53514Y-34076D01*
X53445Y-34123D01*
X53365Y-34288D01*
X54094Y-35017D01*
X54823Y-34288D01*
X54823Y-34292D01*
X54166Y-34950D01*
X54096Y-35019D01*
X54094Y-35021D01*
X54092Y-35019D01*
X54022Y-34950D01*
X53363Y-34290D01*
X53197Y-34370D01*
X53017Y-34762D01*
X53001Y-35194D01*
X53151Y-35599D01*
X53197Y-35669D01*
X53269Y-35703D01*
X53242Y-35730D01*
X53275Y-35763D01*
X53185Y-35763D01*
X53110Y-35838D01*
X53110Y-36415D01*
X53647Y-36415D01*
X53722Y-36341D01*
X53722Y-36121D01*
X53722Y-36043D01*
X53837Y-36096D01*
X54043Y-36104D01*
X53843Y-36304D01*
X53719Y-36490D01*
X53647Y-36418D01*
X53110Y-36418D01*
X53110Y-36625D01*
X53110Y-36996D01*
X53110Y-37104D01*
X53110Y-37144D01*
X53107Y-37144D01*
X53107Y-37104D01*
X53107Y-36996D01*
X53107Y-36625D01*
X53107Y-36517D01*
X53107Y-36418D01*
X53107Y-36415D01*
X53107Y-36317D01*
X53107Y-35838D01*
X53032Y-35763D01*
X52815Y-35763D01*
X52815Y-35176D01*
X52758Y-35039D01*
X52815Y-34902D01*
X52815Y-34706D01*
X52815Y-34076D01*
X52814Y-34073D01*
X52896Y-34039D01*
X53035Y-33901D01*
X53110Y-33720D01*
X53110Y-33524D01*
X53110Y-33209D01*
X53052Y-33070D01*
X53110Y-32932D01*
X53110Y-32736D01*
X53110Y-32548D01*
X53119Y-32539D01*
X53128Y-32543D01*
X53426Y-32543D01*
X53501Y-32468D01*
X53501Y-31989D01*
X53501Y-31891D01*
X53501Y-31888D01*
X53504Y-31888D01*
X53504Y-31891D01*
X53504Y-31989D01*
X53504Y-32468D01*
X53564Y-32528D01*
X53564Y-32539D01*
X53564Y-32539D01*
X53564Y-32616D01*
X53564Y-33326D01*
X53638Y-33507D01*
X53777Y-33645D01*
X53957Y-33721D01*
X54153Y-33721D01*
X54783Y-33721D01*
X54800Y-33714D01*
X54834Y-33884D01*
X54984Y-34108D01*
X55024Y-34148D01*
X55024Y-34148D01*
X55248Y-34297D01*
X55248Y-34297D01*
X55471Y-34342D01*
X55471Y-34342D01*
G37*
G54D31*
X55471Y-34342D02*
X55318Y-34494D01*
X55180Y-34826D01*
X55037Y-34439D01*
X54991Y-34370D01*
X54825Y-34290D01*
X54823Y-34292D01*
X54823Y-34288D01*
X54743Y-34123D01*
X54351Y-33942D01*
X53919Y-33926D01*
X53514Y-34076D01*
X53445Y-34123D01*
X53365Y-34288D01*
X54094Y-35017D01*
X54823Y-34288D01*
X54823Y-34292D01*
X54166Y-34950D01*
X54096Y-35019D01*
X54094Y-35021D01*
X54092Y-35019D01*
X54022Y-34950D01*
X53363Y-34290D01*
X53197Y-34370D01*
X53017Y-34762D01*
X53001Y-35194D01*
X53151Y-35599D01*
X53197Y-35669D01*
X53269Y-35703D01*
X53242Y-35730D01*
X53275Y-35763D01*
X53185Y-35763D01*
X53110Y-35838D01*
X53110Y-36415D01*
X53647Y-36415D01*
X53722Y-36341D01*
X53722Y-36121D01*
X53722Y-36043D01*
X53837Y-36096D01*
X54043Y-36104D01*
X53843Y-36304D01*
X53719Y-36490D01*
X53647Y-36418D01*
X53110Y-36418D01*
X53110Y-36625D01*
X53110Y-36996D01*
X53110Y-37104D01*
X53110Y-37144D01*
X53107Y-37144D01*
X53107Y-37104D01*
X53107Y-36996D01*
X53107Y-36625D01*
X53107Y-36517D01*
X53107Y-36418D01*
X53107Y-36415D01*
X53107Y-36317D01*
X53107Y-35838D01*
X53032Y-35763D01*
X52815Y-35763D01*
X52815Y-35176D01*
X52758Y-35039D01*
X52815Y-34902D01*
X52815Y-34706D01*
X52815Y-34076D01*
X52814Y-34073D01*
X52896Y-34039D01*
X53035Y-33901D01*
X53110Y-33720D01*
X53110Y-33524D01*
X53110Y-33209D01*
X53052Y-33070D01*
X53110Y-32932D01*
X53110Y-32736D01*
X53110Y-32548D01*
X53119Y-32539D01*
X53128Y-32543D01*
X53426Y-32543D01*
X53501Y-32468D01*
X53501Y-31989D01*
X53501Y-31891D01*
X53501Y-31888D01*
X53504Y-31888D01*
X53504Y-31891D01*
X53504Y-31989D01*
X53504Y-32468D01*
X53564Y-32528D01*
X53564Y-32539D01*
X53564Y-32539D01*
X53564Y-32616D01*
X53564Y-33326D01*
X53638Y-33507D01*
X53777Y-33645D01*
X53957Y-33721D01*
X54153Y-33721D01*
X54783Y-33721D01*
X54800Y-33714D01*
X54834Y-33884D01*
X54984Y-34108D01*
X55024Y-34148D01*
X55024Y-34148D01*
X55248Y-34297D01*
X55248Y-34297D01*
X55471Y-34342D01*
G54D10*
G36*
X56481Y-32678D02*
X56478Y-32678D01*
X56478Y-32675D01*
X56481Y-32675D01*
X56481Y-32678D01*
X56481Y-32678D01*
G37*
G54D31*
X56481Y-32678D02*
X56478Y-32678D01*
X56478Y-32675D01*
X56481Y-32675D01*
X56481Y-32678D01*
G54D10*
G36*
X63827Y-38424D02*
X62933Y-38424D01*
X62933Y-37758D01*
X62204Y-37029D01*
X62202Y-37032D01*
X62202Y-37027D01*
X61473Y-36298D01*
X61308Y-36378D01*
X61127Y-36770D01*
X61111Y-37202D01*
X61261Y-37607D01*
X61308Y-37677D01*
X61473Y-37756D01*
X62202Y-37027D01*
X62202Y-37032D01*
X61475Y-37758D01*
X61555Y-37924D01*
X61947Y-38104D01*
X62379Y-38120D01*
X62784Y-37970D01*
X62854Y-37924D01*
X62933Y-37758D01*
X62933Y-38424D01*
X60925Y-38424D01*
X60925Y-35750D01*
X60196Y-35021D01*
X59467Y-35750D01*
X59547Y-35916D01*
X59939Y-36096D01*
X60371Y-36112D01*
X60776Y-35962D01*
X60846Y-35916D01*
X60925Y-35750D01*
X60925Y-38424D01*
X58839Y-38424D01*
X58839Y-35750D01*
X58110Y-35021D01*
X57381Y-35750D01*
X57460Y-35916D01*
X57853Y-36096D01*
X58284Y-36112D01*
X58690Y-35962D01*
X58759Y-35916D01*
X58839Y-35750D01*
X58839Y-38424D01*
X57195Y-38424D01*
X57195Y-36852D01*
X57045Y-36447D01*
X56998Y-36378D01*
X56833Y-36298D01*
X56104Y-37027D01*
X56833Y-37756D01*
X56998Y-37677D01*
X57179Y-37284D01*
X57195Y-36852D01*
X57195Y-38424D01*
X56831Y-38424D01*
X56831Y-37758D01*
X56102Y-37029D01*
X55373Y-37758D01*
X55452Y-37924D01*
X55845Y-38104D01*
X56277Y-38120D01*
X56682Y-37970D01*
X56751Y-37924D01*
X56831Y-37758D01*
X56831Y-38424D01*
X54479Y-38424D01*
X54817Y-38085D01*
X54817Y-38085D01*
X54817Y-38085D01*
X54967Y-37862D01*
X55019Y-37598D01*
X55019Y-37230D01*
X55159Y-37607D01*
X55205Y-37677D01*
X55371Y-37756D01*
X56030Y-37097D01*
X56100Y-37027D01*
X56102Y-37025D01*
X56171Y-36955D01*
X56171Y-36955D01*
X56831Y-36296D01*
X56751Y-36130D01*
X56359Y-35950D01*
X56208Y-35944D01*
X56285Y-35945D01*
X56625Y-35804D01*
X56886Y-35544D01*
X57023Y-35212D01*
X57167Y-35599D01*
X57213Y-35669D01*
X57379Y-35748D01*
X58038Y-35089D01*
X58038Y-35089D01*
X58108Y-35019D01*
X58110Y-35017D01*
X58112Y-35019D01*
X58182Y-35089D01*
X58841Y-35748D01*
X59006Y-35669D01*
X59157Y-35340D01*
X59253Y-35599D01*
X59300Y-35669D01*
X59465Y-35748D01*
X60125Y-35089D01*
X60194Y-35019D01*
X60196Y-35017D01*
X60196Y-35017D01*
X60199Y-35019D01*
X60268Y-35089D01*
X60928Y-35748D01*
X61093Y-35669D01*
X61273Y-35276D01*
X61279Y-35125D01*
X61279Y-35202D01*
X61419Y-35543D01*
X61679Y-35803D01*
X62011Y-35941D01*
X61624Y-36084D01*
X61555Y-36130D01*
X61475Y-36296D01*
X62135Y-36955D01*
X62135Y-36955D01*
X62204Y-37025D01*
X62206Y-37027D01*
X62276Y-37097D01*
X62935Y-37756D01*
X63101Y-37677D01*
X63281Y-37284D01*
X63287Y-37131D01*
X63287Y-37598D01*
X63339Y-37862D01*
X63489Y-38085D01*
X63827Y-38424D01*
X63827Y-38424D01*
G37*
G54D31*
X63827Y-38424D02*
X62933Y-38424D01*
X62933Y-37758D01*
X62204Y-37029D01*
X62202Y-37032D01*
X62202Y-37027D01*
X61473Y-36298D01*
X61308Y-36378D01*
X61127Y-36770D01*
X61111Y-37202D01*
X61261Y-37607D01*
X61308Y-37677D01*
X61473Y-37756D01*
X62202Y-37027D01*
X62202Y-37032D01*
X61475Y-37758D01*
X61555Y-37924D01*
X61947Y-38104D01*
X62379Y-38120D01*
X62784Y-37970D01*
X62854Y-37924D01*
X62933Y-37758D01*
X62933Y-38424D01*
X60925Y-38424D01*
X60925Y-35750D01*
X60196Y-35021D01*
X59467Y-35750D01*
X59547Y-35916D01*
X59939Y-36096D01*
X60371Y-36112D01*
X60776Y-35962D01*
X60846Y-35916D01*
X60925Y-35750D01*
X60925Y-38424D01*
X58839Y-38424D01*
X58839Y-35750D01*
X58110Y-35021D01*
X57381Y-35750D01*
X57460Y-35916D01*
X57853Y-36096D01*
X58284Y-36112D01*
X58690Y-35962D01*
X58759Y-35916D01*
X58839Y-35750D01*
X58839Y-38424D01*
X57195Y-38424D01*
X57195Y-36852D01*
X57045Y-36447D01*
X56998Y-36378D01*
X56833Y-36298D01*
X56104Y-37027D01*
X56833Y-37756D01*
X56998Y-37677D01*
X57179Y-37284D01*
X57195Y-36852D01*
X57195Y-38424D01*
X56831Y-38424D01*
X56831Y-37758D01*
X56102Y-37029D01*
X55373Y-37758D01*
X55452Y-37924D01*
X55845Y-38104D01*
X56277Y-38120D01*
X56682Y-37970D01*
X56751Y-37924D01*
X56831Y-37758D01*
X56831Y-38424D01*
X54479Y-38424D01*
X54817Y-38085D01*
X54817Y-38085D01*
X54817Y-38085D01*
X54967Y-37862D01*
X55019Y-37598D01*
X55019Y-37230D01*
X55159Y-37607D01*
X55205Y-37677D01*
X55371Y-37756D01*
X56030Y-37097D01*
X56100Y-37027D01*
X56102Y-37025D01*
X56171Y-36955D01*
X56171Y-36955D01*
X56831Y-36296D01*
X56751Y-36130D01*
X56359Y-35950D01*
X56208Y-35944D01*
X56285Y-35945D01*
X56625Y-35804D01*
X56886Y-35544D01*
X57023Y-35212D01*
X57167Y-35599D01*
X57213Y-35669D01*
X57379Y-35748D01*
X58038Y-35089D01*
X58038Y-35089D01*
X58108Y-35019D01*
X58110Y-35017D01*
X58112Y-35019D01*
X58182Y-35089D01*
X58841Y-35748D01*
X59006Y-35669D01*
X59157Y-35340D01*
X59253Y-35599D01*
X59300Y-35669D01*
X59465Y-35748D01*
X60125Y-35089D01*
X60194Y-35019D01*
X60196Y-35017D01*
X60196Y-35017D01*
X60199Y-35019D01*
X60268Y-35089D01*
X60928Y-35748D01*
X61093Y-35669D01*
X61273Y-35276D01*
X61279Y-35125D01*
X61279Y-35202D01*
X61419Y-35543D01*
X61679Y-35803D01*
X62011Y-35941D01*
X61624Y-36084D01*
X61555Y-36130D01*
X61475Y-36296D01*
X62135Y-36955D01*
X62135Y-36955D01*
X62204Y-37025D01*
X62206Y-37027D01*
X62276Y-37097D01*
X62935Y-37756D01*
X63101Y-37677D01*
X63281Y-37284D01*
X63287Y-37131D01*
X63287Y-37598D01*
X63339Y-37862D01*
X63489Y-38085D01*
X63827Y-38424D01*
G54D10*
G36*
X67754Y-30281D02*
X67736Y-30236D01*
X67736Y-21690D01*
X67613Y-21393D01*
X67386Y-21166D01*
X67090Y-21043D01*
X66769Y-21043D01*
X66472Y-21165D01*
X66245Y-21392D01*
X66122Y-21689D01*
X66121Y-22010D01*
X66244Y-22306D01*
X66471Y-22534D01*
X66767Y-22657D01*
X67088Y-22657D01*
X67385Y-22535D01*
X67612Y-22308D01*
X67736Y-22011D01*
X67736Y-21690D01*
X67736Y-30236D01*
X67693Y-30133D01*
X67505Y-29944D01*
X67259Y-29842D01*
X66993Y-29842D01*
X66747Y-29944D01*
X66558Y-30132D01*
X66456Y-30378D01*
X66456Y-30644D01*
X66461Y-30656D01*
X66453Y-30665D01*
X66377Y-30846D01*
X66377Y-31042D01*
X66377Y-31042D01*
X65885Y-31042D01*
X65704Y-31117D01*
X65581Y-31240D01*
X65572Y-31236D01*
X65274Y-31236D01*
X65199Y-31310D01*
X65199Y-31789D01*
X65199Y-31888D01*
X65199Y-31891D01*
X65199Y-31989D01*
X65199Y-32468D01*
X65274Y-32543D01*
X65572Y-32543D01*
X65581Y-32539D01*
X65590Y-32548D01*
X65590Y-32616D01*
X65590Y-32931D01*
X65647Y-33070D01*
X65590Y-33209D01*
X65590Y-33404D01*
X65590Y-33719D01*
X65634Y-33827D01*
X65566Y-33895D01*
X65491Y-34076D01*
X65491Y-34271D01*
X65491Y-34901D01*
X65548Y-35039D01*
X65491Y-35176D01*
X65491Y-35371D01*
X65491Y-35763D01*
X65305Y-35763D01*
X65274Y-35763D01*
X65199Y-35838D01*
X65199Y-36317D01*
X65199Y-36415D01*
X65199Y-36418D01*
X65199Y-36517D01*
X65199Y-36625D01*
X65199Y-36996D01*
X65199Y-37104D01*
X65199Y-37144D01*
X65196Y-37144D01*
X65196Y-37104D01*
X65196Y-36996D01*
X65196Y-36625D01*
X65196Y-36418D01*
X64659Y-36418D01*
X64587Y-36490D01*
X64463Y-36304D01*
X64267Y-36108D01*
X64387Y-36112D01*
X64584Y-36039D01*
X64584Y-36121D01*
X64584Y-36341D01*
X64659Y-36415D01*
X65196Y-36415D01*
X65196Y-35838D01*
X65121Y-35763D01*
X65031Y-35763D01*
X65064Y-35730D01*
X65037Y-35703D01*
X65109Y-35669D01*
X65289Y-35276D01*
X65305Y-34844D01*
X65155Y-34439D01*
X65109Y-34370D01*
X64943Y-34290D01*
X64941Y-34292D01*
X64941Y-34288D01*
X64862Y-34123D01*
X64469Y-33942D01*
X64037Y-33926D01*
X63632Y-34076D01*
X63606Y-34094D01*
X63606Y-33008D01*
X63606Y-32875D01*
X63009Y-32875D01*
X63009Y-33530D01*
X63103Y-33597D01*
X63235Y-33560D01*
X63429Y-33431D01*
X63560Y-33237D01*
X63606Y-33008D01*
X63606Y-34094D01*
X63563Y-34123D01*
X63483Y-34288D01*
X64212Y-35017D01*
X64941Y-34288D01*
X64941Y-34292D01*
X64284Y-34950D01*
X64214Y-35019D01*
X64212Y-35021D01*
X64210Y-35019D01*
X64140Y-34950D01*
X63481Y-34290D01*
X63316Y-34370D01*
X63135Y-34762D01*
X63130Y-34913D01*
X63130Y-34836D01*
X62989Y-34496D01*
X62729Y-34235D01*
X62461Y-34124D01*
X62467Y-34120D01*
X62608Y-33910D01*
X62657Y-33661D01*
X62657Y-33478D01*
X62780Y-33560D01*
X62912Y-33597D01*
X63006Y-33530D01*
X63006Y-32974D01*
X63006Y-32875D01*
X63006Y-32872D01*
X63009Y-32872D01*
X63107Y-32872D01*
X63606Y-32872D01*
X63606Y-32739D01*
X63605Y-32736D01*
X63718Y-32736D01*
X64348Y-32736D01*
X64529Y-32662D01*
X64667Y-32523D01*
X64689Y-32472D01*
X64714Y-32497D01*
X64823Y-32543D01*
X65121Y-32543D01*
X65196Y-32468D01*
X65196Y-31989D01*
X65196Y-31891D01*
X65196Y-31888D01*
X65196Y-31789D01*
X65196Y-31310D01*
X65121Y-31236D01*
X64823Y-31236D01*
X64714Y-31281D01*
X64689Y-31306D01*
X64668Y-31256D01*
X64624Y-31212D01*
X64624Y-31034D01*
X65069Y-30589D01*
X65069Y-30589D01*
X65069Y-30589D01*
X65219Y-30366D01*
X65219Y-30366D01*
X65261Y-30154D01*
X65271Y-30102D01*
X65271Y-30102D01*
X65271Y-30102D01*
X65271Y-28740D01*
X65271Y-28427D01*
X65310Y-28369D01*
X65370Y-28068D01*
X65370Y-27837D01*
X65310Y-27535D01*
X65305Y-27529D01*
X65305Y-23466D01*
X65155Y-23061D01*
X65109Y-22992D01*
X64943Y-22912D01*
X64941Y-22914D01*
X64941Y-22910D01*
X64862Y-22745D01*
X64469Y-22564D01*
X64037Y-22548D01*
X63632Y-22698D01*
X63563Y-22745D01*
X63483Y-22910D01*
X64212Y-23639D01*
X64941Y-22910D01*
X64941Y-22914D01*
X64214Y-23641D01*
X64943Y-24370D01*
X65109Y-24291D01*
X65289Y-23898D01*
X65305Y-23466D01*
X65305Y-27529D01*
X65139Y-27280D01*
X64941Y-27148D01*
X64941Y-24372D01*
X64212Y-23643D01*
X63483Y-24372D01*
X63563Y-24538D01*
X63955Y-24718D01*
X64387Y-24734D01*
X64792Y-24584D01*
X64862Y-24538D01*
X64941Y-24372D01*
X64941Y-27148D01*
X64884Y-27109D01*
X64582Y-27049D01*
X64281Y-27109D01*
X64271Y-27116D01*
X64271Y-25787D01*
X64219Y-25523D01*
X64069Y-25300D01*
X64069Y-25300D01*
X63676Y-24906D01*
X63452Y-24757D01*
X63188Y-24704D01*
X62893Y-24704D01*
X62893Y-24261D01*
X62988Y-24166D01*
X63126Y-23835D01*
X63269Y-24221D01*
X63316Y-24291D01*
X63481Y-24370D01*
X64210Y-23641D01*
X63481Y-22912D01*
X63316Y-22992D01*
X63297Y-23031D01*
X63297Y-21459D01*
X63147Y-21054D01*
X63101Y-20984D01*
X62935Y-20904D01*
X62206Y-21633D01*
X62935Y-22362D01*
X63101Y-22283D01*
X63281Y-21890D01*
X63297Y-21459D01*
X63297Y-23031D01*
X63135Y-23384D01*
X63130Y-23535D01*
X63130Y-23458D01*
X62989Y-23118D01*
X62729Y-22857D01*
X62398Y-22720D01*
X62784Y-22576D01*
X62854Y-22530D01*
X62933Y-22365D01*
X62204Y-21636D01*
X62202Y-21638D01*
X62202Y-21633D01*
X61473Y-20904D01*
X61308Y-20984D01*
X61127Y-21376D01*
X61111Y-21808D01*
X61261Y-22213D01*
X61308Y-22283D01*
X61473Y-22362D01*
X62202Y-21633D01*
X62202Y-21638D01*
X61475Y-22365D01*
X61555Y-22530D01*
X61947Y-22710D01*
X62098Y-22716D01*
X62021Y-22716D01*
X61681Y-22856D01*
X61420Y-23116D01*
X61283Y-23448D01*
X61139Y-23061D01*
X61093Y-22992D01*
X60928Y-22912D01*
X60925Y-22914D01*
X60925Y-22910D01*
X60846Y-22745D01*
X60453Y-22564D01*
X60022Y-22548D01*
X59617Y-22698D01*
X59547Y-22745D01*
X59467Y-22910D01*
X60196Y-23639D01*
X60925Y-22910D01*
X60925Y-22914D01*
X60199Y-23641D01*
X60928Y-24370D01*
X61093Y-24291D01*
X61273Y-23898D01*
X61279Y-23747D01*
X61279Y-23824D01*
X61419Y-24165D01*
X61515Y-24261D01*
X61515Y-25000D01*
X61568Y-25263D01*
X61717Y-25487D01*
X62111Y-25880D01*
X62111Y-25880D01*
X62334Y-26030D01*
X62598Y-26082D01*
X62893Y-26082D01*
X62893Y-27362D01*
X62808Y-27305D01*
X62677Y-27268D01*
X62584Y-27335D01*
X62584Y-27852D01*
X62584Y-27951D01*
X62584Y-27954D01*
X62584Y-28052D01*
X62584Y-28570D01*
X62677Y-28637D01*
X62808Y-28600D01*
X62947Y-28507D01*
X63025Y-28625D01*
X63281Y-28795D01*
X63582Y-28855D01*
X63884Y-28795D01*
X63893Y-28789D01*
X63893Y-29816D01*
X63448Y-30262D01*
X63299Y-30485D01*
X63246Y-30749D01*
X63246Y-31042D01*
X63053Y-31042D01*
X62581Y-31042D01*
X62581Y-28570D01*
X62581Y-27954D01*
X62581Y-27951D01*
X62581Y-27335D01*
X62488Y-27268D01*
X62356Y-27305D01*
X62163Y-27433D01*
X62034Y-27626D01*
X61988Y-27853D01*
X61988Y-27951D01*
X62581Y-27951D01*
X62581Y-27954D01*
X61988Y-27954D01*
X61988Y-28052D01*
X62034Y-28279D01*
X62163Y-28471D01*
X62356Y-28600D01*
X62488Y-28637D01*
X62581Y-28570D01*
X62581Y-31042D01*
X62423Y-31042D01*
X62401Y-31051D01*
X62380Y-31042D01*
X62184Y-31042D01*
X61554Y-31042D01*
X61417Y-31099D01*
X61280Y-31042D01*
X61084Y-31042D01*
X61042Y-31042D01*
X61042Y-28052D01*
X61042Y-27954D01*
X61042Y-27951D01*
X61042Y-27853D01*
X60996Y-27626D01*
X60925Y-27520D01*
X60925Y-24372D01*
X60196Y-23643D01*
X60194Y-23646D01*
X60194Y-23641D01*
X59465Y-22912D01*
X59300Y-22992D01*
X59149Y-23320D01*
X59053Y-23061D01*
X59006Y-22992D01*
X58841Y-22912D01*
X58839Y-22914D01*
X58839Y-22910D01*
X58759Y-22745D01*
X58367Y-22564D01*
X57935Y-22548D01*
X57530Y-22698D01*
X57460Y-22745D01*
X57381Y-22910D01*
X58110Y-23639D01*
X58839Y-22910D01*
X58839Y-22914D01*
X58112Y-23641D01*
X58841Y-24370D01*
X59006Y-24291D01*
X59157Y-23962D01*
X59253Y-24221D01*
X59300Y-24291D01*
X59465Y-24370D01*
X60194Y-23641D01*
X60194Y-23646D01*
X59467Y-24372D01*
X59547Y-24538D01*
X59939Y-24718D01*
X60371Y-24734D01*
X60776Y-24584D01*
X60846Y-24538D01*
X60925Y-24372D01*
X60925Y-27520D01*
X60867Y-27433D01*
X60674Y-27305D01*
X60543Y-27268D01*
X60450Y-27335D01*
X60450Y-27951D01*
X61042Y-27951D01*
X61042Y-27954D01*
X60450Y-27954D01*
X60450Y-28570D01*
X60543Y-28637D01*
X60674Y-28600D01*
X60867Y-28471D01*
X60996Y-28279D01*
X61042Y-28052D01*
X61042Y-31042D01*
X60454Y-31042D01*
X60273Y-31117D01*
X60150Y-31240D01*
X60039Y-31240D01*
X59940Y-31259D01*
X59940Y-30314D01*
X59888Y-30051D01*
X59739Y-29827D01*
X59515Y-29678D01*
X59251Y-29625D01*
X59137Y-29625D01*
X59137Y-28789D01*
X59147Y-28795D01*
X59448Y-28855D01*
X59750Y-28795D01*
X60005Y-28625D01*
X60084Y-28507D01*
X60222Y-28600D01*
X60354Y-28637D01*
X60447Y-28570D01*
X60447Y-28052D01*
X60447Y-27954D01*
X60447Y-27951D01*
X60447Y-27852D01*
X60447Y-27335D01*
X60354Y-27268D01*
X60222Y-27305D01*
X60137Y-27362D01*
X60137Y-25984D01*
X60085Y-25720D01*
X59935Y-25497D01*
X59935Y-25497D01*
X59542Y-25103D01*
X59318Y-24954D01*
X59055Y-24901D01*
X58839Y-24901D01*
X58839Y-24372D01*
X58110Y-23643D01*
X57381Y-24372D01*
X57460Y-24538D01*
X57853Y-24718D01*
X58284Y-24734D01*
X58690Y-24584D01*
X58759Y-24538D01*
X58839Y-24372D01*
X58839Y-24901D01*
X56978Y-24901D01*
X56791Y-24714D01*
X56791Y-24261D01*
X56886Y-24166D01*
X57023Y-23835D01*
X57167Y-24221D01*
X57213Y-24291D01*
X57379Y-24370D01*
X58108Y-23641D01*
X57379Y-22912D01*
X57213Y-22992D01*
X57195Y-23031D01*
X57195Y-21459D01*
X57045Y-21054D01*
X56998Y-20984D01*
X56833Y-20904D01*
X56104Y-21633D01*
X56833Y-22362D01*
X56998Y-22283D01*
X57179Y-21890D01*
X57195Y-21459D01*
X57195Y-23031D01*
X57033Y-23384D01*
X57027Y-23535D01*
X57027Y-23458D01*
X56887Y-23118D01*
X56627Y-22857D01*
X56295Y-22720D01*
X56682Y-22576D01*
X56751Y-22530D01*
X56831Y-22365D01*
X56102Y-21636D01*
X56100Y-21638D01*
X56100Y-21633D01*
X55371Y-20904D01*
X55205Y-20984D01*
X55025Y-21376D01*
X55009Y-21808D01*
X55159Y-22213D01*
X55205Y-22283D01*
X55371Y-22362D01*
X56100Y-21633D01*
X56100Y-21638D01*
X55373Y-22365D01*
X55452Y-22530D01*
X55845Y-22710D01*
X55996Y-22716D01*
X55919Y-22716D01*
X55578Y-22856D01*
X55318Y-23116D01*
X55180Y-23448D01*
X55037Y-23061D01*
X54991Y-22992D01*
X54825Y-22912D01*
X54823Y-22914D01*
X54823Y-22910D01*
X54743Y-22745D01*
X54351Y-22564D01*
X53919Y-22548D01*
X53514Y-22698D01*
X53445Y-22745D01*
X53365Y-22910D01*
X54094Y-23639D01*
X54823Y-22910D01*
X54823Y-22914D01*
X54096Y-23641D01*
X54825Y-24370D01*
X54991Y-24291D01*
X55171Y-23898D01*
X55177Y-23747D01*
X55177Y-23824D01*
X55317Y-24165D01*
X55413Y-24261D01*
X55413Y-25000D01*
X55465Y-25263D01*
X55615Y-25487D01*
X56205Y-26077D01*
X56429Y-26227D01*
X56692Y-26279D01*
X58759Y-26279D01*
X58759Y-27116D01*
X58750Y-27109D01*
X58448Y-27049D01*
X58147Y-27109D01*
X57891Y-27280D01*
X57721Y-27535D01*
X57661Y-27837D01*
X57661Y-28068D01*
X57721Y-28369D01*
X57759Y-28427D01*
X57759Y-28740D01*
X57759Y-29625D01*
X57068Y-29625D01*
X57068Y-29034D01*
X57068Y-28916D01*
X57023Y-28806D01*
X56939Y-28722D01*
X56829Y-28677D01*
X56531Y-28677D01*
X56457Y-28751D01*
X56457Y-29329D01*
X56994Y-29329D01*
X57068Y-29254D01*
X57068Y-29034D01*
X57068Y-29625D01*
X57068Y-29625D01*
X57068Y-29406D01*
X56994Y-29332D01*
X56555Y-29332D01*
X56457Y-29332D01*
X56453Y-29332D01*
X56453Y-29329D01*
X56453Y-29230D01*
X56453Y-28751D01*
X56379Y-28677D01*
X56081Y-28677D01*
X56071Y-28681D01*
X55949Y-28558D01*
X55768Y-28483D01*
X55573Y-28483D01*
X54943Y-28483D01*
X54762Y-28558D01*
X54623Y-28696D01*
X54595Y-28763D01*
X54409Y-28685D01*
X54103Y-28685D01*
X53821Y-28802D01*
X53755Y-28867D01*
X53691Y-28802D01*
X53409Y-28685D01*
X53103Y-28685D01*
X52821Y-28802D01*
X52755Y-28867D01*
X52691Y-28802D01*
X52409Y-28685D01*
X52103Y-28685D01*
X51821Y-28802D01*
X51755Y-28867D01*
X51691Y-28802D01*
X51409Y-28685D01*
X51103Y-28685D01*
X50821Y-28802D01*
X50605Y-29017D01*
X50488Y-29299D01*
X50488Y-29604D01*
X50605Y-29886D01*
X50820Y-30102D01*
X51102Y-30219D01*
X51407Y-30220D01*
X51647Y-30120D01*
X51768Y-30302D01*
X52509Y-31042D01*
X52322Y-31042D01*
X52248Y-30863D01*
X52109Y-30724D01*
X51929Y-30649D01*
X51772Y-30649D01*
X51574Y-30609D01*
X50984Y-30609D01*
X50720Y-30662D01*
X50497Y-30811D01*
X49906Y-31402D01*
X49850Y-31486D01*
X49826Y-31510D01*
X49813Y-31541D01*
X49757Y-31626D01*
X49737Y-31724D01*
X49724Y-31756D01*
X49724Y-31790D01*
X49704Y-31889D01*
X49724Y-31988D01*
X49724Y-32003D01*
X49724Y-32003D01*
X49539Y-32040D01*
X49316Y-32189D01*
X49316Y-32189D01*
X49315Y-32189D01*
X49209Y-32349D01*
X49197Y-32321D01*
X49059Y-32182D01*
X48878Y-32107D01*
X48682Y-32107D01*
X48145Y-32107D01*
X48145Y-31832D01*
X48297Y-31680D01*
X48448Y-31316D01*
X48448Y-30921D01*
X48298Y-30556D01*
X48019Y-30277D01*
X47654Y-30126D01*
X47260Y-30125D01*
X46895Y-30276D01*
X46616Y-30555D01*
X46464Y-30919D01*
X46464Y-31314D01*
X46615Y-31679D01*
X46767Y-31832D01*
X46767Y-32225D01*
X45628Y-32225D01*
X45595Y-32232D01*
X45762Y-32065D01*
X46017Y-31959D01*
X46297Y-31680D01*
X46448Y-31316D01*
X46448Y-30921D01*
X46298Y-30556D01*
X46019Y-30277D01*
X45654Y-30126D01*
X45260Y-30125D01*
X44895Y-30276D01*
X44616Y-30555D01*
X44509Y-30812D01*
X42483Y-32838D01*
X42027Y-32838D01*
X42027Y-29564D01*
X41905Y-29267D01*
X41837Y-29200D01*
X41837Y-27625D01*
X41752Y-27396D01*
X41727Y-27358D01*
X41611Y-27336D01*
X41608Y-27338D01*
X41608Y-27333D01*
X41586Y-27217D01*
X41364Y-27115D01*
X41121Y-27106D01*
X40892Y-27191D01*
X40854Y-27217D01*
X40832Y-27333D01*
X41220Y-27722D01*
X41608Y-27333D01*
X41608Y-27338D01*
X41222Y-27724D01*
X41611Y-28112D01*
X41727Y-28090D01*
X41828Y-27868D01*
X41837Y-27625D01*
X41837Y-29200D01*
X41678Y-29040D01*
X41608Y-29011D01*
X41608Y-28114D01*
X41220Y-27726D01*
X41218Y-27728D01*
X41218Y-27724D01*
X40829Y-27336D01*
X40713Y-27358D01*
X40611Y-27579D01*
X40603Y-27823D01*
X40688Y-28052D01*
X40713Y-28090D01*
X40829Y-28112D01*
X41218Y-27724D01*
X41218Y-27728D01*
X40832Y-28114D01*
X40854Y-28231D01*
X41076Y-28332D01*
X41319Y-28341D01*
X41548Y-28256D01*
X41586Y-28231D01*
X41608Y-28114D01*
X41608Y-29011D01*
X41381Y-28917D01*
X41060Y-28917D01*
X40763Y-29039D01*
X40536Y-29266D01*
X40413Y-29563D01*
X40413Y-29884D01*
X40535Y-30180D01*
X40762Y-30408D01*
X41059Y-30531D01*
X41380Y-30531D01*
X41677Y-30409D01*
X41904Y-30182D01*
X42027Y-29885D01*
X42027Y-29564D01*
X42027Y-32838D01*
X41837Y-32838D01*
X41837Y-31625D01*
X41752Y-31396D01*
X41727Y-31358D01*
X41611Y-31336D01*
X41608Y-31338D01*
X41608Y-31333D01*
X41586Y-31217D01*
X41364Y-31115D01*
X41121Y-31106D01*
X40892Y-31191D01*
X40854Y-31217D01*
X40832Y-31333D01*
X41220Y-31722D01*
X41608Y-31333D01*
X41608Y-31338D01*
X41222Y-31724D01*
X41611Y-32112D01*
X41727Y-32090D01*
X41828Y-31868D01*
X41837Y-31625D01*
X41837Y-32838D01*
X41608Y-32838D01*
X41608Y-32114D01*
X41220Y-31726D01*
X41218Y-31728D01*
X41218Y-31724D01*
X40829Y-31336D01*
X40713Y-31358D01*
X40611Y-31579D01*
X40603Y-31823D01*
X40688Y-32052D01*
X40713Y-32090D01*
X40829Y-32112D01*
X41218Y-31724D01*
X41218Y-31728D01*
X40832Y-32114D01*
X40854Y-32231D01*
X41076Y-32332D01*
X41319Y-32341D01*
X41548Y-32256D01*
X41586Y-32231D01*
X41608Y-32114D01*
X41608Y-32838D01*
X41220Y-32838D01*
X40881Y-32906D01*
X40594Y-33098D01*
X40402Y-33385D01*
X40334Y-33724D01*
X40402Y-34063D01*
X40594Y-34350D01*
X40881Y-34542D01*
X41220Y-34610D01*
X42850Y-34610D01*
X43189Y-34542D01*
X43476Y-34350D01*
X44486Y-33340D01*
X44480Y-33374D01*
X44480Y-33607D01*
X44402Y-33795D01*
X44402Y-34100D01*
X44518Y-34382D01*
X44734Y-34598D01*
X45016Y-34715D01*
X45321Y-34716D01*
X45402Y-34682D01*
X45402Y-34771D01*
X45402Y-35179D01*
X45222Y-35299D01*
X44682Y-35839D01*
X44532Y-36063D01*
X44500Y-36227D01*
X44418Y-36308D01*
X44283Y-36634D01*
X44283Y-36986D01*
X44418Y-37312D01*
X44562Y-37456D01*
X44551Y-37467D01*
X44505Y-37577D01*
X44505Y-37696D01*
X44505Y-37915D01*
X44580Y-37990D01*
X45019Y-37990D01*
X45117Y-37990D01*
X45120Y-37990D01*
X45120Y-37993D01*
X45117Y-37993D01*
X45019Y-37993D01*
X44580Y-37993D01*
X44505Y-38068D01*
X44505Y-38288D01*
X44505Y-38406D01*
X44513Y-38424D01*
X42145Y-38424D01*
X42145Y-36430D01*
X42005Y-36090D01*
X41745Y-35830D01*
X41405Y-35689D01*
X41037Y-35688D01*
X40697Y-35829D01*
X40436Y-36089D01*
X40295Y-36429D01*
X40295Y-36797D01*
X40435Y-37137D01*
X40695Y-37398D01*
X41035Y-37539D01*
X41403Y-37539D01*
X41743Y-37398D01*
X42004Y-37138D01*
X42145Y-36799D01*
X42145Y-36430D01*
X42145Y-38424D01*
X38877Y-38424D01*
X38877Y-20767D01*
X44598Y-20767D01*
X44523Y-20842D01*
X44358Y-21240D01*
X44358Y-21671D01*
X44522Y-22069D01*
X44756Y-22303D01*
X44724Y-22381D01*
X44724Y-22577D01*
X44724Y-22892D01*
X44781Y-23031D01*
X44724Y-23169D01*
X44724Y-23198D01*
X44197Y-23725D01*
X44048Y-23948D01*
X43996Y-24212D01*
X43996Y-25803D01*
X44048Y-26066D01*
X44197Y-26290D01*
X44834Y-26927D01*
X44912Y-27115D01*
X45127Y-27331D01*
X45317Y-27409D01*
X45767Y-27860D01*
X45767Y-28173D01*
X45761Y-28170D01*
X42689Y-25098D01*
X42401Y-24906D01*
X42145Y-24855D01*
X42145Y-22651D01*
X42005Y-22311D01*
X41745Y-22050D01*
X41405Y-21909D01*
X41037Y-21909D01*
X40697Y-22049D01*
X40436Y-22309D01*
X40295Y-22649D01*
X40295Y-23017D01*
X40435Y-23358D01*
X40695Y-23618D01*
X41035Y-23759D01*
X41403Y-23760D01*
X41743Y-23619D01*
X42004Y-23359D01*
X42145Y-23019D01*
X42145Y-22651D01*
X42145Y-24855D01*
X42062Y-24838D01*
X41220Y-24838D01*
X40881Y-24906D01*
X40594Y-25098D01*
X40402Y-25385D01*
X40334Y-25724D01*
X40402Y-26063D01*
X40594Y-26350D01*
X40881Y-26542D01*
X41220Y-26610D01*
X41696Y-26610D01*
X44509Y-29423D01*
X44615Y-29679D01*
X44893Y-29958D01*
X45258Y-30110D01*
X45653Y-30110D01*
X46017Y-29959D01*
X46297Y-29680D01*
X46448Y-29316D01*
X46448Y-29312D01*
X46474Y-29338D01*
X46615Y-29679D01*
X46893Y-29958D01*
X47258Y-30110D01*
X47653Y-30110D01*
X47686Y-30096D01*
X47727Y-30123D01*
X47933Y-30164D01*
X47987Y-30218D01*
X48168Y-30294D01*
X48364Y-30294D01*
X49074Y-30294D01*
X49074Y-30294D01*
X49151Y-30294D01*
X49861Y-30294D01*
X50042Y-30219D01*
X50181Y-30081D01*
X50256Y-29900D01*
X50256Y-29704D01*
X50256Y-29074D01*
X50181Y-28893D01*
X50059Y-28770D01*
X50062Y-28761D01*
X50062Y-28012D01*
X50017Y-27903D01*
X49933Y-27819D01*
X49824Y-27773D01*
X49705Y-27773D01*
X49485Y-27773D01*
X49411Y-27848D01*
X49411Y-28385D01*
X49988Y-28385D01*
X50062Y-28310D01*
X50062Y-28012D01*
X50062Y-28761D01*
X50062Y-28463D01*
X49988Y-28388D01*
X49509Y-28388D01*
X49411Y-28388D01*
X49407Y-28388D01*
X49309Y-28388D01*
X49200Y-28388D01*
X48830Y-28388D01*
X48722Y-28388D01*
X48623Y-28388D01*
X48620Y-28388D01*
X48620Y-28385D01*
X48623Y-28385D01*
X48722Y-28385D01*
X48830Y-28385D01*
X49200Y-28385D01*
X49407Y-28385D01*
X49407Y-27848D01*
X49333Y-27773D01*
X49113Y-27773D01*
X49015Y-27773D01*
X48917Y-27773D01*
X48863Y-27773D01*
X48807Y-27716D01*
X48328Y-27716D01*
X48229Y-27716D01*
X48226Y-27716D01*
X48128Y-27716D01*
X48019Y-27716D01*
X47649Y-27716D01*
X47540Y-27716D01*
X47442Y-27716D01*
X47439Y-27716D01*
X47439Y-27713D01*
X47442Y-27713D01*
X47540Y-27713D01*
X47649Y-27713D01*
X48019Y-27713D01*
X48128Y-27713D01*
X48226Y-27713D01*
X48229Y-27713D01*
X48328Y-27713D01*
X48807Y-27713D01*
X48881Y-27639D01*
X48881Y-27341D01*
X48877Y-27331D01*
X48905Y-27304D01*
X49565Y-27304D01*
X49769Y-27263D01*
X50393Y-27263D01*
X50657Y-27211D01*
X50761Y-27141D01*
X50914Y-27141D01*
X51102Y-27219D01*
X51407Y-27220D01*
X51689Y-27103D01*
X51755Y-27037D01*
X51820Y-27102D01*
X52102Y-27219D01*
X52407Y-27220D01*
X52689Y-27103D01*
X52755Y-27037D01*
X52820Y-27102D01*
X53102Y-27219D01*
X53407Y-27220D01*
X53669Y-27112D01*
X53701Y-27144D01*
X53882Y-27219D01*
X54078Y-27219D01*
X54628Y-27219D01*
X54809Y-27145D01*
X54947Y-27006D01*
X55022Y-26826D01*
X55023Y-26630D01*
X55023Y-26080D01*
X54948Y-25899D01*
X54823Y-25774D01*
X54823Y-24372D01*
X54094Y-23643D01*
X54092Y-23646D01*
X54092Y-23641D01*
X53363Y-22912D01*
X53197Y-22992D01*
X53017Y-23384D01*
X53001Y-23816D01*
X53151Y-24221D01*
X53197Y-24291D01*
X53363Y-24370D01*
X54092Y-23641D01*
X54092Y-23646D01*
X53365Y-24372D01*
X53445Y-24538D01*
X53837Y-24718D01*
X54269Y-24734D01*
X54674Y-24584D01*
X54743Y-24538D01*
X54823Y-24372D01*
X54823Y-25774D01*
X54810Y-25760D01*
X54629Y-25685D01*
X54433Y-25685D01*
X53883Y-25685D01*
X53702Y-25760D01*
X53669Y-25793D01*
X53409Y-25685D01*
X53103Y-25685D01*
X52821Y-25802D01*
X52755Y-25867D01*
X52691Y-25802D01*
X52578Y-25756D01*
X52578Y-21690D01*
X52456Y-21393D01*
X52229Y-21166D01*
X51932Y-21043D01*
X51611Y-21043D01*
X51315Y-21165D01*
X51087Y-21392D01*
X50964Y-21689D01*
X50964Y-22010D01*
X51087Y-22306D01*
X51313Y-22534D01*
X51610Y-22657D01*
X51931Y-22657D01*
X52228Y-22535D01*
X52455Y-22308D01*
X52578Y-22011D01*
X52578Y-21690D01*
X52578Y-25756D01*
X52409Y-25685D01*
X52103Y-25685D01*
X51821Y-25802D01*
X51755Y-25867D01*
X51691Y-25802D01*
X51409Y-25685D01*
X51103Y-25685D01*
X50914Y-25763D01*
X50515Y-25763D01*
X50252Y-25816D01*
X50147Y-25885D01*
X49606Y-25885D01*
X49507Y-25905D01*
X49473Y-25905D01*
X49442Y-25918D01*
X49402Y-25926D01*
X48905Y-25926D01*
X48862Y-25883D01*
X48681Y-25808D01*
X48485Y-25808D01*
X47775Y-25808D01*
X47775Y-25808D01*
X47698Y-25808D01*
X47608Y-25808D01*
X47330Y-25530D01*
X47330Y-25388D01*
X47423Y-25295D01*
X47510Y-25295D01*
X47835Y-25160D01*
X48157Y-25294D01*
X48510Y-25295D01*
X48835Y-25160D01*
X49085Y-24911D01*
X49220Y-24586D01*
X49220Y-24234D01*
X49154Y-24075D01*
X49250Y-24075D01*
X49762Y-24075D01*
X49943Y-24000D01*
X50082Y-23862D01*
X50157Y-23681D01*
X50157Y-23485D01*
X50157Y-23170D01*
X50100Y-23031D01*
X50157Y-22893D01*
X50157Y-22697D01*
X50157Y-22527D01*
X50309Y-22464D01*
X50448Y-22326D01*
X50523Y-22145D01*
X50523Y-21949D01*
X50523Y-20768D01*
X50523Y-20767D01*
X55438Y-20767D01*
X55373Y-20902D01*
X56102Y-21631D01*
X56831Y-20902D01*
X56766Y-20767D01*
X61540Y-20767D01*
X61475Y-20902D01*
X62204Y-21631D01*
X62933Y-20902D01*
X62868Y-20767D01*
X67754Y-20767D01*
X67754Y-30281D01*
X67754Y-30281D01*
G37*
G54D31*
X67754Y-30281D02*
X67736Y-30236D01*
X67736Y-21690D01*
X67613Y-21393D01*
X67386Y-21166D01*
X67090Y-21043D01*
X66769Y-21043D01*
X66472Y-21165D01*
X66245Y-21392D01*
X66122Y-21689D01*
X66121Y-22010D01*
X66244Y-22306D01*
X66471Y-22534D01*
X66767Y-22657D01*
X67088Y-22657D01*
X67385Y-22535D01*
X67612Y-22308D01*
X67736Y-22011D01*
X67736Y-21690D01*
X67736Y-30236D01*
X67693Y-30133D01*
X67505Y-29944D01*
X67259Y-29842D01*
X66993Y-29842D01*
X66747Y-29944D01*
X66558Y-30132D01*
X66456Y-30378D01*
X66456Y-30644D01*
X66461Y-30656D01*
X66453Y-30665D01*
X66377Y-30846D01*
X66377Y-31042D01*
X66377Y-31042D01*
X65885Y-31042D01*
X65704Y-31117D01*
X65581Y-31240D01*
X65572Y-31236D01*
X65274Y-31236D01*
X65199Y-31310D01*
X65199Y-31789D01*
X65199Y-31888D01*
X65199Y-31891D01*
X65199Y-31989D01*
X65199Y-32468D01*
X65274Y-32543D01*
X65572Y-32543D01*
X65581Y-32539D01*
X65590Y-32548D01*
X65590Y-32616D01*
X65590Y-32931D01*
X65647Y-33070D01*
X65590Y-33209D01*
X65590Y-33404D01*
X65590Y-33719D01*
X65634Y-33827D01*
X65566Y-33895D01*
X65491Y-34076D01*
X65491Y-34271D01*
X65491Y-34901D01*
X65548Y-35039D01*
X65491Y-35176D01*
X65491Y-35371D01*
X65491Y-35763D01*
X65305Y-35763D01*
X65274Y-35763D01*
X65199Y-35838D01*
X65199Y-36317D01*
X65199Y-36415D01*
X65199Y-36418D01*
X65199Y-36517D01*
X65199Y-36625D01*
X65199Y-36996D01*
X65199Y-37104D01*
X65199Y-37144D01*
X65196Y-37144D01*
X65196Y-37104D01*
X65196Y-36996D01*
X65196Y-36625D01*
X65196Y-36418D01*
X64659Y-36418D01*
X64587Y-36490D01*
X64463Y-36304D01*
X64267Y-36108D01*
X64387Y-36112D01*
X64584Y-36039D01*
X64584Y-36121D01*
X64584Y-36341D01*
X64659Y-36415D01*
X65196Y-36415D01*
X65196Y-35838D01*
X65121Y-35763D01*
X65031Y-35763D01*
X65064Y-35730D01*
X65037Y-35703D01*
X65109Y-35669D01*
X65289Y-35276D01*
X65305Y-34844D01*
X65155Y-34439D01*
X65109Y-34370D01*
X64943Y-34290D01*
X64941Y-34292D01*
X64941Y-34288D01*
X64862Y-34123D01*
X64469Y-33942D01*
X64037Y-33926D01*
X63632Y-34076D01*
X63606Y-34094D01*
X63606Y-33008D01*
X63606Y-32875D01*
X63009Y-32875D01*
X63009Y-33530D01*
X63103Y-33597D01*
X63235Y-33560D01*
X63429Y-33431D01*
X63560Y-33237D01*
X63606Y-33008D01*
X63606Y-34094D01*
X63563Y-34123D01*
X63483Y-34288D01*
X64212Y-35017D01*
X64941Y-34288D01*
X64941Y-34292D01*
X64284Y-34950D01*
X64214Y-35019D01*
X64212Y-35021D01*
X64210Y-35019D01*
X64140Y-34950D01*
X63481Y-34290D01*
X63316Y-34370D01*
X63135Y-34762D01*
X63130Y-34913D01*
X63130Y-34836D01*
X62989Y-34496D01*
X62729Y-34235D01*
X62461Y-34124D01*
X62467Y-34120D01*
X62608Y-33910D01*
X62657Y-33661D01*
X62657Y-33478D01*
X62780Y-33560D01*
X62912Y-33597D01*
X63006Y-33530D01*
X63006Y-32974D01*
X63006Y-32875D01*
X63006Y-32872D01*
X63009Y-32872D01*
X63107Y-32872D01*
X63606Y-32872D01*
X63606Y-32739D01*
X63605Y-32736D01*
X63718Y-32736D01*
X64348Y-32736D01*
X64529Y-32662D01*
X64667Y-32523D01*
X64689Y-32472D01*
X64714Y-32497D01*
X64823Y-32543D01*
X65121Y-32543D01*
X65196Y-32468D01*
X65196Y-31989D01*
X65196Y-31891D01*
X65196Y-31888D01*
X65196Y-31789D01*
X65196Y-31310D01*
X65121Y-31236D01*
X64823Y-31236D01*
X64714Y-31281D01*
X64689Y-31306D01*
X64668Y-31256D01*
X64624Y-31212D01*
X64624Y-31034D01*
X65069Y-30589D01*
X65069Y-30589D01*
X65069Y-30589D01*
X65219Y-30366D01*
X65219Y-30366D01*
X65261Y-30154D01*
X65271Y-30102D01*
X65271Y-30102D01*
X65271Y-30102D01*
X65271Y-28740D01*
X65271Y-28427D01*
X65310Y-28369D01*
X65370Y-28068D01*
X65370Y-27837D01*
X65310Y-27535D01*
X65305Y-27529D01*
X65305Y-23466D01*
X65155Y-23061D01*
X65109Y-22992D01*
X64943Y-22912D01*
X64941Y-22914D01*
X64941Y-22910D01*
X64862Y-22745D01*
X64469Y-22564D01*
X64037Y-22548D01*
X63632Y-22698D01*
X63563Y-22745D01*
X63483Y-22910D01*
X64212Y-23639D01*
X64941Y-22910D01*
X64941Y-22914D01*
X64214Y-23641D01*
X64943Y-24370D01*
X65109Y-24291D01*
X65289Y-23898D01*
X65305Y-23466D01*
X65305Y-27529D01*
X65139Y-27280D01*
X64941Y-27148D01*
X64941Y-24372D01*
X64212Y-23643D01*
X63483Y-24372D01*
X63563Y-24538D01*
X63955Y-24718D01*
X64387Y-24734D01*
X64792Y-24584D01*
X64862Y-24538D01*
X64941Y-24372D01*
X64941Y-27148D01*
X64884Y-27109D01*
X64582Y-27049D01*
X64281Y-27109D01*
X64271Y-27116D01*
X64271Y-25787D01*
X64219Y-25523D01*
X64069Y-25300D01*
X64069Y-25300D01*
X63676Y-24906D01*
X63452Y-24757D01*
X63188Y-24704D01*
X62893Y-24704D01*
X62893Y-24261D01*
X62988Y-24166D01*
X63126Y-23835D01*
X63269Y-24221D01*
X63316Y-24291D01*
X63481Y-24370D01*
X64210Y-23641D01*
X63481Y-22912D01*
X63316Y-22992D01*
X63297Y-23031D01*
X63297Y-21459D01*
X63147Y-21054D01*
X63101Y-20984D01*
X62935Y-20904D01*
X62206Y-21633D01*
X62935Y-22362D01*
X63101Y-22283D01*
X63281Y-21890D01*
X63297Y-21459D01*
X63297Y-23031D01*
X63135Y-23384D01*
X63130Y-23535D01*
X63130Y-23458D01*
X62989Y-23118D01*
X62729Y-22857D01*
X62398Y-22720D01*
X62784Y-22576D01*
X62854Y-22530D01*
X62933Y-22365D01*
X62204Y-21636D01*
X62202Y-21638D01*
X62202Y-21633D01*
X61473Y-20904D01*
X61308Y-20984D01*
X61127Y-21376D01*
X61111Y-21808D01*
X61261Y-22213D01*
X61308Y-22283D01*
X61473Y-22362D01*
X62202Y-21633D01*
X62202Y-21638D01*
X61475Y-22365D01*
X61555Y-22530D01*
X61947Y-22710D01*
X62098Y-22716D01*
X62021Y-22716D01*
X61681Y-22856D01*
X61420Y-23116D01*
X61283Y-23448D01*
X61139Y-23061D01*
X61093Y-22992D01*
X60928Y-22912D01*
X60925Y-22914D01*
X60925Y-22910D01*
X60846Y-22745D01*
X60453Y-22564D01*
X60022Y-22548D01*
X59617Y-22698D01*
X59547Y-22745D01*
X59467Y-22910D01*
X60196Y-23639D01*
X60925Y-22910D01*
X60925Y-22914D01*
X60199Y-23641D01*
X60928Y-24370D01*
X61093Y-24291D01*
X61273Y-23898D01*
X61279Y-23747D01*
X61279Y-23824D01*
X61419Y-24165D01*
X61515Y-24261D01*
X61515Y-25000D01*
X61568Y-25263D01*
X61717Y-25487D01*
X62111Y-25880D01*
X62111Y-25880D01*
X62334Y-26030D01*
X62598Y-26082D01*
X62893Y-26082D01*
X62893Y-27362D01*
X62808Y-27305D01*
X62677Y-27268D01*
X62584Y-27335D01*
X62584Y-27852D01*
X62584Y-27951D01*
X62584Y-27954D01*
X62584Y-28052D01*
X62584Y-28570D01*
X62677Y-28637D01*
X62808Y-28600D01*
X62947Y-28507D01*
X63025Y-28625D01*
X63281Y-28795D01*
X63582Y-28855D01*
X63884Y-28795D01*
X63893Y-28789D01*
X63893Y-29816D01*
X63448Y-30262D01*
X63299Y-30485D01*
X63246Y-30749D01*
X63246Y-31042D01*
X63053Y-31042D01*
X62581Y-31042D01*
X62581Y-28570D01*
X62581Y-27954D01*
X62581Y-27951D01*
X62581Y-27335D01*
X62488Y-27268D01*
X62356Y-27305D01*
X62163Y-27433D01*
X62034Y-27626D01*
X61988Y-27853D01*
X61988Y-27951D01*
X62581Y-27951D01*
X62581Y-27954D01*
X61988Y-27954D01*
X61988Y-28052D01*
X62034Y-28279D01*
X62163Y-28471D01*
X62356Y-28600D01*
X62488Y-28637D01*
X62581Y-28570D01*
X62581Y-31042D01*
X62423Y-31042D01*
X62401Y-31051D01*
X62380Y-31042D01*
X62184Y-31042D01*
X61554Y-31042D01*
X61417Y-31099D01*
X61280Y-31042D01*
X61084Y-31042D01*
X61042Y-31042D01*
X61042Y-28052D01*
X61042Y-27954D01*
X61042Y-27951D01*
X61042Y-27853D01*
X60996Y-27626D01*
X60925Y-27520D01*
X60925Y-24372D01*
X60196Y-23643D01*
X60194Y-23646D01*
X60194Y-23641D01*
X59465Y-22912D01*
X59300Y-22992D01*
X59149Y-23320D01*
X59053Y-23061D01*
X59006Y-22992D01*
X58841Y-22912D01*
X58839Y-22914D01*
X58839Y-22910D01*
X58759Y-22745D01*
X58367Y-22564D01*
X57935Y-22548D01*
X57530Y-22698D01*
X57460Y-22745D01*
X57381Y-22910D01*
X58110Y-23639D01*
X58839Y-22910D01*
X58839Y-22914D01*
X58112Y-23641D01*
X58841Y-24370D01*
X59006Y-24291D01*
X59157Y-23962D01*
X59253Y-24221D01*
X59300Y-24291D01*
X59465Y-24370D01*
X60194Y-23641D01*
X60194Y-23646D01*
X59467Y-24372D01*
X59547Y-24538D01*
X59939Y-24718D01*
X60371Y-24734D01*
X60776Y-24584D01*
X60846Y-24538D01*
X60925Y-24372D01*
X60925Y-27520D01*
X60867Y-27433D01*
X60674Y-27305D01*
X60543Y-27268D01*
X60450Y-27335D01*
X60450Y-27951D01*
X61042Y-27951D01*
X61042Y-27954D01*
X60450Y-27954D01*
X60450Y-28570D01*
X60543Y-28637D01*
X60674Y-28600D01*
X60867Y-28471D01*
X60996Y-28279D01*
X61042Y-28052D01*
X61042Y-31042D01*
X60454Y-31042D01*
X60273Y-31117D01*
X60150Y-31240D01*
X60039Y-31240D01*
X59940Y-31259D01*
X59940Y-30314D01*
X59888Y-30051D01*
X59739Y-29827D01*
X59515Y-29678D01*
X59251Y-29625D01*
X59137Y-29625D01*
X59137Y-28789D01*
X59147Y-28795D01*
X59448Y-28855D01*
X59750Y-28795D01*
X60005Y-28625D01*
X60084Y-28507D01*
X60222Y-28600D01*
X60354Y-28637D01*
X60447Y-28570D01*
X60447Y-28052D01*
X60447Y-27954D01*
X60447Y-27951D01*
X60447Y-27852D01*
X60447Y-27335D01*
X60354Y-27268D01*
X60222Y-27305D01*
X60137Y-27362D01*
X60137Y-25984D01*
X60085Y-25720D01*
X59935Y-25497D01*
X59935Y-25497D01*
X59542Y-25103D01*
X59318Y-24954D01*
X59055Y-24901D01*
X58839Y-24901D01*
X58839Y-24372D01*
X58110Y-23643D01*
X57381Y-24372D01*
X57460Y-24538D01*
X57853Y-24718D01*
X58284Y-24734D01*
X58690Y-24584D01*
X58759Y-24538D01*
X58839Y-24372D01*
X58839Y-24901D01*
X56978Y-24901D01*
X56791Y-24714D01*
X56791Y-24261D01*
X56886Y-24166D01*
X57023Y-23835D01*
X57167Y-24221D01*
X57213Y-24291D01*
X57379Y-24370D01*
X58108Y-23641D01*
X57379Y-22912D01*
X57213Y-22992D01*
X57195Y-23031D01*
X57195Y-21459D01*
X57045Y-21054D01*
X56998Y-20984D01*
X56833Y-20904D01*
X56104Y-21633D01*
X56833Y-22362D01*
X56998Y-22283D01*
X57179Y-21890D01*
X57195Y-21459D01*
X57195Y-23031D01*
X57033Y-23384D01*
X57027Y-23535D01*
X57027Y-23458D01*
X56887Y-23118D01*
X56627Y-22857D01*
X56295Y-22720D01*
X56682Y-22576D01*
X56751Y-22530D01*
X56831Y-22365D01*
X56102Y-21636D01*
X56100Y-21638D01*
X56100Y-21633D01*
X55371Y-20904D01*
X55205Y-20984D01*
X55025Y-21376D01*
X55009Y-21808D01*
X55159Y-22213D01*
X55205Y-22283D01*
X55371Y-22362D01*
X56100Y-21633D01*
X56100Y-21638D01*
X55373Y-22365D01*
X55452Y-22530D01*
X55845Y-22710D01*
X55996Y-22716D01*
X55919Y-22716D01*
X55578Y-22856D01*
X55318Y-23116D01*
X55180Y-23448D01*
X55037Y-23061D01*
X54991Y-22992D01*
X54825Y-22912D01*
X54823Y-22914D01*
X54823Y-22910D01*
X54743Y-22745D01*
X54351Y-22564D01*
X53919Y-22548D01*
X53514Y-22698D01*
X53445Y-22745D01*
X53365Y-22910D01*
X54094Y-23639D01*
X54823Y-22910D01*
X54823Y-22914D01*
X54096Y-23641D01*
X54825Y-24370D01*
X54991Y-24291D01*
X55171Y-23898D01*
X55177Y-23747D01*
X55177Y-23824D01*
X55317Y-24165D01*
X55413Y-24261D01*
X55413Y-25000D01*
X55465Y-25263D01*
X55615Y-25487D01*
X56205Y-26077D01*
X56429Y-26227D01*
X56692Y-26279D01*
X58759Y-26279D01*
X58759Y-27116D01*
X58750Y-27109D01*
X58448Y-27049D01*
X58147Y-27109D01*
X57891Y-27280D01*
X57721Y-27535D01*
X57661Y-27837D01*
X57661Y-28068D01*
X57721Y-28369D01*
X57759Y-28427D01*
X57759Y-28740D01*
X57759Y-29625D01*
X57068Y-29625D01*
X57068Y-29034D01*
X57068Y-28916D01*
X57023Y-28806D01*
X56939Y-28722D01*
X56829Y-28677D01*
X56531Y-28677D01*
X56457Y-28751D01*
X56457Y-29329D01*
X56994Y-29329D01*
X57068Y-29254D01*
X57068Y-29034D01*
X57068Y-29625D01*
X57068Y-29625D01*
X57068Y-29406D01*
X56994Y-29332D01*
X56555Y-29332D01*
X56457Y-29332D01*
X56453Y-29332D01*
X56453Y-29329D01*
X56453Y-29230D01*
X56453Y-28751D01*
X56379Y-28677D01*
X56081Y-28677D01*
X56071Y-28681D01*
X55949Y-28558D01*
X55768Y-28483D01*
X55573Y-28483D01*
X54943Y-28483D01*
X54762Y-28558D01*
X54623Y-28696D01*
X54595Y-28763D01*
X54409Y-28685D01*
X54103Y-28685D01*
X53821Y-28802D01*
X53755Y-28867D01*
X53691Y-28802D01*
X53409Y-28685D01*
X53103Y-28685D01*
X52821Y-28802D01*
X52755Y-28867D01*
X52691Y-28802D01*
X52409Y-28685D01*
X52103Y-28685D01*
X51821Y-28802D01*
X51755Y-28867D01*
X51691Y-28802D01*
X51409Y-28685D01*
X51103Y-28685D01*
X50821Y-28802D01*
X50605Y-29017D01*
X50488Y-29299D01*
X50488Y-29604D01*
X50605Y-29886D01*
X50820Y-30102D01*
X51102Y-30219D01*
X51407Y-30220D01*
X51647Y-30120D01*
X51768Y-30302D01*
X52509Y-31042D01*
X52322Y-31042D01*
X52248Y-30863D01*
X52109Y-30724D01*
X51929Y-30649D01*
X51772Y-30649D01*
X51574Y-30609D01*
X50984Y-30609D01*
X50720Y-30662D01*
X50497Y-30811D01*
X49906Y-31402D01*
X49850Y-31486D01*
X49826Y-31510D01*
X49813Y-31541D01*
X49757Y-31626D01*
X49737Y-31724D01*
X49724Y-31756D01*
X49724Y-31790D01*
X49704Y-31889D01*
X49724Y-31988D01*
X49724Y-32003D01*
X49724Y-32003D01*
X49539Y-32040D01*
X49316Y-32189D01*
X49316Y-32189D01*
X49315Y-32189D01*
X49209Y-32349D01*
X49197Y-32321D01*
X49059Y-32182D01*
X48878Y-32107D01*
X48682Y-32107D01*
X48145Y-32107D01*
X48145Y-31832D01*
X48297Y-31680D01*
X48448Y-31316D01*
X48448Y-30921D01*
X48298Y-30556D01*
X48019Y-30277D01*
X47654Y-30126D01*
X47260Y-30125D01*
X46895Y-30276D01*
X46616Y-30555D01*
X46464Y-30919D01*
X46464Y-31314D01*
X46615Y-31679D01*
X46767Y-31832D01*
X46767Y-32225D01*
X45628Y-32225D01*
X45595Y-32232D01*
X45762Y-32065D01*
X46017Y-31959D01*
X46297Y-31680D01*
X46448Y-31316D01*
X46448Y-30921D01*
X46298Y-30556D01*
X46019Y-30277D01*
X45654Y-30126D01*
X45260Y-30125D01*
X44895Y-30276D01*
X44616Y-30555D01*
X44509Y-30812D01*
X42483Y-32838D01*
X42027Y-32838D01*
X42027Y-29564D01*
X41905Y-29267D01*
X41837Y-29200D01*
X41837Y-27625D01*
X41752Y-27396D01*
X41727Y-27358D01*
X41611Y-27336D01*
X41608Y-27338D01*
X41608Y-27333D01*
X41586Y-27217D01*
X41364Y-27115D01*
X41121Y-27106D01*
X40892Y-27191D01*
X40854Y-27217D01*
X40832Y-27333D01*
X41220Y-27722D01*
X41608Y-27333D01*
X41608Y-27338D01*
X41222Y-27724D01*
X41611Y-28112D01*
X41727Y-28090D01*
X41828Y-27868D01*
X41837Y-27625D01*
X41837Y-29200D01*
X41678Y-29040D01*
X41608Y-29011D01*
X41608Y-28114D01*
X41220Y-27726D01*
X41218Y-27728D01*
X41218Y-27724D01*
X40829Y-27336D01*
X40713Y-27358D01*
X40611Y-27579D01*
X40603Y-27823D01*
X40688Y-28052D01*
X40713Y-28090D01*
X40829Y-28112D01*
X41218Y-27724D01*
X41218Y-27728D01*
X40832Y-28114D01*
X40854Y-28231D01*
X41076Y-28332D01*
X41319Y-28341D01*
X41548Y-28256D01*
X41586Y-28231D01*
X41608Y-28114D01*
X41608Y-29011D01*
X41381Y-28917D01*
X41060Y-28917D01*
X40763Y-29039D01*
X40536Y-29266D01*
X40413Y-29563D01*
X40413Y-29884D01*
X40535Y-30180D01*
X40762Y-30408D01*
X41059Y-30531D01*
X41380Y-30531D01*
X41677Y-30409D01*
X41904Y-30182D01*
X42027Y-29885D01*
X42027Y-29564D01*
X42027Y-32838D01*
X41837Y-32838D01*
X41837Y-31625D01*
X41752Y-31396D01*
X41727Y-31358D01*
X41611Y-31336D01*
X41608Y-31338D01*
X41608Y-31333D01*
X41586Y-31217D01*
X41364Y-31115D01*
X41121Y-31106D01*
X40892Y-31191D01*
X40854Y-31217D01*
X40832Y-31333D01*
X41220Y-31722D01*
X41608Y-31333D01*
X41608Y-31338D01*
X41222Y-31724D01*
X41611Y-32112D01*
X41727Y-32090D01*
X41828Y-31868D01*
X41837Y-31625D01*
X41837Y-32838D01*
X41608Y-32838D01*
X41608Y-32114D01*
X41220Y-31726D01*
X41218Y-31728D01*
X41218Y-31724D01*
X40829Y-31336D01*
X40713Y-31358D01*
X40611Y-31579D01*
X40603Y-31823D01*
X40688Y-32052D01*
X40713Y-32090D01*
X40829Y-32112D01*
X41218Y-31724D01*
X41218Y-31728D01*
X40832Y-32114D01*
X40854Y-32231D01*
X41076Y-32332D01*
X41319Y-32341D01*
X41548Y-32256D01*
X41586Y-32231D01*
X41608Y-32114D01*
X41608Y-32838D01*
X41220Y-32838D01*
X40881Y-32906D01*
X40594Y-33098D01*
X40402Y-33385D01*
X40334Y-33724D01*
X40402Y-34063D01*
X40594Y-34350D01*
X40881Y-34542D01*
X41220Y-34610D01*
X42850Y-34610D01*
X43189Y-34542D01*
X43476Y-34350D01*
X44486Y-33340D01*
X44480Y-33374D01*
X44480Y-33607D01*
X44402Y-33795D01*
X44402Y-34100D01*
X44518Y-34382D01*
X44734Y-34598D01*
X45016Y-34715D01*
X45321Y-34716D01*
X45402Y-34682D01*
X45402Y-34771D01*
X45402Y-35179D01*
X45222Y-35299D01*
X44682Y-35839D01*
X44532Y-36063D01*
X44500Y-36227D01*
X44418Y-36308D01*
X44283Y-36634D01*
X44283Y-36986D01*
X44418Y-37312D01*
X44562Y-37456D01*
X44551Y-37467D01*
X44505Y-37577D01*
X44505Y-37696D01*
X44505Y-37915D01*
X44580Y-37990D01*
X45019Y-37990D01*
X45117Y-37990D01*
X45120Y-37990D01*
X45120Y-37993D01*
X45117Y-37993D01*
X45019Y-37993D01*
X44580Y-37993D01*
X44505Y-38068D01*
X44505Y-38288D01*
X44505Y-38406D01*
X44513Y-38424D01*
X42145Y-38424D01*
X42145Y-36430D01*
X42005Y-36090D01*
X41745Y-35830D01*
X41405Y-35689D01*
X41037Y-35688D01*
X40697Y-35829D01*
X40436Y-36089D01*
X40295Y-36429D01*
X40295Y-36797D01*
X40435Y-37137D01*
X40695Y-37398D01*
X41035Y-37539D01*
X41403Y-37539D01*
X41743Y-37398D01*
X42004Y-37138D01*
X42145Y-36799D01*
X42145Y-36430D01*
X42145Y-38424D01*
X38877Y-38424D01*
X38877Y-20767D01*
X44598Y-20767D01*
X44523Y-20842D01*
X44358Y-21240D01*
X44358Y-21671D01*
X44522Y-22069D01*
X44756Y-22303D01*
X44724Y-22381D01*
X44724Y-22577D01*
X44724Y-22892D01*
X44781Y-23031D01*
X44724Y-23169D01*
X44724Y-23198D01*
X44197Y-23725D01*
X44048Y-23948D01*
X43996Y-24212D01*
X43996Y-25803D01*
X44048Y-26066D01*
X44197Y-26290D01*
X44834Y-26927D01*
X44912Y-27115D01*
X45127Y-27331D01*
X45317Y-27409D01*
X45767Y-27860D01*
X45767Y-28173D01*
X45761Y-28170D01*
X42689Y-25098D01*
X42401Y-24906D01*
X42145Y-24855D01*
X42145Y-22651D01*
X42005Y-22311D01*
X41745Y-22050D01*
X41405Y-21909D01*
X41037Y-21909D01*
X40697Y-22049D01*
X40436Y-22309D01*
X40295Y-22649D01*
X40295Y-23017D01*
X40435Y-23358D01*
X40695Y-23618D01*
X41035Y-23759D01*
X41403Y-23760D01*
X41743Y-23619D01*
X42004Y-23359D01*
X42145Y-23019D01*
X42145Y-22651D01*
X42145Y-24855D01*
X42062Y-24838D01*
X41220Y-24838D01*
X40881Y-24906D01*
X40594Y-25098D01*
X40402Y-25385D01*
X40334Y-25724D01*
X40402Y-26063D01*
X40594Y-26350D01*
X40881Y-26542D01*
X41220Y-26610D01*
X41696Y-26610D01*
X44509Y-29423D01*
X44615Y-29679D01*
X44893Y-29958D01*
X45258Y-30110D01*
X45653Y-30110D01*
X46017Y-29959D01*
X46297Y-29680D01*
X46448Y-29316D01*
X46448Y-29312D01*
X46474Y-29338D01*
X46615Y-29679D01*
X46893Y-29958D01*
X47258Y-30110D01*
X47653Y-30110D01*
X47686Y-30096D01*
X47727Y-30123D01*
X47933Y-30164D01*
X47987Y-30218D01*
X48168Y-30294D01*
X48364Y-30294D01*
X49074Y-30294D01*
X49074Y-30294D01*
X49151Y-30294D01*
X49861Y-30294D01*
X50042Y-30219D01*
X50181Y-30081D01*
X50256Y-29900D01*
X50256Y-29704D01*
X50256Y-29074D01*
X50181Y-28893D01*
X50059Y-28770D01*
X50062Y-28761D01*
X50062Y-28012D01*
X50017Y-27903D01*
X49933Y-27819D01*
X49824Y-27773D01*
X49705Y-27773D01*
X49485Y-27773D01*
X49411Y-27848D01*
X49411Y-28385D01*
X49988Y-28385D01*
X50062Y-28310D01*
X50062Y-28012D01*
X50062Y-28761D01*
X50062Y-28463D01*
X49988Y-28388D01*
X49509Y-28388D01*
X49411Y-28388D01*
X49407Y-28388D01*
X49309Y-28388D01*
X49200Y-28388D01*
X48830Y-28388D01*
X48722Y-28388D01*
X48623Y-28388D01*
X48620Y-28388D01*
X48620Y-28385D01*
X48623Y-28385D01*
X48722Y-28385D01*
X48830Y-28385D01*
X49200Y-28385D01*
X49407Y-28385D01*
X49407Y-27848D01*
X49333Y-27773D01*
X49113Y-27773D01*
X49015Y-27773D01*
X48917Y-27773D01*
X48863Y-27773D01*
X48807Y-27716D01*
X48328Y-27716D01*
X48229Y-27716D01*
X48226Y-27716D01*
X48128Y-27716D01*
X48019Y-27716D01*
X47649Y-27716D01*
X47540Y-27716D01*
X47442Y-27716D01*
X47439Y-27716D01*
X47439Y-27713D01*
X47442Y-27713D01*
X47540Y-27713D01*
X47649Y-27713D01*
X48019Y-27713D01*
X48128Y-27713D01*
X48226Y-27713D01*
X48229Y-27713D01*
X48328Y-27713D01*
X48807Y-27713D01*
X48881Y-27639D01*
X48881Y-27341D01*
X48877Y-27331D01*
X48905Y-27304D01*
X49565Y-27304D01*
X49769Y-27263D01*
X50393Y-27263D01*
X50657Y-27211D01*
X50761Y-27141D01*
X50914Y-27141D01*
X51102Y-27219D01*
X51407Y-27220D01*
X51689Y-27103D01*
X51755Y-27037D01*
X51820Y-27102D01*
X52102Y-27219D01*
X52407Y-27220D01*
X52689Y-27103D01*
X52755Y-27037D01*
X52820Y-27102D01*
X53102Y-27219D01*
X53407Y-27220D01*
X53669Y-27112D01*
X53701Y-27144D01*
X53882Y-27219D01*
X54078Y-27219D01*
X54628Y-27219D01*
X54809Y-27145D01*
X54947Y-27006D01*
X55022Y-26826D01*
X55023Y-26630D01*
X55023Y-26080D01*
X54948Y-25899D01*
X54823Y-25774D01*
X54823Y-24372D01*
X54094Y-23643D01*
X54092Y-23646D01*
X54092Y-23641D01*
X53363Y-22912D01*
X53197Y-22992D01*
X53017Y-23384D01*
X53001Y-23816D01*
X53151Y-24221D01*
X53197Y-24291D01*
X53363Y-24370D01*
X54092Y-23641D01*
X54092Y-23646D01*
X53365Y-24372D01*
X53445Y-24538D01*
X53837Y-24718D01*
X54269Y-24734D01*
X54674Y-24584D01*
X54743Y-24538D01*
X54823Y-24372D01*
X54823Y-25774D01*
X54810Y-25760D01*
X54629Y-25685D01*
X54433Y-25685D01*
X53883Y-25685D01*
X53702Y-25760D01*
X53669Y-25793D01*
X53409Y-25685D01*
X53103Y-25685D01*
X52821Y-25802D01*
X52755Y-25867D01*
X52691Y-25802D01*
X52578Y-25756D01*
X52578Y-21690D01*
X52456Y-21393D01*
X52229Y-21166D01*
X51932Y-21043D01*
X51611Y-21043D01*
X51315Y-21165D01*
X51087Y-21392D01*
X50964Y-21689D01*
X50964Y-22010D01*
X51087Y-22306D01*
X51313Y-22534D01*
X51610Y-22657D01*
X51931Y-22657D01*
X52228Y-22535D01*
X52455Y-22308D01*
X52578Y-22011D01*
X52578Y-21690D01*
X52578Y-25756D01*
X52409Y-25685D01*
X52103Y-25685D01*
X51821Y-25802D01*
X51755Y-25867D01*
X51691Y-25802D01*
X51409Y-25685D01*
X51103Y-25685D01*
X50914Y-25763D01*
X50515Y-25763D01*
X50252Y-25816D01*
X50147Y-25885D01*
X49606Y-25885D01*
X49507Y-25905D01*
X49473Y-25905D01*
X49442Y-25918D01*
X49402Y-25926D01*
X48905Y-25926D01*
X48862Y-25883D01*
X48681Y-25808D01*
X48485Y-25808D01*
X47775Y-25808D01*
X47775Y-25808D01*
X47698Y-25808D01*
X47608Y-25808D01*
X47330Y-25530D01*
X47330Y-25388D01*
X47423Y-25295D01*
X47510Y-25295D01*
X47835Y-25160D01*
X48157Y-25294D01*
X48510Y-25295D01*
X48835Y-25160D01*
X49085Y-24911D01*
X49220Y-24586D01*
X49220Y-24234D01*
X49154Y-24075D01*
X49250Y-24075D01*
X49762Y-24075D01*
X49943Y-24000D01*
X50082Y-23862D01*
X50157Y-23681D01*
X50157Y-23485D01*
X50157Y-23170D01*
X50100Y-23031D01*
X50157Y-22893D01*
X50157Y-22697D01*
X50157Y-22527D01*
X50309Y-22464D01*
X50448Y-22326D01*
X50523Y-22145D01*
X50523Y-21949D01*
X50523Y-20768D01*
X50523Y-20767D01*
X55438Y-20767D01*
X55373Y-20902D01*
X56102Y-21631D01*
X56831Y-20902D01*
X56766Y-20767D01*
X61540Y-20767D01*
X61475Y-20902D01*
X62204Y-21631D01*
X62933Y-20902D01*
X62868Y-20767D01*
X67754Y-20767D01*
X67754Y-30281D01*
M02*
