G04 (created by PCBNEW (2012-nov-02)-testing) date 31.12.2012 (пн) 11,29,38 EET*
%MOIN*%
G04 Gerber Fmt 3.4, Leading zero omitted, Abs format*
%FSLAX34Y34*%
G01*
G70*
G90*
G04 APERTURE LIST*
%ADD10C,7.87402e-06*%
%ADD11C,0.012*%
G04 APERTURE END LIST*
G54D10*
X4000Y-4000D02*
X112930Y-4000D01*
X112930Y-78680D01*
X4000Y-78680D01*
X4000Y-4000D01*
X4700Y-4700D02*
X112230Y-4700D01*
X112230Y-77980D01*
X4700Y-77980D01*
X4700Y-4700D01*
X25780Y-4000D02*
X25780Y-4700D01*
X15032Y-4552D02*
X14747Y-4552D01*
X14890Y-4552D02*
X14890Y-4052D01*
X14842Y-4123D01*
X14794Y-4171D01*
X14747Y-4195D01*
X25780Y-78680D02*
X25780Y-77980D01*
X15032Y-78532D02*
X14747Y-78532D01*
X14890Y-78532D02*
X14890Y-78032D01*
X14842Y-78103D01*
X14794Y-78151D01*
X14747Y-78175D01*
X47560Y-4000D02*
X47560Y-4700D01*
X36527Y-4100D02*
X36550Y-4076D01*
X36598Y-4052D01*
X36717Y-4052D01*
X36765Y-4076D01*
X36789Y-4100D01*
X36812Y-4147D01*
X36812Y-4195D01*
X36789Y-4266D01*
X36503Y-4552D01*
X36812Y-4552D01*
X47560Y-78680D02*
X47560Y-77980D01*
X36527Y-78080D02*
X36550Y-78056D01*
X36598Y-78032D01*
X36717Y-78032D01*
X36765Y-78056D01*
X36789Y-78080D01*
X36812Y-78127D01*
X36812Y-78175D01*
X36789Y-78246D01*
X36503Y-78532D01*
X36812Y-78532D01*
X69340Y-4000D02*
X69340Y-4700D01*
X58283Y-4052D02*
X58592Y-4052D01*
X58426Y-4242D01*
X58497Y-4242D01*
X58545Y-4266D01*
X58569Y-4290D01*
X58592Y-4338D01*
X58592Y-4457D01*
X58569Y-4504D01*
X58545Y-4528D01*
X58497Y-4552D01*
X58354Y-4552D01*
X58307Y-4528D01*
X58283Y-4504D01*
X69340Y-78680D02*
X69340Y-77980D01*
X58283Y-78032D02*
X58592Y-78032D01*
X58426Y-78222D01*
X58497Y-78222D01*
X58545Y-78246D01*
X58569Y-78270D01*
X58592Y-78318D01*
X58592Y-78437D01*
X58569Y-78484D01*
X58545Y-78508D01*
X58497Y-78532D01*
X58354Y-78532D01*
X58307Y-78508D01*
X58283Y-78484D01*
X91120Y-4000D02*
X91120Y-4700D01*
X80325Y-4219D02*
X80325Y-4552D01*
X80206Y-4028D02*
X80087Y-4385D01*
X80396Y-4385D01*
X91120Y-78680D02*
X91120Y-77980D01*
X80325Y-78199D02*
X80325Y-78532D01*
X80206Y-78008D02*
X80087Y-78365D01*
X80396Y-78365D01*
X102129Y-4052D02*
X101890Y-4052D01*
X101867Y-4290D01*
X101890Y-4266D01*
X101938Y-4242D01*
X102057Y-4242D01*
X102105Y-4266D01*
X102129Y-4290D01*
X102152Y-4338D01*
X102152Y-4457D01*
X102129Y-4504D01*
X102105Y-4528D01*
X102057Y-4552D01*
X101938Y-4552D01*
X101890Y-4528D01*
X101867Y-4504D01*
X102129Y-78032D02*
X101890Y-78032D01*
X101867Y-78270D01*
X101890Y-78246D01*
X101938Y-78222D01*
X102057Y-78222D01*
X102105Y-78246D01*
X102129Y-78270D01*
X102152Y-78318D01*
X102152Y-78437D01*
X102129Y-78484D01*
X102105Y-78508D01*
X102057Y-78532D01*
X101938Y-78532D01*
X101890Y-78508D01*
X101867Y-78484D01*
X4000Y-28890D02*
X4700Y-28890D01*
X4230Y-16509D02*
X4469Y-16509D01*
X4183Y-16652D02*
X4350Y-16152D01*
X4516Y-16652D01*
X112930Y-28890D02*
X112230Y-28890D01*
X112460Y-16509D02*
X112699Y-16509D01*
X112413Y-16652D02*
X112580Y-16152D01*
X112746Y-16652D01*
X4000Y-53780D02*
X4700Y-53780D01*
X4385Y-41280D02*
X4457Y-41304D01*
X4480Y-41328D01*
X4504Y-41375D01*
X4504Y-41447D01*
X4480Y-41494D01*
X4457Y-41518D01*
X4409Y-41542D01*
X4219Y-41542D01*
X4219Y-41042D01*
X4385Y-41042D01*
X4433Y-41066D01*
X4457Y-41090D01*
X4480Y-41137D01*
X4480Y-41185D01*
X4457Y-41232D01*
X4433Y-41256D01*
X4385Y-41280D01*
X4219Y-41280D01*
X112930Y-53780D02*
X112230Y-53780D01*
X112615Y-41280D02*
X112687Y-41304D01*
X112710Y-41328D01*
X112734Y-41375D01*
X112734Y-41447D01*
X112710Y-41494D01*
X112687Y-41518D01*
X112639Y-41542D01*
X112449Y-41542D01*
X112449Y-41042D01*
X112615Y-41042D01*
X112663Y-41066D01*
X112687Y-41090D01*
X112710Y-41137D01*
X112710Y-41185D01*
X112687Y-41232D01*
X112663Y-41256D01*
X112615Y-41280D01*
X112449Y-41280D01*
X4504Y-66384D02*
X4480Y-66408D01*
X4409Y-66432D01*
X4361Y-66432D01*
X4290Y-66408D01*
X4242Y-66360D01*
X4219Y-66313D01*
X4195Y-66218D01*
X4195Y-66146D01*
X4219Y-66051D01*
X4242Y-66003D01*
X4290Y-65956D01*
X4361Y-65932D01*
X4409Y-65932D01*
X4480Y-65956D01*
X4504Y-65980D01*
X112734Y-66384D02*
X112710Y-66408D01*
X112639Y-66432D01*
X112591Y-66432D01*
X112520Y-66408D01*
X112472Y-66360D01*
X112449Y-66313D01*
X112425Y-66218D01*
X112425Y-66146D01*
X112449Y-66051D01*
X112472Y-66003D01*
X112520Y-65956D01*
X112591Y-65932D01*
X112639Y-65932D01*
X112710Y-65956D01*
X112734Y-65980D01*
X79380Y-76422D02*
X79455Y-75822D01*
X79597Y-75822D01*
X79680Y-75851D01*
X79730Y-75908D01*
X79751Y-75965D01*
X79765Y-76080D01*
X79755Y-76165D01*
X79712Y-76280D01*
X79676Y-76337D01*
X79612Y-76394D01*
X79522Y-76422D01*
X79380Y-76422D01*
X80237Y-76422D02*
X80276Y-76108D01*
X80255Y-76051D01*
X80201Y-76022D01*
X80087Y-76022D01*
X80026Y-76051D01*
X80240Y-76394D02*
X80180Y-76422D01*
X80037Y-76422D01*
X79983Y-76394D01*
X79962Y-76337D01*
X79969Y-76280D01*
X80005Y-76222D01*
X80065Y-76194D01*
X80208Y-76194D01*
X80269Y-76165D01*
X80487Y-76022D02*
X80715Y-76022D01*
X80597Y-75822D02*
X80533Y-76337D01*
X80555Y-76394D01*
X80608Y-76422D01*
X80665Y-76422D01*
X81097Y-76394D02*
X81037Y-76422D01*
X80922Y-76422D01*
X80869Y-76394D01*
X80847Y-76337D01*
X80876Y-76108D01*
X80912Y-76051D01*
X80972Y-76022D01*
X81087Y-76022D01*
X81140Y-76051D01*
X81162Y-76108D01*
X81155Y-76165D01*
X80862Y-76222D01*
X81387Y-76365D02*
X81412Y-76394D01*
X81380Y-76422D01*
X81355Y-76394D01*
X81387Y-76365D01*
X81380Y-76422D01*
X81426Y-76051D02*
X81451Y-76080D01*
X81419Y-76108D01*
X81394Y-76080D01*
X81426Y-76051D01*
X81419Y-76108D01*
X82140Y-75822D02*
X82512Y-75822D01*
X82283Y-76051D01*
X82369Y-76051D01*
X82422Y-76080D01*
X82447Y-76108D01*
X82469Y-76165D01*
X82451Y-76308D01*
X82415Y-76365D01*
X82383Y-76394D01*
X82322Y-76422D01*
X82151Y-76422D01*
X82097Y-76394D01*
X82072Y-76365D01*
X83008Y-76422D02*
X82665Y-76422D01*
X82837Y-76422D02*
X82912Y-75822D01*
X82844Y-75908D01*
X82780Y-75965D01*
X82719Y-75994D01*
X83980Y-76422D02*
X84055Y-75822D01*
X83983Y-76394D02*
X83922Y-76422D01*
X83808Y-76422D01*
X83755Y-76394D01*
X83730Y-76365D01*
X83708Y-76308D01*
X83730Y-76137D01*
X83765Y-76080D01*
X83797Y-76051D01*
X83858Y-76022D01*
X83972Y-76022D01*
X84026Y-76051D01*
X84497Y-76394D02*
X84437Y-76422D01*
X84322Y-76422D01*
X84269Y-76394D01*
X84247Y-76337D01*
X84276Y-76108D01*
X84312Y-76051D01*
X84372Y-76022D01*
X84487Y-76022D01*
X84540Y-76051D01*
X84562Y-76108D01*
X84555Y-76165D01*
X84262Y-76222D01*
X85040Y-76394D02*
X84980Y-76422D01*
X84865Y-76422D01*
X84812Y-76394D01*
X84787Y-76365D01*
X84765Y-76308D01*
X84787Y-76137D01*
X84822Y-76080D01*
X84855Y-76051D01*
X84915Y-76022D01*
X85030Y-76022D01*
X85083Y-76051D01*
X85790Y-75880D02*
X85822Y-75851D01*
X85883Y-75822D01*
X86026Y-75822D01*
X86080Y-75851D01*
X86105Y-75880D01*
X86126Y-75937D01*
X86119Y-75994D01*
X86080Y-76080D01*
X85694Y-76422D01*
X86065Y-76422D01*
X86512Y-75822D02*
X86569Y-75822D01*
X86622Y-75851D01*
X86647Y-75880D01*
X86669Y-75937D01*
X86683Y-76051D01*
X86665Y-76194D01*
X86622Y-76308D01*
X86587Y-76365D01*
X86555Y-76394D01*
X86494Y-76422D01*
X86437Y-76422D01*
X86383Y-76394D01*
X86358Y-76365D01*
X86337Y-76308D01*
X86322Y-76194D01*
X86340Y-76051D01*
X86383Y-75937D01*
X86419Y-75880D01*
X86451Y-75851D01*
X86512Y-75822D01*
X87208Y-76422D02*
X86865Y-76422D01*
X87037Y-76422D02*
X87112Y-75822D01*
X87044Y-75908D01*
X86980Y-75965D01*
X86919Y-75994D01*
X87505Y-75880D02*
X87537Y-75851D01*
X87597Y-75822D01*
X87740Y-75822D01*
X87794Y-75851D01*
X87819Y-75880D01*
X87840Y-75937D01*
X87833Y-75994D01*
X87794Y-76080D01*
X87408Y-76422D01*
X87780Y-76422D01*
X70972Y-77622D02*
X70972Y-77022D01*
X71315Y-77622D02*
X71058Y-77280D01*
X71315Y-77022D02*
X70972Y-77365D01*
X71572Y-77622D02*
X71572Y-77222D01*
X71572Y-77022D02*
X71544Y-77051D01*
X71572Y-77080D01*
X71601Y-77051D01*
X71572Y-77022D01*
X71572Y-77080D01*
X72201Y-77565D02*
X72172Y-77594D01*
X72087Y-77622D01*
X72030Y-77622D01*
X71944Y-77594D01*
X71887Y-77537D01*
X71858Y-77480D01*
X71830Y-77365D01*
X71830Y-77280D01*
X71858Y-77165D01*
X71887Y-77108D01*
X71944Y-77051D01*
X72030Y-77022D01*
X72087Y-77022D01*
X72172Y-77051D01*
X72201Y-77080D01*
X72715Y-77622D02*
X72715Y-77308D01*
X72687Y-77251D01*
X72630Y-77222D01*
X72515Y-77222D01*
X72458Y-77251D01*
X72715Y-77594D02*
X72658Y-77622D01*
X72515Y-77622D01*
X72458Y-77594D01*
X72430Y-77537D01*
X72430Y-77480D01*
X72458Y-77422D01*
X72515Y-77394D01*
X72658Y-77394D01*
X72715Y-77365D01*
X73258Y-77622D02*
X73258Y-77022D01*
X73258Y-77594D02*
X73201Y-77622D01*
X73087Y-77622D01*
X73030Y-77594D01*
X73001Y-77565D01*
X72972Y-77508D01*
X72972Y-77337D01*
X73001Y-77280D01*
X73030Y-77251D01*
X73087Y-77222D01*
X73201Y-77222D01*
X73258Y-77251D01*
X74001Y-77308D02*
X74201Y-77308D01*
X74287Y-77622D02*
X74001Y-77622D01*
X74001Y-77022D01*
X74287Y-77022D01*
X74544Y-77565D02*
X74572Y-77594D01*
X74544Y-77622D01*
X74515Y-77594D01*
X74544Y-77565D01*
X74544Y-77622D01*
X74829Y-77622D02*
X74829Y-77022D01*
X74972Y-77022D01*
X75058Y-77051D01*
X75115Y-77108D01*
X75144Y-77165D01*
X75172Y-77280D01*
X75172Y-77365D01*
X75144Y-77480D01*
X75115Y-77537D01*
X75058Y-77594D01*
X74972Y-77622D01*
X74829Y-77622D01*
X75429Y-77565D02*
X75458Y-77594D01*
X75429Y-77622D01*
X75401Y-77594D01*
X75429Y-77565D01*
X75429Y-77622D01*
X75687Y-77451D02*
X75972Y-77451D01*
X75629Y-77622D02*
X75829Y-77022D01*
X76029Y-77622D01*
X76229Y-77565D02*
X76258Y-77594D01*
X76229Y-77622D01*
X76201Y-77594D01*
X76229Y-77565D01*
X76229Y-77622D01*
X104522Y-76422D02*
X104358Y-76137D01*
X104180Y-76422D02*
X104255Y-75822D01*
X104483Y-75822D01*
X104537Y-75851D01*
X104562Y-75880D01*
X104583Y-75937D01*
X104572Y-76022D01*
X104537Y-76080D01*
X104505Y-76108D01*
X104444Y-76137D01*
X104215Y-76137D01*
X105012Y-76394D02*
X104951Y-76422D01*
X104837Y-76422D01*
X104783Y-76394D01*
X104762Y-76337D01*
X104790Y-76108D01*
X104826Y-76051D01*
X104887Y-76022D01*
X105001Y-76022D01*
X105055Y-76051D01*
X105076Y-76108D01*
X105069Y-76165D01*
X104776Y-76222D01*
X105287Y-76022D02*
X105380Y-76422D01*
X105572Y-76022D01*
X105758Y-76365D02*
X105783Y-76394D01*
X105751Y-76422D01*
X105726Y-76394D01*
X105758Y-76365D01*
X105751Y-76422D01*
X105797Y-76051D02*
X105822Y-76080D01*
X105790Y-76108D01*
X105765Y-76080D01*
X105797Y-76051D01*
X105790Y-76108D01*
X106808Y-76422D02*
X106465Y-76422D01*
X106637Y-76422D02*
X106712Y-75822D01*
X106644Y-75908D01*
X106580Y-75965D01*
X106519Y-75994D01*
X107072Y-76365D02*
X107097Y-76394D01*
X107065Y-76422D01*
X107040Y-76394D01*
X107072Y-76365D01*
X107065Y-76422D01*
X107540Y-75822D02*
X107597Y-75822D01*
X107651Y-75851D01*
X107676Y-75880D01*
X107697Y-75937D01*
X107712Y-76051D01*
X107694Y-76194D01*
X107651Y-76308D01*
X107615Y-76365D01*
X107583Y-76394D01*
X107522Y-76422D01*
X107465Y-76422D01*
X107412Y-76394D01*
X107387Y-76365D01*
X107365Y-76308D01*
X107351Y-76194D01*
X107369Y-76051D01*
X107412Y-75937D01*
X107447Y-75880D01*
X107480Y-75851D01*
X107540Y-75822D01*
X70944Y-76394D02*
X71030Y-76422D01*
X71172Y-76422D01*
X71230Y-76394D01*
X71258Y-76365D01*
X71287Y-76308D01*
X71287Y-76251D01*
X71258Y-76194D01*
X71230Y-76165D01*
X71172Y-76137D01*
X71058Y-76108D01*
X71001Y-76080D01*
X70972Y-76051D01*
X70944Y-75994D01*
X70944Y-75937D01*
X70972Y-75880D01*
X71001Y-75851D01*
X71058Y-75822D01*
X71201Y-75822D01*
X71287Y-75851D01*
X71544Y-76422D02*
X71544Y-76022D01*
X71544Y-75822D02*
X71515Y-75851D01*
X71544Y-75880D01*
X71572Y-75851D01*
X71544Y-75822D01*
X71544Y-75880D01*
X71772Y-76022D02*
X72087Y-76022D01*
X71772Y-76422D01*
X72087Y-76422D01*
X72544Y-76394D02*
X72487Y-76422D01*
X72372Y-76422D01*
X72315Y-76394D01*
X72287Y-76337D01*
X72287Y-76108D01*
X72315Y-76051D01*
X72372Y-76022D01*
X72487Y-76022D01*
X72544Y-76051D01*
X72572Y-76108D01*
X72572Y-76165D01*
X72287Y-76222D01*
X72830Y-76365D02*
X72858Y-76394D01*
X72830Y-76422D01*
X72801Y-76394D01*
X72830Y-76365D01*
X72830Y-76422D01*
X72830Y-76051D02*
X72858Y-76080D01*
X72830Y-76108D01*
X72801Y-76080D01*
X72830Y-76051D01*
X72830Y-76108D01*
X73544Y-76251D02*
X73830Y-76251D01*
X73487Y-76422D02*
X73687Y-75822D01*
X73887Y-76422D01*
X74344Y-76022D02*
X74344Y-76422D01*
X74201Y-75794D02*
X74058Y-76222D01*
X74430Y-76222D01*
X104172Y-77622D02*
X104172Y-77022D01*
X104715Y-77622D02*
X104715Y-77022D01*
X104715Y-77594D02*
X104658Y-77622D01*
X104544Y-77622D01*
X104487Y-77594D01*
X104458Y-77565D01*
X104430Y-77508D01*
X104430Y-77337D01*
X104458Y-77280D01*
X104487Y-77251D01*
X104544Y-77222D01*
X104658Y-77222D01*
X104715Y-77251D01*
X105001Y-77565D02*
X105030Y-77594D01*
X105001Y-77622D01*
X104972Y-77594D01*
X105001Y-77565D01*
X105001Y-77622D01*
X105001Y-77251D02*
X105030Y-77280D01*
X105001Y-77308D01*
X104972Y-77280D01*
X105001Y-77251D01*
X105001Y-77308D01*
X106058Y-77622D02*
X105715Y-77622D01*
X105887Y-77622D02*
X105887Y-77022D01*
X105829Y-77108D01*
X105772Y-77165D01*
X105715Y-77194D01*
X106744Y-76994D02*
X106230Y-77765D01*
X107258Y-77622D02*
X106915Y-77622D01*
X107087Y-77622D02*
X107087Y-77022D01*
X107029Y-77108D01*
X106972Y-77165D01*
X106915Y-77194D01*
X70969Y-74622D02*
X71312Y-74622D01*
X71065Y-75222D02*
X71140Y-74622D01*
X71437Y-75222D02*
X71487Y-74822D01*
X71512Y-74622D02*
X71480Y-74651D01*
X71505Y-74680D01*
X71537Y-74651D01*
X71512Y-74622D01*
X71505Y-74680D01*
X71687Y-74822D02*
X71915Y-74822D01*
X71797Y-74622D02*
X71733Y-75137D01*
X71755Y-75194D01*
X71808Y-75222D01*
X71865Y-75222D01*
X72151Y-75222D02*
X72097Y-75194D01*
X72076Y-75137D01*
X72140Y-74622D01*
X72612Y-75194D02*
X72551Y-75222D01*
X72437Y-75222D01*
X72383Y-75194D01*
X72362Y-75137D01*
X72390Y-74908D01*
X72426Y-74851D01*
X72487Y-74822D01*
X72601Y-74822D01*
X72655Y-74851D01*
X72676Y-74908D01*
X72669Y-74965D01*
X72376Y-75022D01*
X72901Y-75165D02*
X72926Y-75194D01*
X72894Y-75222D01*
X72869Y-75194D01*
X72901Y-75165D01*
X72894Y-75222D01*
X72940Y-74851D02*
X72965Y-74880D01*
X72933Y-74908D01*
X72908Y-74880D01*
X72940Y-74851D01*
X72933Y-74908D01*
X73637Y-75222D02*
X73712Y-74622D01*
X73940Y-74622D01*
X73994Y-74651D01*
X74019Y-74680D01*
X74040Y-74737D01*
X74030Y-74822D01*
X73994Y-74880D01*
X73962Y-74908D01*
X73901Y-74937D01*
X73672Y-74937D01*
X74587Y-75165D02*
X74555Y-75194D01*
X74465Y-75222D01*
X74408Y-75222D01*
X74326Y-75194D01*
X74276Y-75137D01*
X74255Y-75080D01*
X74240Y-74965D01*
X74251Y-74880D01*
X74294Y-74765D01*
X74330Y-74708D01*
X74394Y-74651D01*
X74483Y-74622D01*
X74540Y-74622D01*
X74622Y-74651D01*
X74647Y-74680D01*
X75380Y-75222D02*
X75326Y-75194D01*
X75301Y-75165D01*
X75280Y-75108D01*
X75301Y-74937D01*
X75337Y-74880D01*
X75369Y-74851D01*
X75430Y-74822D01*
X75515Y-74822D01*
X75569Y-74851D01*
X75594Y-74880D01*
X75615Y-74937D01*
X75594Y-75108D01*
X75558Y-75165D01*
X75526Y-75194D01*
X75465Y-75222D01*
X75380Y-75222D01*
X75812Y-75194D02*
X75865Y-75222D01*
X75980Y-75222D01*
X76040Y-75194D01*
X76076Y-75137D01*
X76080Y-75108D01*
X76058Y-75051D01*
X76005Y-75022D01*
X75919Y-75022D01*
X75865Y-74994D01*
X75844Y-74937D01*
X75847Y-74908D01*
X75883Y-74851D01*
X75944Y-74822D01*
X76030Y-74822D01*
X76083Y-74851D01*
X76583Y-75194D02*
X76522Y-75222D01*
X76408Y-75222D01*
X76355Y-75194D01*
X76330Y-75165D01*
X76308Y-75108D01*
X76330Y-74937D01*
X76365Y-74880D01*
X76397Y-74851D01*
X76458Y-74822D01*
X76572Y-74822D01*
X76626Y-74851D01*
X76837Y-75222D02*
X76887Y-74822D01*
X76912Y-74622D02*
X76880Y-74651D01*
X76905Y-74680D01*
X76937Y-74651D01*
X76912Y-74622D01*
X76905Y-74680D01*
X77208Y-75222D02*
X77155Y-75194D01*
X77133Y-75137D01*
X77197Y-74622D01*
X77522Y-75222D02*
X77469Y-75194D01*
X77447Y-75137D01*
X77512Y-74622D01*
X77837Y-75222D02*
X77783Y-75194D01*
X77758Y-75165D01*
X77737Y-75108D01*
X77758Y-74937D01*
X77794Y-74880D01*
X77826Y-74851D01*
X77887Y-74822D01*
X77972Y-74822D01*
X78026Y-74851D01*
X78051Y-74880D01*
X78072Y-74937D01*
X78051Y-75108D01*
X78015Y-75165D01*
X77983Y-75194D01*
X77922Y-75222D01*
X77837Y-75222D01*
X78269Y-75194D02*
X78322Y-75222D01*
X78437Y-75222D01*
X78497Y-75194D01*
X78533Y-75137D01*
X78537Y-75108D01*
X78515Y-75051D01*
X78462Y-75022D01*
X78376Y-75022D01*
X78322Y-74994D01*
X78301Y-74937D01*
X78305Y-74908D01*
X78340Y-74851D01*
X78401Y-74822D01*
X78487Y-74822D01*
X78540Y-74851D01*
X79040Y-75194D02*
X78980Y-75222D01*
X78865Y-75222D01*
X78812Y-75194D01*
X78787Y-75165D01*
X78765Y-75108D01*
X78787Y-74937D01*
X78822Y-74880D01*
X78855Y-74851D01*
X78915Y-74822D01*
X79030Y-74822D01*
X79083Y-74851D01*
X79380Y-75222D02*
X79326Y-75194D01*
X79301Y-75165D01*
X79280Y-75108D01*
X79301Y-74937D01*
X79337Y-74880D01*
X79369Y-74851D01*
X79430Y-74822D01*
X79515Y-74822D01*
X79569Y-74851D01*
X79594Y-74880D01*
X79615Y-74937D01*
X79594Y-75108D01*
X79558Y-75165D01*
X79526Y-75194D01*
X79465Y-75222D01*
X79380Y-75222D01*
X79887Y-74822D02*
X79812Y-75422D01*
X79883Y-74851D02*
X79944Y-74822D01*
X80058Y-74822D01*
X80112Y-74851D01*
X80137Y-74880D01*
X80158Y-74937D01*
X80137Y-75108D01*
X80101Y-75165D01*
X80069Y-75194D01*
X80008Y-75222D01*
X79894Y-75222D01*
X79840Y-75194D01*
X80612Y-75194D02*
X80551Y-75222D01*
X80437Y-75222D01*
X80383Y-75194D01*
X80362Y-75137D01*
X80390Y-74908D01*
X80426Y-74851D01*
X80487Y-74822D01*
X80601Y-74822D01*
X80655Y-74851D01*
X80676Y-74908D01*
X80669Y-74965D01*
X80376Y-75022D01*
X81401Y-74822D02*
X81326Y-75422D01*
X81397Y-74851D02*
X81458Y-74822D01*
X81572Y-74822D01*
X81626Y-74851D01*
X81651Y-74880D01*
X81672Y-74937D01*
X81651Y-75108D01*
X81615Y-75165D01*
X81583Y-75194D01*
X81522Y-75222D01*
X81408Y-75222D01*
X81355Y-75194D01*
X81894Y-75222D02*
X81944Y-74822D01*
X81930Y-74937D02*
X81965Y-74880D01*
X81997Y-74851D01*
X82058Y-74822D01*
X82115Y-74822D01*
X82351Y-75222D02*
X82297Y-75194D01*
X82272Y-75165D01*
X82251Y-75108D01*
X82272Y-74937D01*
X82308Y-74880D01*
X82340Y-74851D01*
X82401Y-74822D01*
X82487Y-74822D01*
X82540Y-74851D01*
X82565Y-74880D01*
X82587Y-74937D01*
X82565Y-75108D01*
X82530Y-75165D01*
X82497Y-75194D01*
X82437Y-75222D01*
X82351Y-75222D01*
X82808Y-75222D02*
X82883Y-74622D01*
X82855Y-74851D02*
X82915Y-74822D01*
X83030Y-74822D01*
X83083Y-74851D01*
X83108Y-74880D01*
X83130Y-74937D01*
X83108Y-75108D01*
X83072Y-75165D01*
X83040Y-75194D01*
X82980Y-75222D01*
X82865Y-75222D01*
X82812Y-75194D01*
X83583Y-75194D02*
X83522Y-75222D01*
X83408Y-75222D01*
X83355Y-75194D01*
X83333Y-75137D01*
X83362Y-74908D01*
X83397Y-74851D01*
X83458Y-74822D01*
X83572Y-74822D01*
X83626Y-74851D01*
X83647Y-74908D01*
X83640Y-74965D01*
X83347Y-75022D01*
X83840Y-75194D02*
X83894Y-75222D01*
X84008Y-75222D01*
X84069Y-75194D01*
X84105Y-75137D01*
X84108Y-75108D01*
X84087Y-75051D01*
X84033Y-75022D01*
X83947Y-75022D01*
X83894Y-74994D01*
X83872Y-74937D01*
X83876Y-74908D01*
X83912Y-74851D01*
X83972Y-74822D01*
X84058Y-74822D01*
X84112Y-74851D01*
X71172Y-72508D02*
X70972Y-72508D01*
X70972Y-72822D02*
X70972Y-72222D01*
X71258Y-72222D01*
X71487Y-72822D02*
X71487Y-72422D01*
X71487Y-72222D02*
X71458Y-72251D01*
X71487Y-72280D01*
X71515Y-72251D01*
X71487Y-72222D01*
X71487Y-72280D01*
X71858Y-72822D02*
X71801Y-72794D01*
X71772Y-72737D01*
X71772Y-72222D01*
X72315Y-72794D02*
X72258Y-72822D01*
X72144Y-72822D01*
X72087Y-72794D01*
X72058Y-72737D01*
X72058Y-72508D01*
X72087Y-72451D01*
X72144Y-72422D01*
X72258Y-72422D01*
X72315Y-72451D01*
X72344Y-72508D01*
X72344Y-72565D01*
X72058Y-72622D01*
X72601Y-72765D02*
X72630Y-72794D01*
X72601Y-72822D01*
X72572Y-72794D01*
X72601Y-72765D01*
X72601Y-72822D01*
X72601Y-72451D02*
X72630Y-72480D01*
X72601Y-72508D01*
X72572Y-72480D01*
X72601Y-72451D01*
X72601Y-72508D01*
X73344Y-72422D02*
X73344Y-73022D01*
X73344Y-72451D02*
X73401Y-72422D01*
X73515Y-72422D01*
X73572Y-72451D01*
X73601Y-72480D01*
X73630Y-72537D01*
X73630Y-72708D01*
X73601Y-72765D01*
X73572Y-72794D01*
X73515Y-72822D01*
X73401Y-72822D01*
X73344Y-72794D01*
X73887Y-72822D02*
X73887Y-72422D01*
X73887Y-72537D02*
X73915Y-72480D01*
X73944Y-72451D01*
X74001Y-72422D01*
X74058Y-72422D01*
X74344Y-72822D02*
X74287Y-72794D01*
X74258Y-72765D01*
X74230Y-72708D01*
X74230Y-72537D01*
X74258Y-72480D01*
X74287Y-72451D01*
X74344Y-72422D01*
X74430Y-72422D01*
X74487Y-72451D01*
X74515Y-72480D01*
X74544Y-72537D01*
X74544Y-72708D01*
X74515Y-72765D01*
X74487Y-72794D01*
X74430Y-72822D01*
X74344Y-72822D01*
X74801Y-72822D02*
X74801Y-72222D01*
X74801Y-72451D02*
X74858Y-72422D01*
X74972Y-72422D01*
X75030Y-72451D01*
X75058Y-72480D01*
X75087Y-72537D01*
X75087Y-72708D01*
X75058Y-72765D01*
X75030Y-72794D01*
X74972Y-72822D01*
X74858Y-72822D01*
X74801Y-72794D01*
X75572Y-72794D02*
X75515Y-72822D01*
X75401Y-72822D01*
X75344Y-72794D01*
X75315Y-72737D01*
X75315Y-72508D01*
X75344Y-72451D01*
X75401Y-72422D01*
X75515Y-72422D01*
X75572Y-72451D01*
X75601Y-72508D01*
X75601Y-72565D01*
X75315Y-72622D01*
X75830Y-72794D02*
X75887Y-72822D01*
X76001Y-72822D01*
X76058Y-72794D01*
X76087Y-72737D01*
X76087Y-72708D01*
X76058Y-72651D01*
X76001Y-72622D01*
X75915Y-72622D01*
X75858Y-72594D01*
X75830Y-72537D01*
X75830Y-72508D01*
X75858Y-72451D01*
X75915Y-72422D01*
X76001Y-72422D01*
X76058Y-72451D01*
X76344Y-72765D02*
X76372Y-72794D01*
X76344Y-72822D01*
X76315Y-72794D01*
X76344Y-72765D01*
X76344Y-72822D01*
X76630Y-72822D02*
X76630Y-72222D01*
X76630Y-72451D02*
X76687Y-72422D01*
X76801Y-72422D01*
X76858Y-72451D01*
X76887Y-72480D01*
X76915Y-72537D01*
X76915Y-72708D01*
X76887Y-72765D01*
X76858Y-72794D01*
X76801Y-72822D01*
X76687Y-72822D01*
X76630Y-72794D01*
X77172Y-72822D02*
X77172Y-72422D01*
X77172Y-72537D02*
X77201Y-72480D01*
X77230Y-72451D01*
X77287Y-72422D01*
X77344Y-72422D01*
X77801Y-72822D02*
X77801Y-72222D01*
X77801Y-72794D02*
X77744Y-72822D01*
X77630Y-72822D01*
X77572Y-72794D01*
X77544Y-72765D01*
X77515Y-72708D01*
X77515Y-72537D01*
X77544Y-72480D01*
X77572Y-72451D01*
X77630Y-72422D01*
X77744Y-72422D01*
X77801Y-72451D01*
X70944Y-73994D02*
X71030Y-74022D01*
X71172Y-74022D01*
X71230Y-73994D01*
X71258Y-73965D01*
X71287Y-73908D01*
X71287Y-73851D01*
X71258Y-73794D01*
X71230Y-73765D01*
X71172Y-73737D01*
X71058Y-73708D01*
X71001Y-73680D01*
X70972Y-73651D01*
X70944Y-73594D01*
X70944Y-73537D01*
X70972Y-73480D01*
X71001Y-73451D01*
X71058Y-73422D01*
X71201Y-73422D01*
X71287Y-73451D01*
X71544Y-74022D02*
X71544Y-73422D01*
X71801Y-74022D02*
X71801Y-73708D01*
X71772Y-73651D01*
X71715Y-73622D01*
X71630Y-73622D01*
X71572Y-73651D01*
X71544Y-73680D01*
X72315Y-73994D02*
X72258Y-74022D01*
X72144Y-74022D01*
X72087Y-73994D01*
X72058Y-73937D01*
X72058Y-73708D01*
X72087Y-73651D01*
X72144Y-73622D01*
X72258Y-73622D01*
X72315Y-73651D01*
X72344Y-73708D01*
X72344Y-73765D01*
X72058Y-73822D01*
X72830Y-73994D02*
X72772Y-74022D01*
X72658Y-74022D01*
X72601Y-73994D01*
X72572Y-73937D01*
X72572Y-73708D01*
X72601Y-73651D01*
X72658Y-73622D01*
X72772Y-73622D01*
X72830Y-73651D01*
X72858Y-73708D01*
X72858Y-73765D01*
X72572Y-73822D01*
X73030Y-73622D02*
X73258Y-73622D01*
X73115Y-73422D02*
X73115Y-73937D01*
X73144Y-73994D01*
X73201Y-74022D01*
X73258Y-74022D01*
X73458Y-73965D02*
X73487Y-73994D01*
X73458Y-74022D01*
X73430Y-73994D01*
X73458Y-73965D01*
X73458Y-74022D01*
X73458Y-73651D02*
X73487Y-73680D01*
X73458Y-73708D01*
X73430Y-73680D01*
X73458Y-73651D01*
X73458Y-73708D01*
X70230Y-71980D02*
X70230Y-77980D01*
X70230Y-71980D02*
X112230Y-71980D01*
X70230Y-71980D02*
X112230Y-71980D01*
X70230Y-74380D02*
X112230Y-74380D01*
X103430Y-75580D02*
X103430Y-77980D01*
X70230Y-76780D02*
X112230Y-76780D01*
X70230Y-75580D02*
X112230Y-75580D01*
X76830Y-75580D02*
X76830Y-76780D01*
G54D11*
X68307Y-19685D02*
X68307Y-38976D01*
X24409Y-19685D02*
X68307Y-19685D01*
X24409Y-20078D02*
X24409Y-19685D01*
X24409Y-20669D02*
X24409Y-20078D01*
X24409Y-38976D02*
X24409Y-20669D01*
X68307Y-38976D02*
X24409Y-38976D01*
M02*
