<?xml version="1.0" standalone="no"?>
 <!DOCTYPE svg PUBLIC "-//W3C//DTD SVG 1.1//EN" 
 "http://www.w3.org/Graphics/SVG/1.1/DTD/svg11.dtd"> 
<svg xmlns="http://www.w3.org/2000/svg" version="1.1" 
    width="29.7002cm" height="21.0007cm" viewBox="0 0 116930 82680 ">
<title>SVG Picture created as probes-Edge_Cuts.svg date 2012/12/30 22:52:10 </title>
  <desc>Picture generated by PCBNEW </desc>
<g style="fill:#000000; fill-opacity:1;stroke:#000000; stroke-opacity:1;
stroke-linecap:round; stroke-linejoin:round; "
 transform="translate(0 0) scale(1 1)">
</g>
<g style="fill:#000000; fill-opacity:0.0; 
stroke:#000000; stroke-width:0.0787402; stroke-opacity:1; 
stroke-linecap:round; stroke-linejoin:round;">
<path d="M4000 4000
L112930 4000
L112930 78680
L4000 78680
L4000 4000
" />
<path d="M4700 4700
L112230 4700
L112230 77980
L4700 77980
L4700 4700
" />
<path d="M25780 4000
L25780 4700
" />
<path d="M15032 4552
L14747 4552
" />
<path d="M14890 4552
L14890 4052
L14842 4123
L14794 4171
L14747 4195
" />
<path d="M25780 78680
L25780 77980
" />
<path d="M15032 78532
L14747 78532
" />
<path d="M14890 78532
L14890 78032
L14842 78103
L14794 78151
L14747 78175
" />
<path d="M47560 4000
L47560 4700
" />
<path d="M36527 4100
L36550 4076
L36598 4052
L36717 4052
L36765 4076
L36789 4100
L36812 4147
L36812 4195
L36789 4266
L36503 4552
L36812 4552
" />
<path d="M47560 78680
L47560 77980
" />
<path d="M36527 78080
L36550 78056
L36598 78032
L36717 78032
L36765 78056
L36789 78080
L36812 78127
L36812 78175
L36789 78246
L36503 78532
L36812 78532
" />
<path d="M69340 4000
L69340 4700
" />
<path d="M58283 4052
L58592 4052
L58426 4242
L58497 4242
L58545 4266
L58569 4290
L58592 4338
L58592 4457
L58569 4504
L58545 4528
L58497 4552
L58354 4552
L58307 4528
L58283 4504
" />
<path d="M69340 78680
L69340 77980
" />
<path d="M58283 78032
L58592 78032
L58426 78222
L58497 78222
L58545 78246
L58569 78270
L58592 78318
L58592 78437
L58569 78484
L58545 78508
L58497 78532
L58354 78532
L58307 78508
L58283 78484
" />
<path d="M91120 4000
L91120 4700
" />
<path d="M80325 4219
L80325 4552
" />
<path d="M80206 4028
L80087 4385
L80396 4385
" />
<path d="M91120 78680
L91120 77980
" />
<path d="M80325 78199
L80325 78532
" />
<path d="M80206 78008
L80087 78365
L80396 78365
" />
<path d="M102129 4052
L101890 4052
L101867 4290
L101890 4266
L101938 4242
L102057 4242
L102105 4266
L102129 4290
L102152 4338
L102152 4457
L102129 4504
L102105 4528
L102057 4552
L101938 4552
L101890 4528
L101867 4504
" />
<path d="M102129 78032
L101890 78032
L101867 78270
L101890 78246
L101938 78222
L102057 78222
L102105 78246
L102129 78270
L102152 78318
L102152 78437
L102129 78484
L102105 78508
L102057 78532
L101938 78532
L101890 78508
L101867 78484
" />
<path d="M4000 28890
L4700 28890
" />
<path d="M4230 16509
L4469 16509
" />
<path d="M4183 16652
L4350 16152
L4516 16652
" />
<path d="M112930 28890
L112230 28890
" />
<path d="M112460 16509
L112699 16509
" />
<path d="M112413 16652
L112580 16152
L112746 16652
" />
<path d="M4000 53780
L4700 53780
" />
<path d="M4385 41280
L4457 41304
L4480 41328
L4504 41375
L4504 41447
L4480 41494
L4457 41518
L4409 41542
L4219 41542
L4219 41042
L4385 41042
L4433 41066
L4457 41090
L4480 41137
L4480 41185
L4457 41232
L4433 41256
L4385 41280
L4219 41280
" />
<path d="M112930 53780
L112230 53780
" />
<path d="M112615 41280
L112687 41304
L112710 41328
L112734 41375
L112734 41447
L112710 41494
L112687 41518
L112639 41542
L112449 41542
L112449 41042
L112615 41042
L112663 41066
L112687 41090
L112710 41137
L112710 41185
L112687 41232
L112663 41256
L112615 41280
L112449 41280
" />
<path d="M4504 66384
L4480 66408
L4409 66432
L4361 66432
L4290 66408
L4242 66360
L4219 66313
L4195 66218
L4195 66146
L4219 66051
L4242 66003
L4290 65956
L4361 65932
L4409 65932
L4480 65956
L4504 65980
" />
<path d="M112734 66384
L112710 66408
L112639 66432
L112591 66432
L112520 66408
L112472 66360
L112449 66313
L112425 66218
L112425 66146
L112449 66051
L112472 66003
L112520 65956
L112591 65932
L112639 65932
L112710 65956
L112734 65980
" />
<path d="M79380 76422
L79455 75822
L79597 75822
L79680 75851
L79730 75908
L79751 75965
L79765 76080
L79755 76165
L79712 76280
L79676 76337
L79612 76394
L79522 76422
L79380 76422
" />
<path d="M80237 76422
L80276 76108
L80255 76051
L80201 76022
L80087 76022
L80026 76051
" />
<path d="M80240 76394
L80180 76422
L80037 76422
L79983 76394
L79962 76337
L79969 76280
L80005 76222
L80065 76194
L80208 76194
L80269 76165
" />
<path d="M80487 76022
L80715 76022
" />
<path d="M80597 75822
L80533 76337
L80555 76394
L80608 76422
L80665 76422
" />
<path d="M81097 76394
L81037 76422
L80922 76422
L80869 76394
L80847 76337
L80876 76108
L80912 76051
L80972 76022
L81087 76022
L81140 76051
L81162 76108
L81155 76165
L80862 76222
" />
<path d="M81387 76365
L81412 76394
L81380 76422
L81355 76394
L81387 76365
L81380 76422
" />
<path d="M81426 76051
L81451 76080
L81419 76108
L81394 76080
L81426 76051
L81419 76108
" />
<path d="M82140 75822
L82512 75822
L82283 76051
L82369 76051
L82422 76080
L82447 76108
L82469 76165
L82451 76308
L82415 76365
L82383 76394
L82322 76422
L82151 76422
L82097 76394
L82072 76365
" />
<path d="M82883 75822
L82940 75822
L82994 75851
L83019 75880
L83040 75937
L83055 76051
L83037 76194
L82994 76308
L82958 76365
L82926 76394
L82865 76422
L82808 76422
L82755 76394
L82730 76365
L82708 76308
L82694 76194
L82712 76051
L82755 75937
L82790 75880
L82822 75851
L82883 75822
" />
<path d="M83980 76422
L84055 75822
" />
<path d="M83983 76394
L83922 76422
L83808 76422
L83755 76394
L83730 76365
L83708 76308
L83730 76137
L83765 76080
L83797 76051
L83858 76022
L83972 76022
L84026 76051
" />
<path d="M84497 76394
L84437 76422
L84322 76422
L84269 76394
L84247 76337
L84276 76108
L84312 76051
L84372 76022
L84487 76022
L84540 76051
L84562 76108
L84555 76165
L84262 76222
" />
<path d="M85040 76394
L84980 76422
L84865 76422
L84812 76394
L84787 76365
L84765 76308
L84787 76137
L84822 76080
L84855 76051
L84915 76022
L85030 76022
L85083 76051
" />
<path d="M85790 75880
L85822 75851
L85883 75822
L86026 75822
L86080 75851
L86105 75880
L86126 75937
L86119 75994
L86080 76080
L85694 76422
L86065 76422
" />
<path d="M86512 75822
L86569 75822
L86622 75851
L86647 75880
L86669 75937
L86683 76051
L86665 76194
L86622 76308
L86587 76365
L86555 76394
L86494 76422
L86437 76422
L86383 76394
L86358 76365
L86337 76308
L86322 76194
L86340 76051
L86383 75937
L86419 75880
L86451 75851
L86512 75822
" />
<path d="M87208 76422
L86865 76422
" />
<path d="M87037 76422
L87112 75822
L87044 75908
L86980 75965
L86919 75994
" />
<path d="M87505 75880
L87537 75851
L87597 75822
L87740 75822
L87794 75851
L87819 75880
L87840 75937
L87833 75994
L87794 76080
L87408 76422
L87780 76422
" />
<path d="M70972 77622
L70972 77022
" />
<path d="M71315 77622
L71058 77280
" />
<path d="M71315 77022
L70972 77365
" />
<path d="M71572 77622
L71572 77222
" />
<path d="M71572 77022
L71544 77051
L71572 77080
L71601 77051
L71572 77022
L71572 77080
" />
<path d="M72201 77565
L72172 77594
L72087 77622
L72030 77622
L71944 77594
L71887 77537
L71858 77480
L71830 77365
L71830 77280
L71858 77165
L71887 77108
L71944 77051
L72030 77022
L72087 77022
L72172 77051
L72201 77080
" />
<path d="M72715 77622
L72715 77308
L72687 77251
L72630 77222
L72515 77222
L72458 77251
" />
<path d="M72715 77594
L72658 77622
L72515 77622
L72458 77594
L72430 77537
L72430 77480
L72458 77422
L72515 77394
L72658 77394
L72715 77365
" />
<path d="M73258 77622
L73258 77022
" />
<path d="M73258 77594
L73201 77622
L73087 77622
L73030 77594
L73001 77565
L72972 77508
L72972 77337
L73001 77280
L73030 77251
L73087 77222
L73201 77222
L73258 77251
" />
<path d="M74001 77308
L74201 77308
" />
<path d="M74287 77622
L74001 77622
L74001 77022
L74287 77022
" />
<path d="M74544 77565
L74572 77594
L74544 77622
L74515 77594
L74544 77565
L74544 77622
" />
<path d="M74829 77622
L74829 77022
L74972 77022
L75058 77051
L75115 77108
L75144 77165
L75172 77280
L75172 77365
L75144 77480
L75115 77537
L75058 77594
L74972 77622
L74829 77622
" />
<path d="M75429 77565
L75458 77594
L75429 77622
L75401 77594
L75429 77565
L75429 77622
" />
<path d="M75687 77451
L75972 77451
" />
<path d="M75629 77622
L75829 77022
L76029 77622
" />
<path d="M76229 77565
L76258 77594
L76229 77622
L76201 77594
L76229 77565
L76229 77622
" />
<path d="M104522 76422
L104358 76137
" />
<path d="M104180 76422
L104255 75822
L104483 75822
L104537 75851
L104562 75880
L104583 75937
L104572 76022
L104537 76080
L104505 76108
L104444 76137
L104215 76137
" />
<path d="M105012 76394
L104951 76422
L104837 76422
L104783 76394
L104762 76337
L104790 76108
L104826 76051
L104887 76022
L105001 76022
L105055 76051
L105076 76108
L105069 76165
L104776 76222
" />
<path d="M105287 76022
L105380 76422
L105572 76022
" />
<path d="M105758 76365
L105783 76394
L105751 76422
L105726 76394
L105758 76365
L105751 76422
" />
<path d="M105797 76051
L105822 76080
L105790 76108
L105765 76080
L105797 76051
L105790 76108
" />
<path d="M106808 76422
L106465 76422
" />
<path d="M106637 76422
L106712 75822
L106644 75908
L106580 75965
L106519 75994
" />
<path d="M107072 76365
L107097 76394
L107065 76422
L107040 76394
L107072 76365
L107065 76422
" />
<path d="M107540 75822
L107597 75822
L107651 75851
L107676 75880
L107697 75937
L107712 76051
L107694 76194
L107651 76308
L107615 76365
L107583 76394
L107522 76422
L107465 76422
L107412 76394
L107387 76365
L107365 76308
L107351 76194
L107369 76051
L107412 75937
L107447 75880
L107480 75851
L107540 75822
" />
<path d="M70944 76394
L71030 76422
L71172 76422
L71230 76394
L71258 76365
L71287 76308
L71287 76251
L71258 76194
L71230 76165
L71172 76137
L71058 76108
L71001 76080
L70972 76051
L70944 75994
L70944 75937
L70972 75880
L71001 75851
L71058 75822
L71201 75822
L71287 75851
" />
<path d="M71544 76422
L71544 76022
" />
<path d="M71544 75822
L71515 75851
L71544 75880
L71572 75851
L71544 75822
L71544 75880
" />
<path d="M71772 76022
L72087 76022
L71772 76422
L72087 76422
" />
<path d="M72544 76394
L72487 76422
L72372 76422
L72315 76394
L72287 76337
L72287 76108
L72315 76051
L72372 76022
L72487 76022
L72544 76051
L72572 76108
L72572 76165
L72287 76222
" />
<path d="M72830 76365
L72858 76394
L72830 76422
L72801 76394
L72830 76365
L72830 76422
" />
<path d="M72830 76051
L72858 76080
L72830 76108
L72801 76080
L72830 76051
L72830 76108
" />
<path d="M73544 76251
L73830 76251
" />
<path d="M73487 76422
L73687 75822
L73887 76422
" />
<path d="M74344 76022
L74344 76422
" />
<path d="M74201 75794
L74058 76222
L74430 76222
" />
<path d="M104172 77622
L104172 77022
" />
<path d="M104715 77622
L104715 77022
" />
<path d="M104715 77594
L104658 77622
L104544 77622
L104487 77594
L104458 77565
L104430 77508
L104430 77337
L104458 77280
L104487 77251
L104544 77222
L104658 77222
L104715 77251
" />
<path d="M105001 77565
L105030 77594
L105001 77622
L104972 77594
L105001 77565
L105001 77622
" />
<path d="M105001 77251
L105030 77280
L105001 77308
L104972 77280
L105001 77251
L105001 77308
" />
<path d="M106058 77622
L105715 77622
" />
<path d="M105887 77622
L105887 77022
L105829 77108
L105772 77165
L105715 77194
" />
<path d="M106744 76994
L106230 77765
" />
<path d="M107258 77622
L106915 77622
" />
<path d="M107087 77622
L107087 77022
L107029 77108
L106972 77165
L106915 77194
" />
<path d="M70969 74622
L71312 74622
" />
<path d="M71065 75222
L71140 74622
" />
<path d="M71437 75222
L71487 74822
" />
<path d="M71512 74622
L71480 74651
L71505 74680
L71537 74651
L71512 74622
L71505 74680
" />
<path d="M71687 74822
L71915 74822
" />
<path d="M71797 74622
L71733 75137
L71755 75194
L71808 75222
L71865 75222
" />
<path d="M72151 75222
L72097 75194
L72076 75137
L72140 74622
" />
<path d="M72612 75194
L72551 75222
L72437 75222
L72383 75194
L72362 75137
L72390 74908
L72426 74851
L72487 74822
L72601 74822
L72655 74851
L72676 74908
L72669 74965
L72376 75022
" />
<path d="M72901 75165
L72926 75194
L72894 75222
L72869 75194
L72901 75165
L72894 75222
" />
<path d="M72940 74851
L72965 74880
L72933 74908
L72908 74880
L72940 74851
L72933 74908
" />
<path d="M73637 75222
L73712 74622
L73940 74622
L73994 74651
L74019 74680
L74040 74737
L74030 74822
L73994 74880
L73962 74908
L73901 74937
L73672 74937
" />
<path d="M74587 75165
L74555 75194
L74465 75222
L74408 75222
L74326 75194
L74276 75137
L74255 75080
L74240 74965
L74251 74880
L74294 74765
L74330 74708
L74394 74651
L74483 74622
L74540 74622
L74622 74651
L74647 74680
" />
<path d="M75380 75222
L75326 75194
L75301 75165
L75280 75108
L75301 74937
L75337 74880
L75369 74851
L75430 74822
L75515 74822
L75569 74851
L75594 74880
L75615 74937
L75594 75108
L75558 75165
L75526 75194
L75465 75222
L75380 75222
" />
<path d="M75812 75194
L75865 75222
L75980 75222
L76040 75194
L76076 75137
L76080 75108
L76058 75051
L76005 75022
L75919 75022
L75865 74994
L75844 74937
L75847 74908
L75883 74851
L75944 74822
L76030 74822
L76083 74851
" />
<path d="M76583 75194
L76522 75222
L76408 75222
L76355 75194
L76330 75165
L76308 75108
L76330 74937
L76365 74880
L76397 74851
L76458 74822
L76572 74822
L76626 74851
" />
<path d="M76837 75222
L76887 74822
" />
<path d="M76912 74622
L76880 74651
L76905 74680
L76937 74651
L76912 74622
L76905 74680
" />
<path d="M77208 75222
L77155 75194
L77133 75137
L77197 74622
" />
<path d="M77522 75222
L77469 75194
L77447 75137
L77512 74622
" />
<path d="M77837 75222
L77783 75194
L77758 75165
L77737 75108
L77758 74937
L77794 74880
L77826 74851
L77887 74822
L77972 74822
L78026 74851
L78051 74880
L78072 74937
L78051 75108
L78015 75165
L77983 75194
L77922 75222
L77837 75222
" />
<path d="M78269 75194
L78322 75222
L78437 75222
L78497 75194
L78533 75137
L78537 75108
L78515 75051
L78462 75022
L78376 75022
L78322 74994
L78301 74937
L78305 74908
L78340 74851
L78401 74822
L78487 74822
L78540 74851
" />
<path d="M79040 75194
L78980 75222
L78865 75222
L78812 75194
L78787 75165
L78765 75108
L78787 74937
L78822 74880
L78855 74851
L78915 74822
L79030 74822
L79083 74851
" />
<path d="M79380 75222
L79326 75194
L79301 75165
L79280 75108
L79301 74937
L79337 74880
L79369 74851
L79430 74822
L79515 74822
L79569 74851
L79594 74880
L79615 74937
L79594 75108
L79558 75165
L79526 75194
L79465 75222
L79380 75222
" />
<path d="M79887 74822
L79812 75422
" />
<path d="M79883 74851
L79944 74822
L80058 74822
L80112 74851
L80137 74880
L80158 74937
L80137 75108
L80101 75165
L80069 75194
L80008 75222
L79894 75222
L79840 75194
" />
<path d="M80612 75194
L80551 75222
L80437 75222
L80383 75194
L80362 75137
L80390 74908
L80426 74851
L80487 74822
L80601 74822
L80655 74851
L80676 74908
L80669 74965
L80376 75022
" />
<path d="M81401 74822
L81326 75422
" />
<path d="M81397 74851
L81458 74822
L81572 74822
L81626 74851
L81651 74880
L81672 74937
L81651 75108
L81615 75165
L81583 75194
L81522 75222
L81408 75222
L81355 75194
" />
<path d="M81894 75222
L81944 74822
" />
<path d="M81930 74937
L81965 74880
L81997 74851
L82058 74822
L82115 74822
" />
<path d="M82351 75222
L82297 75194
L82272 75165
L82251 75108
L82272 74937
L82308 74880
L82340 74851
L82401 74822
L82487 74822
L82540 74851
L82565 74880
L82587 74937
L82565 75108
L82530 75165
L82497 75194
L82437 75222
L82351 75222
" />
<path d="M82808 75222
L82883 74622
" />
<path d="M82855 74851
L82915 74822
L83030 74822
L83083 74851
L83108 74880
L83130 74937
L83108 75108
L83072 75165
L83040 75194
L82980 75222
L82865 75222
L82812 75194
" />
<path d="M83583 75194
L83522 75222
L83408 75222
L83355 75194
L83333 75137
L83362 74908
L83397 74851
L83458 74822
L83572 74822
L83626 74851
L83647 74908
L83640 74965
L83347 75022
" />
<path d="M83840 75194
L83894 75222
L84008 75222
L84069 75194
L84105 75137
L84108 75108
L84087 75051
L84033 75022
L83947 75022
L83894 74994
L83872 74937
L83876 74908
L83912 74851
L83972 74822
L84058 74822
L84112 74851
" />
<path d="M71172 72508
L70972 72508
" />
<path d="M70972 72822
L70972 72222
L71258 72222
" />
<path d="M71487 72822
L71487 72422
" />
<path d="M71487 72222
L71458 72251
L71487 72280
L71515 72251
L71487 72222
L71487 72280
" />
<path d="M71858 72822
L71801 72794
L71772 72737
L71772 72222
" />
<path d="M72315 72794
L72258 72822
L72144 72822
L72087 72794
L72058 72737
L72058 72508
L72087 72451
L72144 72422
L72258 72422
L72315 72451
L72344 72508
L72344 72565
L72058 72622
" />
<path d="M72601 72765
L72630 72794
L72601 72822
L72572 72794
L72601 72765
L72601 72822
" />
<path d="M72601 72451
L72630 72480
L72601 72508
L72572 72480
L72601 72451
L72601 72508
" />
<path d="M73344 72422
L73344 73022
" />
<path d="M73344 72451
L73401 72422
L73515 72422
L73572 72451
L73601 72480
L73630 72537
L73630 72708
L73601 72765
L73572 72794
L73515 72822
L73401 72822
L73344 72794
" />
<path d="M73887 72822
L73887 72422
" />
<path d="M73887 72537
L73915 72480
L73944 72451
L74001 72422
L74058 72422
" />
<path d="M74344 72822
L74287 72794
L74258 72765
L74230 72708
L74230 72537
L74258 72480
L74287 72451
L74344 72422
L74430 72422
L74487 72451
L74515 72480
L74544 72537
L74544 72708
L74515 72765
L74487 72794
L74430 72822
L74344 72822
" />
<path d="M74801 72822
L74801 72222
" />
<path d="M74801 72451
L74858 72422
L74972 72422
L75030 72451
L75058 72480
L75087 72537
L75087 72708
L75058 72765
L75030 72794
L74972 72822
L74858 72822
L74801 72794
" />
<path d="M75572 72794
L75515 72822
L75401 72822
L75344 72794
L75315 72737
L75315 72508
L75344 72451
L75401 72422
L75515 72422
L75572 72451
L75601 72508
L75601 72565
L75315 72622
" />
<path d="M75830 72794
L75887 72822
L76001 72822
L76058 72794
L76087 72737
L76087 72708
L76058 72651
L76001 72622
L75915 72622
L75858 72594
L75830 72537
L75830 72508
L75858 72451
L75915 72422
L76001 72422
L76058 72451
" />
<path d="M76344 72765
L76372 72794
L76344 72822
L76315 72794
L76344 72765
L76344 72822
" />
<path d="M76630 72822
L76630 72222
" />
<path d="M76630 72451
L76687 72422
L76801 72422
L76858 72451
L76887 72480
L76915 72537
L76915 72708
L76887 72765
L76858 72794
L76801 72822
L76687 72822
L76630 72794
" />
<path d="M77172 72822
L77172 72422
" />
<path d="M77172 72537
L77201 72480
L77230 72451
L77287 72422
L77344 72422
" />
<path d="M77801 72822
L77801 72222
" />
<path d="M77801 72794
L77744 72822
L77630 72822
L77572 72794
L77544 72765
L77515 72708
L77515 72537
L77544 72480
L77572 72451
L77630 72422
L77744 72422
L77801 72451
" />
<path d="M70944 73994
L71030 74022
L71172 74022
L71230 73994
L71258 73965
L71287 73908
L71287 73851
L71258 73794
L71230 73765
L71172 73737
L71058 73708
L71001 73680
L70972 73651
L70944 73594
L70944 73537
L70972 73480
L71001 73451
L71058 73422
L71201 73422
L71287 73451
" />
<path d="M71544 74022
L71544 73422
" />
<path d="M71801 74022
L71801 73708
L71772 73651
L71715 73622
L71630 73622
L71572 73651
L71544 73680
" />
<path d="M72315 73994
L72258 74022
L72144 74022
L72087 73994
L72058 73937
L72058 73708
L72087 73651
L72144 73622
L72258 73622
L72315 73651
L72344 73708
L72344 73765
L72058 73822
" />
<path d="M72830 73994
L72772 74022
L72658 74022
L72601 73994
L72572 73937
L72572 73708
L72601 73651
L72658 73622
L72772 73622
L72830 73651
L72858 73708
L72858 73765
L72572 73822
" />
<path d="M73030 73622
L73258 73622
" />
<path d="M73115 73422
L73115 73937
L73144 73994
L73201 74022
L73258 74022
" />
<path d="M73458 73965
L73487 73994
L73458 74022
L73430 73994
L73458 73965
L73458 74022
" />
<path d="M73458 73651
L73487 73680
L73458 73708
L73430 73680
L73458 73651
L73458 73708
" />
<path d="M70230 71980
L70230 77980
" />
<path d="M70230 71980
L112230 71980
" />
<path d="M70230 71980
L112230 71980
" />
<path d="M70230 74380
L112230 74380
" />
<path d="M103430 75580
L103430 77980
" />
<path d="M70230 76780
L112230 76780
" />
<path d="M70230 75580
L112230 75580
" />
<path d="M76830 75580
L76830 76780
" />
</g>
<g style="fill:#000000; fill-opacity:0.0; 
stroke:#000000; stroke-width:120; stroke-opacity:1; 
stroke-linecap:round; stroke-linejoin:round;">
<path d="M68307 19685
L68307 38976
" />
<path d="M24409 19685
L68307 19685
" />
<path d="M24409 20078
L24409 19685
" />
<path d="M24409 20669
L24409 20078
" />
<path d="M24409 38976
L24409 20669
" />
<path d="M68307 38976
L24409 38976
" />
</g> 
</svg>
